<ttFont>
    <TTGlyph name=".notdef" xMin="33" yMin="0" xMax="298" yMax="666">
      <contour>
        <pt x="33" y="0" on="1"/>
        <pt x="33" y="666" on="1"/>
        <pt x="298" y="666" on="1"/>
        <pt x="298" y="0" on="1"/>
      </contour>
      <contour>
        <pt x="66" y="33" on="1"/>
        <pt x="265" y="33" on="1"/>
        <pt x="265" y="633" on="1"/>
        <pt x="66" y="633" on="1"/>
      </contour>
    </TTGlyph>
    <TTGlyph name="A" xMin="-25" yMin="-7" xMax="580" yMax="451">
      <contour>
        <pt x="202" y="171" on="1"/>
        <pt x="219" y="171" on="1"/>
        <pt x="239" y="171" on="0"/>
        <pt x="316" y="159" on="0"/>
        <pt x="333" y="159" on="1"/>
        <pt x="345" y="159" on="0"/>
        <pt x="353" y="160" on="1"/>
        <pt x="357" y="189" on="0"/>
        <pt x="370" y="259" on="0"/>
        <pt x="383" y="319" on="0"/>
        <pt x="395" y="370" on="0"/>
        <pt x="399" y="386" on="1"/>
        <pt x="403" y="401" on="1"/>
        <pt x="403" y="404" on="0"/>
        <pt x="402" y="404" on="1"/>
        <pt x="398" y="404" on="0"/>
        <pt x="388" y="390" on="1"/>
      </contour>
      <contour>
        <pt x="186" y="153" on="1"/>
        <pt x="90" y="43" on="0"/>
        <pt x="51" y="11" on="1"/>
        <pt x="36" y="0" on="0"/>
        <pt x="8" y="-3" on="1"/>
        <pt x="6" y="-3" on="0"/>
        <pt x="-13" y="-7" on="0"/>
        <pt x="-25" y="-7" on="0"/>
        <pt x="-25" y="-3" on="1"/>
        <pt x="-25" y="2" on="0"/>
        <pt x="-17" y="4" on="1"/>
        <pt x="2" y="10" on="0"/>
        <pt x="15" y="22" on="1"/>
        <pt x="175" y="161" on="0"/>
        <pt x="373" y="392" on="1"/>
        <pt x="381" y="401" on="0"/>
        <pt x="392" y="414" on="0"/>
        <pt x="403" y="423" on="0"/>
        <pt x="407" y="428" on="0"/>
        <pt x="418" y="434" on="0"/>
        <pt x="421" y="435" on="0"/>
        <pt x="435" y="441" on="0"/>
        <pt x="438" y="442" on="1"/>
        <pt x="440" y="443" on="0"/>
        <pt x="457" y="451" on="0"/>
        <pt x="460" y="451" on="1"/>
        <pt x="464" y="451" on="0"/>
        <pt x="464" y="447" on="1"/>
        <pt x="464" y="446" on="1"/>
        <pt x="464" y="441" on="0"/>
        <pt x="453" y="416" on="0"/>
        <pt x="453" y="415" on="1"/>
        <pt x="416" y="317" on="0"/>
        <pt x="396" y="166" on="1"/>
        <pt x="415" y="171" on="0"/>
        <pt x="449" y="190" on="0"/>
        <pt x="467" y="204" on="0"/>
        <pt x="468" y="204" on="1"/>
        <pt x="471" y="204" on="0"/>
        <pt x="471" y="198" on="0"/>
        <pt x="449" y="181" on="0"/>
        <pt x="411" y="161" on="0"/>
        <pt x="395" y="157" on="1"/>
        <pt x="390" y="114" on="0"/>
        <pt x="390" y="89" on="1"/>
        <pt x="390" y="13" on="0"/>
        <pt x="422" y="13" on="1"/>
        <pt x="458" y="13" on="0"/>
        <pt x="525" y="71" on="1"/>
        <pt x="558" y="100" on="0"/>
        <pt x="574" y="124" on="1"/>
        <pt x="576" y="127" on="0"/>
        <pt x="580" y="127" on="0"/>
        <pt x="580" y="125" on="1"/>
        <pt x="580" y="124" on="0"/>
        <pt x="579" y="122" on="1"/>
        <pt x="530" y="57" on="0"/>
        <pt x="463" y="18" on="1"/>
        <pt x="425" y="-4" on="0"/>
        <pt x="393" y="-4" on="1"/>
        <pt x="364" y="-4" on="0"/>
        <pt x="346" y="33" on="0"/>
        <pt x="346" y="77" on="1"/>
        <pt x="346" y="113" on="0"/>
        <pt x="351" y="148" on="1"/>
        <pt x="306" y="143" on="0"/>
        <pt x="291" y="143" on="1"/>
        <pt x="270" y="143" on="0"/>
        <pt x="204" y="154" on="0"/>
        <pt x="196" y="154" on="1"/>
        <pt x="189" y="154" on="0"/>
      </contour>
    </TTGlyph>
    <TTGlyph name="AE" xMin="-25" yMin="-12" xMax="760" yMax="451">
      <contour>
        <pt x="403" y="213" on="1"/>
        <pt x="428" y="233" on="0"/>
        <pt x="498" y="263" on="0"/>
        <pt x="541" y="275" on="0"/>
        <pt x="541" y="277" on="1"/>
        <pt x="541" y="281" on="0"/>
        <pt x="535" y="285" on="1"/>
        <pt x="505" y="305" on="0"/>
        <pt x="505" y="342" on="1"/>
        <pt x="505" y="377" on="0"/>
        <pt x="585" y="443" on="0"/>
        <pt x="654" y="443" on="1"/>
        <pt x="683" y="443" on="0"/>
        <pt x="760" y="423" on="0"/>
        <pt x="760" y="403" on="1"/>
        <pt x="760" y="398" on="0"/>
        <pt x="749" y="380" on="0"/>
        <pt x="746" y="373" on="1"/>
        <pt x="742" y="365" on="0"/>
        <pt x="738" y="365" on="0"/>
        <pt x="736" y="371" on="1"/>
        <pt x="730" y="391" on="0"/>
        <pt x="681" y="431" on="0"/>
        <pt x="643" y="431" on="1"/>
        <pt x="611" y="431" on="0"/>
        <pt x="566" y="418" on="0"/>
        <pt x="547" y="396" on="0"/>
        <pt x="539" y="377" on="0"/>
        <pt x="539" y="368" on="1"/>
        <pt x="539" y="349" on="0"/>
        <pt x="560" y="309" on="0"/>
        <pt x="577" y="300" on="1"/>
        <pt x="597" y="291" on="0"/>
        <pt x="597" y="288" on="1"/>
        <pt x="597" y="270" on="0"/>
        <pt x="576" y="268" on="1"/>
        <pt x="522" y="262" on="0"/>
        <pt x="445" y="227" on="0"/>
        <pt x="408" y="178" on="0"/>
        <pt x="392" y="130" on="0"/>
        <pt x="392" y="102" on="1"/>
        <pt x="392" y="55" on="0"/>
        <pt x="460" y="9" on="0"/>
        <pt x="500" y="9" on="1"/>
        <pt x="569" y="9" on="0"/>
        <pt x="652" y="80" on="0"/>
        <pt x="652" y="125" on="1"/>
        <pt x="652" y="128" on="0"/>
        <pt x="650" y="137" on="0"/>
        <pt x="650" y="138" on="1"/>
        <pt x="650" y="141" on="0"/>
        <pt x="652" y="141" on="1"/>
        <pt x="664" y="133" on="1"/>
        <pt x="672" y="127" on="0"/>
        <pt x="672" y="122" on="1"/>
        <pt x="672" y="85" on="0"/>
        <pt x="561" y="-12" on="0"/>
        <pt x="478" y="-12" on="1"/>
        <pt x="409" y="-12" on="0"/>
        <pt x="348" y="47" on="0"/>
        <pt x="348" y="104" on="1"/>
        <pt x="348" y="124" on="0"/>
        <pt x="351" y="148" on="1"/>
        <pt x="306" y="143" on="0"/>
        <pt x="291" y="143" on="1"/>
        <pt x="270" y="143" on="0"/>
        <pt x="204" y="154" on="0"/>
        <pt x="196" y="154" on="1"/>
        <pt x="189" y="154" on="0"/>
        <pt x="186" y="153" on="1"/>
        <pt x="90" y="43" on="0"/>
        <pt x="51" y="11" on="1"/>
        <pt x="36" y="0" on="0"/>
        <pt x="8" y="-3" on="1"/>
        <pt x="6" y="-3" on="0"/>
        <pt x="-13" y="-7" on="0"/>
        <pt x="-25" y="-7" on="0"/>
        <pt x="-25" y="-3" on="1"/>
        <pt x="-25" y="2" on="0"/>
        <pt x="-17" y="4" on="1"/>
        <pt x="2" y="10" on="0"/>
        <pt x="15" y="22" on="1"/>
        <pt x="175" y="161" on="0"/>
        <pt x="373" y="392" on="1"/>
        <pt x="381" y="401" on="0"/>
        <pt x="392" y="414" on="0"/>
        <pt x="403" y="423" on="0"/>
        <pt x="407" y="428" on="0"/>
        <pt x="418" y="434" on="0"/>
        <pt x="421" y="435" on="0"/>
        <pt x="435" y="441" on="0"/>
        <pt x="438" y="442" on="1"/>
        <pt x="440" y="443" on="0"/>
        <pt x="457" y="451" on="0"/>
        <pt x="460" y="451" on="1"/>
        <pt x="464" y="451" on="0"/>
        <pt x="464" y="447" on="1"/>
        <pt x="464" y="446" on="1"/>
        <pt x="464" y="441" on="0"/>
        <pt x="453" y="416" on="0"/>
        <pt x="453" y="415" on="1"/>
        <pt x="426" y="343" on="0"/>
      </contour>
      <contour>
        <pt x="202" y="171" on="1"/>
        <pt x="219" y="171" on="1"/>
        <pt x="239" y="171" on="0"/>
        <pt x="316" y="159" on="0"/>
        <pt x="333" y="159" on="1"/>
        <pt x="345" y="159" on="0"/>
        <pt x="353" y="160" on="1"/>
        <pt x="357" y="189" on="0"/>
        <pt x="370" y="259" on="0"/>
        <pt x="383" y="319" on="0"/>
        <pt x="395" y="370" on="0"/>
        <pt x="399" y="386" on="1"/>
        <pt x="403" y="401" on="1"/>
        <pt x="403" y="404" on="0"/>
        <pt x="402" y="404" on="1"/>
        <pt x="398" y="404" on="0"/>
        <pt x="388" y="390" on="1"/>
      </contour>
    </TTGlyph>
    <TTGlyph name="AEacute" xMin="-25" yMin="-12" xMax="760" yMax="580">
      <component glyphName="acutecomb" x="392" y="226" flags="0x1004"/>
      <component glyphName="AE" x="0" y="0" flags="0x1204"/>
    </TTGlyph>
    <TTGlyph name="Aacute" xMin="-25" yMin="-7" xMax="580" yMax="580">
      <component glyphName="acutecomb" x="311" y="226" flags="0x1004"/>
      <component glyphName="A" x="0" y="0" flags="0x1204"/>
    </TTGlyph>
    <TTGlyph name="Abreve" xMin="-25" yMin="-7" xMax="598" yMax="588">
      <component glyphName="uni0306" x="288" y="226" flags="0x1004"/>
      <component glyphName="A" x="0" y="0" flags="0x1204"/>
    </TTGlyph>
    <TTGlyph name="Acircumflex" xMin="-25" yMin="-7" xMax="580" yMax="583">
      <component glyphName="uni0302" x="288" y="226" flags="0x1004"/>
      <component glyphName="A" x="0" y="0" flags="0x1204"/>
    </TTGlyph>
    <TTGlyph name="Adieresis" xMin="-25" yMin="-7" xMax="580" yMax="562">
      <component glyphName="uni0308" x="288" y="226" flags="0x1004"/>
      <component glyphName="A" x="0" y="0" flags="0x1204"/>
    </TTGlyph>
    <TTGlyph name="Agrave" xMin="-25" yMin="-7" xMax="580" yMax="621">
      <component glyphName="gravecomb" x="288" y="226" flags="0x1004"/>
      <component glyphName="A" x="0" y="0" flags="0x1204"/>
    </TTGlyph>
    <TTGlyph name="Alpha" xMin="-25" yMin="-7" xMax="580" yMax="451">
      <component glyphName="A" x="0" y="0" flags="0x1004"/>
    </TTGlyph>
    <TTGlyph name="Alphatonos" xMin="-25" yMin="-7" xMax="580" yMax="511">
      <component glyphName="tonos" x="98" y="126" flags="0x1004"/>
      <component glyphName="Alpha" x="0" y="0" flags="0x1204"/>
    </TTGlyph>
    <TTGlyph name="Amacron" xMin="-25" yMin="-7" xMax="580" yMax="541">
      <component glyphName="uni0304" x="288" y="226" flags="0x1004"/>
      <component glyphName="A" x="0" y="0" flags="0x1204"/>
    </TTGlyph>
    <TTGlyph name="Aogonek" xMin="-25" yMin="-113" xMax="580" yMax="451">
      <component glyphName="uni0328" x="315" y="0" flags="0x1004"/>
      <component glyphName="A" x="0" y="0" flags="0x1204"/>
    </TTGlyph>
    <TTGlyph name="Aring" xMin="-25" yMin="-7" xMax="580" yMax="525">
      <contour>
        <pt x="202" y="171" on="1"/>
        <pt x="219" y="171" on="1"/>
        <pt x="239" y="171" on="0"/>
        <pt x="316" y="159" on="0"/>
        <pt x="333" y="159" on="1"/>
        <pt x="345" y="159" on="0"/>
        <pt x="353" y="160" on="1"/>
        <pt x="357" y="189" on="0"/>
        <pt x="370" y="259" on="0"/>
        <pt x="383" y="319" on="0"/>
        <pt x="395" y="370" on="0"/>
        <pt x="399" y="386" on="1"/>
        <pt x="403" y="401" on="1"/>
        <pt x="403" y="404" on="0"/>
        <pt x="402" y="404" on="1"/>
        <pt x="398" y="404" on="0"/>
        <pt x="388" y="390" on="1"/>
      </contour>
      <contour>
        <pt x="404" y="468" on="1"/>
        <pt x="404" y="491" on="0"/>
        <pt x="440" y="525" on="0"/>
        <pt x="464" y="525" on="1"/>
        <pt x="480" y="525" on="0"/>
        <pt x="501" y="506" on="0"/>
        <pt x="501" y="491" on="1"/>
        <pt x="501" y="472" on="0"/>
        <pt x="474" y="440" on="0"/>
        <pt x="454" y="435" on="1"/>
        <pt x="454" y="434" on="0"/>
        <pt x="405" y="235" on="0"/>
        <pt x="396" y="166" on="1"/>
        <pt x="415" y="171" on="0"/>
        <pt x="449" y="190" on="0"/>
        <pt x="467" y="204" on="0"/>
        <pt x="468" y="204" on="1"/>
        <pt x="471" y="204" on="0"/>
        <pt x="471" y="198" on="0"/>
        <pt x="449" y="181" on="0"/>
        <pt x="411" y="161" on="0"/>
        <pt x="395" y="157" on="1"/>
        <pt x="390" y="114" on="0"/>
        <pt x="390" y="89" on="1"/>
        <pt x="390" y="13" on="0"/>
        <pt x="422" y="13" on="1"/>
        <pt x="458" y="13" on="0"/>
        <pt x="525" y="71" on="1"/>
        <pt x="558" y="100" on="0"/>
        <pt x="574" y="124" on="1"/>
        <pt x="576" y="127" on="0"/>
        <pt x="580" y="127" on="0"/>
        <pt x="580" y="125" on="1"/>
        <pt x="580" y="124" on="0"/>
        <pt x="579" y="122" on="1"/>
        <pt x="530" y="57" on="0"/>
        <pt x="463" y="18" on="1"/>
        <pt x="425" y="-4" on="0"/>
        <pt x="393" y="-4" on="1"/>
        <pt x="364" y="-4" on="0"/>
        <pt x="346" y="33" on="0"/>
        <pt x="346" y="77" on="1"/>
        <pt x="346" y="113" on="0"/>
        <pt x="351" y="148" on="1"/>
        <pt x="306" y="143" on="0"/>
        <pt x="291" y="143" on="1"/>
        <pt x="270" y="143" on="0"/>
        <pt x="204" y="154" on="0"/>
        <pt x="196" y="154" on="1"/>
        <pt x="189" y="154" on="0"/>
        <pt x="186" y="153" on="1"/>
        <pt x="90" y="43" on="0"/>
        <pt x="51" y="11" on="1"/>
        <pt x="36" y="0" on="0"/>
        <pt x="8" y="-3" on="1"/>
        <pt x="6" y="-3" on="0"/>
        <pt x="-13" y="-7" on="0"/>
        <pt x="-25" y="-7" on="0"/>
        <pt x="-25" y="-3" on="1"/>
        <pt x="-25" y="2" on="0"/>
        <pt x="-17" y="4" on="1"/>
        <pt x="2" y="10" on="0"/>
        <pt x="15" y="22" on="1"/>
        <pt x="175" y="161" on="0"/>
        <pt x="373" y="392" on="1"/>
        <pt x="417" y="442" on="1"/>
        <pt x="404" y="452" on="0"/>
      </contour>
      <contour>
        <pt x="454" y="513" on="1"/>
        <pt x="440" y="513" on="0"/>
        <pt x="421" y="490" on="0"/>
        <pt x="421" y="474" on="1"/>
        <pt x="421" y="463" on="0"/>
        <pt x="438" y="445" on="0"/>
        <pt x="449" y="445" on="1"/>
        <pt x="463" y="445" on="0"/>
        <pt x="483" y="466" on="0"/>
        <pt x="483" y="482" on="1"/>
        <pt x="483" y="493" on="0"/>
        <pt x="467" y="513" on="0"/>
      </contour>
    </TTGlyph>
    <TTGlyph name="Aringacute" xMin="-25" yMin="-7" xMax="603" yMax="680">
      <component glyphName="acutecomb" x="352" y="326" flags="0x1004"/>
      <component glyphName="Aring" x="0" y="0" flags="0x1204"/>
    </TTGlyph>
    <TTGlyph name="Atilde" xMin="-25" yMin="-7" xMax="593" yMax="564">
      <component glyphName="tildecomb" x="288" y="226" flags="0x1004"/>
      <component glyphName="A" x="0" y="0" flags="0x1204"/>
    </TTGlyph>
    <TTGlyph name="B" xMin="18" yMin="-73" xMax="463" yMax="443">
      <contour>
        <pt x="142" y="129" on="1"/>
        <pt x="91" y="25" on="0"/>
        <pt x="63" y="-55" on="1"/>
        <pt x="62" y="-57" on="0"/>
        <pt x="58" y="-61" on="0"/>
        <pt x="53" y="-62" on="0"/>
        <pt x="44" y="-65" on="0"/>
        <pt x="41" y="-66" on="1"/>
        <pt x="22" y="-73" on="1"/>
        <pt x="18" y="-73" on="0"/>
        <pt x="18" y="-65" on="0"/>
        <pt x="119" y="130" on="1"/>
        <pt x="280" y="443" on="0"/>
        <pt x="406" y="443" on="1"/>
        <pt x="429" y="443" on="0"/>
        <pt x="463" y="421" on="0"/>
        <pt x="463" y="398" on="1"/>
        <pt x="463" y="349" on="0"/>
        <pt x="376" y="257" on="0"/>
        <pt x="330" y="243" on="1"/>
        <pt x="360" y="246" on="0"/>
        <pt x="368" y="246" on="1"/>
        <pt x="450" y="246" on="0"/>
        <pt x="450" y="170" on="1"/>
        <pt x="450" y="110" on="0"/>
        <pt x="371" y="43" on="1"/>
        <pt x="306" y="-12" on="0"/>
        <pt x="224" y="-12" on="1"/>
        <pt x="186" y="-12" on="0"/>
        <pt x="133" y="34" on="0"/>
        <pt x="133" y="62" on="1"/>
        <pt x="133" y="64" on="0"/>
        <pt x="139" y="66" on="0"/>
        <pt x="150" y="70" on="0"/>
        <pt x="158" y="74" on="0"/>
        <pt x="164" y="78" on="0"/>
        <pt x="166" y="80" on="0"/>
        <pt x="168" y="81" on="0"/>
        <pt x="169" y="81" on="1"/>
        <pt x="171" y="81" on="0"/>
        <pt x="171" y="79" on="1"/>
        <pt x="171" y="78" on="0"/>
        <pt x="168" y="75" on="0"/>
        <pt x="168" y="73" on="1"/>
        <pt x="168" y="45" on="0"/>
        <pt x="217" y="0" on="0"/>
        <pt x="251" y="0" on="1"/>
        <pt x="300" y="0" on="0"/>
        <pt x="405" y="107" on="0"/>
        <pt x="405" y="185" on="1"/>
        <pt x="404" y="208" on="0"/>
        <pt x="378" y="238" on="0"/>
        <pt x="354" y="238" on="1"/>
        <pt x="332" y="238" on="0"/>
        <pt x="292" y="221" on="0"/>
        <pt x="287" y="221" on="1"/>
        <pt x="285" y="221" on="0"/>
        <pt x="280" y="228" on="1"/>
        <pt x="278" y="230" on="1"/>
        <pt x="276" y="232" on="0"/>
        <pt x="276" y="234" on="1"/>
        <pt x="276" y="237" on="0"/>
        <pt x="288" y="240" on="0"/>
        <pt x="305" y="242" on="0"/>
        <pt x="308" y="243" on="1"/>
        <pt x="346" y="256" on="0"/>
        <pt x="417" y="340" on="0"/>
        <pt x="417" y="381" on="1"/>
        <pt x="417" y="399" on="0"/>
        <pt x="390" y="421" on="0"/>
        <pt x="369" y="421" on="1"/>
        <pt x="287" y="421" on="0"/>
      </contour>
    </TTGlyph>
    <TTGlyph name="Beta" xMin="18" yMin="-73" xMax="463" yMax="443">
      <component glyphName="B" x="0" y="0" flags="0x1004"/>
    </TTGlyph>
    <TTGlyph name="C" xMin="80" yMin="-12" xMax="496" yMax="443">
      <contour>
        <pt x="472" y="372" on="1"/>
        <pt x="469" y="368" on="0"/>
        <pt x="467" y="368" on="1"/>
        <pt x="464" y="368" on="0"/>
        <pt x="464" y="372" on="1"/>
        <pt x="464" y="389" on="0"/>
        <pt x="418" y="421" on="0"/>
        <pt x="392" y="421" on="1"/>
        <pt x="342" y="421" on="0"/>
        <pt x="296" y="394" on="1"/>
        <pt x="226" y="348" on="0"/>
        <pt x="128" y="197" on="0"/>
        <pt x="128" y="114" on="1"/>
        <pt x="128" y="68" on="0"/>
        <pt x="185" y="4" on="0"/>
        <pt x="228" y="4" on="1"/>
        <pt x="362" y="4" on="0"/>
        <pt x="395" y="108" on="1"/>
        <pt x="398" y="120" on="0"/>
        <pt x="401" y="120" on="1"/>
        <pt x="406" y="120" on="0"/>
        <pt x="417" y="103" on="0"/>
        <pt x="417" y="97" on="1"/>
        <pt x="417" y="84" on="0"/>
        <pt x="374" y="36" on="0"/>
        <pt x="273" y="-12" on="0"/>
        <pt x="211" y="-12" on="1"/>
        <pt x="155" y="-12" on="0"/>
        <pt x="80" y="62" on="0"/>
        <pt x="80" y="117" on="1"/>
        <pt x="80" y="195" on="0"/>
        <pt x="201" y="356" on="0"/>
        <pt x="289" y="405" on="1"/>
        <pt x="355" y="443" on="0"/>
        <pt x="424" y="443" on="1"/>
        <pt x="447" y="443" on="0"/>
        <pt x="483" y="425" on="0"/>
        <pt x="496" y="408" on="0"/>
        <pt x="496" y="404" on="1"/>
        <pt x="496" y="399" on="0"/>
        <pt x="475" y="378" on="0"/>
      </contour>
    </TTGlyph>
    <TTGlyph name="Cacute" xMin="80" yMin="-12" xMax="517" yMax="580">
      <component glyphName="acutecomb" x="266" y="226" flags="0x1004"/>
      <component glyphName="C" x="0" y="0" flags="0x1204"/>
    </TTGlyph>
    <TTGlyph name="Ccaron" xMin="80" yMin="-12" xMax="551" yMax="597">
      <component glyphName="uni030C" x="243" y="226" flags="0x1004"/>
      <component glyphName="C" x="0" y="0" flags="0x1204"/>
    </TTGlyph>
    <TTGlyph name="Ccedilla" xMin="80" yMin="-145" xMax="496" yMax="443">
      <component glyphName="uni0327" x="127" y="0" flags="0x1004"/>
      <component glyphName="C" x="0" y="0" flags="0x1204"/>
    </TTGlyph>
    <TTGlyph name="Ccircumflex" xMin="80" yMin="-12" xMax="505" yMax="583">
      <component glyphName="uni0302" x="243" y="226" flags="0x1004"/>
      <component glyphName="C" x="0" y="0" flags="0x1204"/>
    </TTGlyph>
    <TTGlyph name="Cdotaccent" xMin="80" yMin="-12" xMax="496" yMax="562">
      <component glyphName="uni0307" x="243" y="226" flags="0x1004"/>
      <component glyphName="C" x="0" y="0" flags="0x1204"/>
    </TTGlyph>
    <TTGlyph name="Chi" xMin="-10" yMin="-53" xMax="605" yMax="443">
      <component glyphName="X" x="0" y="0" flags="0x1004"/>
    </TTGlyph>
    <TTGlyph name="D" xMin="65" yMin="-10" xMax="628" yMax="515">
      <contour>
        <pt x="240" y="93" on="1"/>
        <pt x="225" y="113" on="0"/>
        <pt x="214" y="129" on="0"/>
        <pt x="190" y="148" on="0"/>
        <pt x="180" y="148" on="1"/>
        <pt x="150" y="148" on="0"/>
        <pt x="93" y="74" on="0"/>
        <pt x="93" y="45" on="1"/>
        <pt x="93" y="13" on="0"/>
        <pt x="133" y="13" on="1"/>
        <pt x="154" y="13" on="0"/>
        <pt x="212" y="52" on="0"/>
      </contour>
      <contour>
        <pt x="279" y="120" on="1"/>
        <pt x="284" y="111" on="0"/>
        <pt x="302" y="72" on="0"/>
        <pt x="316" y="46" on="0"/>
        <pt x="338" y="18" on="0"/>
        <pt x="369" y="3" on="0"/>
        <pt x="389" y="3" on="1"/>
        <pt x="473" y="3" on="0"/>
        <pt x="585" y="165" on="0"/>
        <pt x="585" y="258" on="1"/>
        <pt x="585" y="400" on="0"/>
        <pt x="452" y="427" on="1"/>
        <pt x="346" y="214" on="0"/>
      </contour>
      <contour>
        <pt x="196" y="307" on="1"/>
        <pt x="196" y="301" on="0"/>
        <pt x="198" y="297" on="1"/>
        <pt x="199" y="293" on="1"/>
        <pt x="199" y="291" on="0"/>
        <pt x="196" y="291" on="1"/>
        <pt x="192" y="291" on="0"/>
        <pt x="182" y="301" on="1"/>
        <pt x="180" y="303" on="0"/>
        <pt x="176" y="307" on="0"/>
        <pt x="172" y="309" on="0"/>
        <pt x="169" y="312" on="0"/>
        <pt x="168" y="316" on="0"/>
        <pt x="168" y="318" on="1"/>
        <pt x="168" y="369" on="0"/>
        <pt x="307" y="443" on="0"/>
        <pt x="383" y="443" on="1"/>
        <pt x="405" y="443" on="0"/>
        <pt x="415" y="442" on="1"/>
        <pt x="420" y="454" on="0"/>
        <pt x="420" y="464" on="1"/>
        <pt x="420" y="503" on="0"/>
        <pt x="370" y="503" on="1"/>
        <pt x="355" y="503" on="0"/>
        <pt x="324" y="490" on="0"/>
        <pt x="304" y="477" on="0"/>
        <pt x="303" y="477" on="1"/>
        <pt x="300" y="477" on="0"/>
        <pt x="300" y="480" on="1"/>
        <pt x="300" y="482" on="0"/>
        <pt x="322" y="498" on="0"/>
        <pt x="365" y="515" on="0"/>
        <pt x="387" y="515" on="1"/>
        <pt x="414" y="515" on="0"/>
        <pt x="460" y="492" on="0"/>
        <pt x="460" y="463" on="1"/>
        <pt x="460" y="452" on="0"/>
        <pt x="455" y="437" on="1"/>
        <pt x="628" y="409" on="0"/>
        <pt x="628" y="234" on="1"/>
        <pt x="628" y="137" on="0"/>
        <pt x="487" y="-10" on="0"/>
        <pt x="390" y="-10" on="1"/>
        <pt x="363" y="-10" on="0"/>
        <pt x="325" y="0" on="0"/>
        <pt x="287" y="34" on="0"/>
        <pt x="273" y="50" on="0"/>
        <pt x="249" y="81" on="1"/>
        <pt x="223" y="51" on="0"/>
        <pt x="204" y="35" on="1"/>
        <pt x="153" y="-8" on="0"/>
        <pt x="113" y="-8" on="1"/>
        <pt x="65" y="-8" on="0"/>
        <pt x="65" y="28" on="1"/>
        <pt x="65" y="70" on="0"/>
        <pt x="172" y="176" on="0"/>
        <pt x="214" y="176" on="1"/>
        <pt x="240" y="176" on="0"/>
        <pt x="267" y="138" on="1"/>
        <pt x="360" y="304" on="0"/>
        <pt x="411" y="433" on="1"/>
        <pt x="401" y="434" on="0"/>
        <pt x="380" y="434" on="1"/>
        <pt x="316" y="434" on="0"/>
        <pt x="196" y="353" on="0"/>
      </contour>
    </TTGlyph>
    <TTGlyph name="Dcaron" xMin="65" yMin="-10" xMax="628" yMax="627">
      <component glyphName="uni030C" x="276" y="256" flags="0x1004"/>
      <component glyphName="D" x="0" y="0" flags="0x1204"/>
    </TTGlyph>
    <TTGlyph name="Dcroat" xMin="65" yMin="-10" xMax="628" yMax="515">
      <component glyphName="Eth" x="0" y="0" flags="0x1004"/>
    </TTGlyph>
    <TTGlyph name="Delta" xMin="11" yMin="0" xMax="468" yMax="448">
      <contour>
        <pt x="23" y="0" on="1"/>
        <pt x="11" y="0" on="0"/>
        <pt x="11" y="9" on="1"/>
        <pt x="11" y="21" on="0"/>
        <pt x="77" y="90" on="0"/>
        <pt x="275" y="285" on="0"/>
        <pt x="371" y="386" on="1"/>
        <pt x="375" y="390" on="0"/>
        <pt x="388" y="404" on="0"/>
        <pt x="392" y="408" on="0"/>
        <pt x="402" y="418" on="0"/>
        <pt x="405" y="421" on="0"/>
        <pt x="412" y="427" on="0"/>
        <pt x="416" y="430" on="0"/>
        <pt x="422" y="434" on="0"/>
        <pt x="427" y="436" on="0"/>
        <pt x="434" y="439" on="0"/>
        <pt x="438" y="441" on="1"/>
        <pt x="459" y="448" on="0"/>
        <pt x="461" y="448" on="1"/>
        <pt x="465" y="448" on="0"/>
        <pt x="465" y="442" on="1"/>
        <pt x="465" y="440" on="0"/>
        <pt x="464" y="405" on="0"/>
        <pt x="462" y="304" on="0"/>
        <pt x="462" y="222" on="1"/>
        <pt x="462" y="203" on="0"/>
        <pt x="463" y="165" on="0"/>
        <pt x="464" y="132" on="0"/>
        <pt x="465" y="101" on="0"/>
        <pt x="466" y="78" on="0"/>
        <pt x="467" y="60" on="0"/>
        <pt x="468" y="55" on="1"/>
        <pt x="468" y="50" on="1"/>
        <pt x="468" y="21" on="0"/>
        <pt x="436" y="0" on="0"/>
        <pt x="405" y="0" on="1"/>
      </contour>
      <contour>
        <pt x="423" y="49" on="1"/>
        <pt x="423" y="110" on="0"/>
        <pt x="412" y="388" on="0"/>
        <pt x="412" y="397" on="1"/>
        <pt x="412" y="400" on="0"/>
        <pt x="409" y="400" on="1"/>
        <pt x="407" y="400" on="0"/>
        <pt x="396" y="389" on="1"/>
        <pt x="388" y="380" on="0"/>
        <pt x="213" y="192" on="0"/>
        <pt x="57" y="22" on="0"/>
        <pt x="57" y="20" on="1"/>
        <pt x="57" y="16" on="0"/>
        <pt x="63" y="16" on="1"/>
        <pt x="167" y="16" on="0"/>
        <pt x="310" y="20" on="0"/>
        <pt x="381" y="26" on="0"/>
        <pt x="418" y="36" on="0"/>
        <pt x="423" y="43" on="0"/>
      </contour>
    </TTGlyph>
    <TTGlyph name="E" xMin="79" yMin="-12" xMax="497" yMax="443">
      <contour>
        <pt x="215" y="-12" on="1"/>
        <pt x="165" y="-12" on="0"/>
        <pt x="79" y="48" on="0"/>
        <pt x="79" y="95" on="1"/>
        <pt x="79" y="136" on="0"/>
        <pt x="120" y="201" on="0"/>
        <pt x="179" y="238" on="0"/>
        <pt x="237" y="263" on="0"/>
        <pt x="278" y="275" on="0"/>
        <pt x="278" y="277" on="1"/>
        <pt x="278" y="281" on="0"/>
        <pt x="272" y="285" on="1"/>
        <pt x="242" y="305" on="0"/>
        <pt x="242" y="342" on="1"/>
        <pt x="242" y="377" on="0"/>
        <pt x="322" y="443" on="0"/>
        <pt x="391" y="443" on="1"/>
        <pt x="420" y="443" on="0"/>
        <pt x="497" y="423" on="0"/>
        <pt x="497" y="403" on="1"/>
        <pt x="497" y="398" on="0"/>
        <pt x="486" y="380" on="0"/>
        <pt x="483" y="373" on="1"/>
        <pt x="479" y="365" on="0"/>
        <pt x="475" y="365" on="0"/>
        <pt x="473" y="371" on="1"/>
        <pt x="467" y="391" on="0"/>
        <pt x="418" y="431" on="0"/>
        <pt x="380" y="431" on="1"/>
        <pt x="348" y="431" on="0"/>
        <pt x="303" y="418" on="0"/>
        <pt x="284" y="396" on="0"/>
        <pt x="276" y="377" on="0"/>
        <pt x="276" y="368" on="1"/>
        <pt x="276" y="349" on="0"/>
        <pt x="297" y="309" on="0"/>
        <pt x="314" y="300" on="1"/>
        <pt x="334" y="291" on="0"/>
        <pt x="334" y="288" on="1"/>
        <pt x="334" y="270" on="0"/>
        <pt x="313" y="268" on="1"/>
        <pt x="259" y="262" on="0"/>
        <pt x="182" y="227" on="0"/>
        <pt x="145" y="178" on="0"/>
        <pt x="129" y="130" on="0"/>
        <pt x="129" y="102" on="1"/>
        <pt x="129" y="55" on="0"/>
        <pt x="197" y="9" on="0"/>
        <pt x="237" y="9" on="1"/>
        <pt x="306" y="9" on="0"/>
        <pt x="389" y="80" on="0"/>
        <pt x="389" y="125" on="1"/>
        <pt x="389" y="128" on="0"/>
        <pt x="387" y="137" on="0"/>
        <pt x="387" y="138" on="1"/>
        <pt x="387" y="141" on="0"/>
        <pt x="389" y="141" on="1"/>
        <pt x="401" y="133" on="1"/>
        <pt x="409" y="127" on="0"/>
        <pt x="409" y="122" on="1"/>
        <pt x="409" y="85" on="0"/>
        <pt x="298" y="-12" on="0"/>
      </contour>
    </TTGlyph>
    <TTGlyph name="Eacute" xMin="79" yMin="-12" xMax="497" yMax="580">
      <component glyphName="acutecomb" x="240" y="226" flags="0x1004"/>
      <component glyphName="E" x="0" y="0" flags="0x1204"/>
    </TTGlyph>
    <TTGlyph name="Ebreve" xMin="79" yMin="-12" xMax="550" yMax="588">
      <component glyphName="uni0306" x="240" y="226" flags="0x1004"/>
      <component glyphName="E" x="0" y="0" flags="0x1204"/>
    </TTGlyph>
    <TTGlyph name="Ecaron" xMin="79" yMin="-12" xMax="548" yMax="597">
      <component glyphName="uni030C" x="240" y="226" flags="0x1004"/>
      <component glyphName="E" x="0" y="0" flags="0x1204"/>
    </TTGlyph>
    <TTGlyph name="Ecircumflex" xMin="79" yMin="-12" xMax="502" yMax="583">
      <component glyphName="uni0302" x="240" y="226" flags="0x1004"/>
      <component glyphName="E" x="0" y="0" flags="0x1204"/>
    </TTGlyph>
    <TTGlyph name="Edieresis" xMin="79" yMin="-12" xMax="502" yMax="562">
      <component glyphName="uni0308" x="240" y="226" flags="0x1004"/>
      <component glyphName="E" x="0" y="0" flags="0x1204"/>
    </TTGlyph>
    <TTGlyph name="Edotaccent" xMin="79" yMin="-12" xMax="497" yMax="562">
      <component glyphName="uni0307" x="240" y="226" flags="0x1004"/>
      <component glyphName="E" x="0" y="0" flags="0x1204"/>
    </TTGlyph>
    <TTGlyph name="Egrave" xMin="79" yMin="-12" xMax="497" yMax="621">
      <component glyphName="gravecomb" x="240" y="226" flags="0x1004"/>
      <component glyphName="E" x="0" y="0" flags="0x1204"/>
    </TTGlyph>
    <TTGlyph name="Emacron" xMin="79" yMin="-12" xMax="531" yMax="541">
      <component glyphName="uni0304" x="240" y="226" flags="0x1004"/>
      <component glyphName="E" x="0" y="0" flags="0x1204"/>
    </TTGlyph>
    <TTGlyph name="Eng" xMin="17" yMin="-288" xMax="615" yMax="437">
      <contour>
        <pt x="339" y="-15" on="1"/>
        <pt x="207" y="-288" on="0"/>
        <pt x="67" y="-288" on="1"/>
        <pt x="40" y="-288" on="0"/>
        <pt x="17" y="-254" on="0"/>
        <pt x="17" y="-235" on="1"/>
        <pt x="17" y="-148" on="0"/>
        <pt x="116" y="-77" on="1"/>
        <pt x="126" y="-70" on="0"/>
        <pt x="166" y="-45" on="0"/>
        <pt x="170" y="-45" on="0"/>
        <pt x="170" y="-49" on="0"/>
        <pt x="157" y="-57" on="0"/>
        <pt x="132" y="-74" on="0"/>
        <pt x="122" y="-83" on="1"/>
        <pt x="90" y="-111" on="0"/>
        <pt x="51" y="-182" on="0"/>
        <pt x="51" y="-212" on="1"/>
        <pt x="51" y="-230" on="0"/>
        <pt x="74" y="-268" on="0"/>
        <pt x="100" y="-268" on="1"/>
        <pt x="119" y="-268" on="0"/>
        <pt x="150" y="-254" on="0"/>
        <pt x="198" y="-210" on="0"/>
        <pt x="262" y="-108" on="0"/>
        <pt x="302" y="-28" on="1"/>
        <pt x="297" y="12" on="0"/>
        <pt x="297" y="36" on="1"/>
        <pt x="299" y="380" on="1"/>
        <pt x="299" y="404" on="0"/>
        <pt x="296" y="404" on="1"/>
        <pt x="290" y="404" on="0"/>
        <pt x="281" y="386" on="1"/>
        <pt x="87" y="18" on="1"/>
        <pt x="83" y="11" on="0"/>
        <pt x="75" y="3" on="0"/>
        <pt x="62" y="-3" on="0"/>
        <pt x="59" y="-5" on="1"/>
        <pt x="55" y="-7" on="0"/>
        <pt x="49" y="-16" on="0"/>
        <pt x="43" y="-16" on="0"/>
        <pt x="43" y="-14" on="1"/>
        <pt x="43" y="-13" on="0"/>
        <pt x="49" y="2" on="0"/>
        <pt x="61" y="28" on="0"/>
        <pt x="65" y="38" on="1"/>
        <pt x="85" y="91" on="0"/>
        <pt x="85" y="115" on="1"/>
        <pt x="85" y="147" on="0"/>
        <pt x="77" y="147" on="1"/>
        <pt x="74" y="147" on="0"/>
        <pt x="66" y="142" on="0"/>
        <pt x="62" y="142" on="0"/>
        <pt x="62" y="145" on="1"/>
        <pt x="78" y="155" on="1"/>
        <pt x="94" y="164" on="1"/>
        <pt x="109" y="164" on="0"/>
        <pt x="116" y="146" on="1"/>
        <pt x="120" y="134" on="0"/>
        <pt x="120" y="124" on="1"/>
        <pt x="274" y="407" on="1"/>
        <pt x="288" y="436" on="0"/>
        <pt x="324" y="436" on="1"/>
        <pt x="341" y="436" on="0"/>
        <pt x="341" y="406" on="1"/>
        <pt x="338" y="48" on="1"/>
        <pt x="378" y="133" on="0"/>
        <pt x="513" y="382" on="0"/>
        <pt x="532" y="401" on="1"/>
        <pt x="533" y="402" on="0"/>
        <pt x="545" y="414" on="0"/>
        <pt x="555" y="422" on="0"/>
        <pt x="569" y="432" on="0"/>
        <pt x="584" y="437" on="0"/>
        <pt x="591" y="437" on="1"/>
        <pt x="600" y="437" on="0"/>
        <pt x="615" y="429" on="0"/>
        <pt x="615" y="426" on="1"/>
        <pt x="615" y="422" on="0"/>
        <pt x="604" y="412" on="1"/>
        <pt x="577" y="387" on="0"/>
        <pt x="576" y="387" on="1"/>
        <pt x="573" y="387" on="0"/>
        <pt x="573" y="390" on="1"/>
        <pt x="573" y="399" on="0"/>
        <pt x="561" y="399" on="1"/>
        <pt x="546" y="399" on="0"/>
        <pt x="535" y="382" on="1"/>
        <pt x="504" y="338" on="0"/>
        <pt x="424" y="176" on="0"/>
        <pt x="343" y="-7" on="0"/>
      </contour>
    </TTGlyph>
    <TTGlyph name="Eogonek" xMin="79" yMin="-113" xMax="497" yMax="443">
      <component glyphName="uni0328" x="136" y="0" flags="0x1004"/>
      <component glyphName="E" x="0" y="0" flags="0x1204"/>
    </TTGlyph>
    <TTGlyph name="Epsilon" xMin="79" yMin="-12" xMax="497" yMax="443">
      <component glyphName="E" x="0" y="0" flags="0x1004"/>
    </TTGlyph>
    <TTGlyph name="Epsilontonos" xMin="79" yMin="-12" xMax="497" yMax="511">
      <component glyphName="tonos" x="42" y="126" flags="0x1004"/>
      <component glyphName="Epsilon" x="0" y="0" flags="0x1204"/>
    </TTGlyph>
    <TTGlyph name="Eta" xMin="41" yMin="-12" xMax="612" yMax="443">
      <component glyphName="H" x="0" y="0" flags="0x1004"/>
    </TTGlyph>
    <TTGlyph name="Etatonos" xMin="41" yMin="-12" xMax="612" yMax="511">
      <component glyphName="tonos" x="-92" y="126" flags="0x1004"/>
      <component glyphName="Eta" x="0" y="0" flags="0x1204"/>
    </TTGlyph>
    <TTGlyph name="Eth" xMin="65" yMin="-10" xMax="628" yMax="515">
      <contour>
        <pt x="458" y="250" on="1"/>
        <pt x="460" y="250" on="0"/>
        <pt x="460" y="248" on="1"/>
        <pt x="460" y="245" on="0"/>
        <pt x="442" y="235" on="1"/>
        <pt x="428" y="226" on="0"/>
        <pt x="424" y="226" on="1"/>
        <pt x="399" y="225" on="0"/>
        <pt x="272" y="224" on="0"/>
        <pt x="224" y="222" on="1"/>
        <pt x="222" y="222" on="0"/>
        <pt x="222" y="223" on="1"/>
        <pt x="222" y="227" on="0"/>
        <pt x="254" y="246" on="0"/>
        <pt x="260" y="246" on="1"/>
        <pt x="348" y="250" on="0"/>
      </contour>
      <contour>
        <pt x="240" y="93" on="1"/>
        <pt x="225" y="113" on="0"/>
        <pt x="214" y="129" on="0"/>
        <pt x="190" y="148" on="0"/>
        <pt x="180" y="148" on="1"/>
        <pt x="150" y="148" on="0"/>
        <pt x="93" y="74" on="0"/>
        <pt x="93" y="45" on="1"/>
        <pt x="93" y="13" on="0"/>
        <pt x="133" y="13" on="1"/>
        <pt x="154" y="13" on="0"/>
        <pt x="212" y="52" on="0"/>
      </contour>
      <contour>
        <pt x="279" y="120" on="1"/>
        <pt x="284" y="111" on="0"/>
        <pt x="302" y="72" on="0"/>
        <pt x="316" y="46" on="0"/>
        <pt x="338" y="18" on="0"/>
        <pt x="369" y="3" on="0"/>
        <pt x="389" y="3" on="1"/>
        <pt x="473" y="3" on="0"/>
        <pt x="585" y="165" on="0"/>
        <pt x="585" y="258" on="1"/>
        <pt x="585" y="400" on="0"/>
        <pt x="452" y="427" on="1"/>
        <pt x="346" y="214" on="0"/>
      </contour>
      <contour>
        <pt x="196" y="307" on="1"/>
        <pt x="196" y="301" on="0"/>
        <pt x="198" y="297" on="1"/>
        <pt x="199" y="293" on="1"/>
        <pt x="199" y="291" on="0"/>
        <pt x="196" y="291" on="1"/>
        <pt x="192" y="291" on="0"/>
        <pt x="182" y="301" on="1"/>
        <pt x="180" y="303" on="0"/>
        <pt x="176" y="307" on="0"/>
        <pt x="172" y="309" on="0"/>
        <pt x="169" y="312" on="0"/>
        <pt x="168" y="316" on="0"/>
        <pt x="168" y="318" on="1"/>
        <pt x="168" y="369" on="0"/>
        <pt x="307" y="443" on="0"/>
        <pt x="383" y="443" on="1"/>
        <pt x="405" y="443" on="0"/>
        <pt x="415" y="442" on="1"/>
        <pt x="420" y="454" on="0"/>
        <pt x="420" y="464" on="1"/>
        <pt x="420" y="503" on="0"/>
        <pt x="370" y="503" on="1"/>
        <pt x="355" y="503" on="0"/>
        <pt x="324" y="490" on="0"/>
        <pt x="304" y="477" on="0"/>
        <pt x="303" y="477" on="1"/>
        <pt x="300" y="477" on="0"/>
        <pt x="300" y="480" on="1"/>
        <pt x="300" y="482" on="0"/>
        <pt x="322" y="498" on="0"/>
        <pt x="365" y="515" on="0"/>
        <pt x="387" y="515" on="1"/>
        <pt x="414" y="515" on="0"/>
        <pt x="460" y="492" on="0"/>
        <pt x="460" y="463" on="1"/>
        <pt x="460" y="452" on="0"/>
        <pt x="455" y="437" on="1"/>
        <pt x="628" y="409" on="0"/>
        <pt x="628" y="234" on="1"/>
        <pt x="628" y="137" on="0"/>
        <pt x="487" y="-10" on="0"/>
        <pt x="390" y="-10" on="1"/>
        <pt x="363" y="-10" on="0"/>
        <pt x="325" y="0" on="0"/>
        <pt x="287" y="34" on="0"/>
        <pt x="273" y="50" on="0"/>
        <pt x="249" y="81" on="1"/>
        <pt x="223" y="51" on="0"/>
        <pt x="204" y="35" on="1"/>
        <pt x="153" y="-8" on="0"/>
        <pt x="113" y="-8" on="1"/>
        <pt x="65" y="-8" on="0"/>
        <pt x="65" y="28" on="1"/>
        <pt x="65" y="70" on="0"/>
        <pt x="172" y="176" on="0"/>
        <pt x="214" y="176" on="1"/>
        <pt x="240" y="176" on="0"/>
        <pt x="267" y="138" on="1"/>
        <pt x="360" y="304" on="0"/>
        <pt x="411" y="433" on="1"/>
        <pt x="401" y="434" on="0"/>
        <pt x="380" y="434" on="1"/>
        <pt x="316" y="434" on="0"/>
        <pt x="196" y="353" on="0"/>
      </contour>
    </TTGlyph>
    <TTGlyph name="Euro" xMin="60" yMin="-12" xMax="525" yMax="443">
      <contour>
        <pt x="500" y="372" on="1"/>
        <pt x="498" y="367" on="0"/>
        <pt x="496" y="367" on="1"/>
        <pt x="493" y="367" on="0"/>
        <pt x="493" y="372" on="1"/>
        <pt x="489" y="391" on="0"/>
        <pt x="446" y="421" on="0"/>
        <pt x="421" y="421" on="1"/>
        <pt x="371" y="421" on="0"/>
        <pt x="325" y="394" on="1"/>
        <pt x="241" y="338" on="0"/>
        <pt x="194" y="251" on="1"/>
        <pt x="204" y="251" on="0"/>
        <pt x="245" y="250" on="0"/>
        <pt x="256" y="250" on="1"/>
        <pt x="290" y="250" on="0"/>
        <pt x="397" y="251" on="0"/>
        <pt x="403" y="251" on="0"/>
        <pt x="403" y="248" on="1"/>
        <pt x="403" y="233" on="0"/>
        <pt x="378" y="233" on="1"/>
        <pt x="352" y="233" on="0"/>
        <pt x="223" y="236" on="0"/>
        <pt x="186" y="236" on="1"/>
        <pt x="176" y="212" on="0"/>
        <pt x="168" y="188" on="1"/>
        <pt x="224" y="188" on="0"/>
        <pt x="368" y="189" on="0"/>
        <pt x="371" y="189" on="1"/>
        <pt x="375" y="189" on="0"/>
        <pt x="375" y="186" on="1"/>
        <pt x="367" y="178" on="1"/>
        <pt x="360" y="171" on="0"/>
        <pt x="353" y="171" on="1"/>
        <pt x="350" y="171" on="0"/>
        <pt x="263" y="174" on="0"/>
        <pt x="234" y="174" on="1"/>
        <pt x="225" y="174" on="0"/>
        <pt x="177" y="173" on="0"/>
        <pt x="164" y="173" on="1"/>
        <pt x="156" y="139" on="0"/>
        <pt x="156" y="110" on="1"/>
        <pt x="156" y="64" on="0"/>
        <pt x="213" y="4" on="0"/>
        <pt x="257" y="4" on="1"/>
        <pt x="315" y="4" on="0"/>
        <pt x="391" y="62" on="0"/>
        <pt x="431" y="115" on="1"/>
        <pt x="434" y="119" on="0"/>
        <pt x="436" y="119" on="1"/>
        <pt x="439" y="119" on="0"/>
        <pt x="439" y="104" on="1"/>
        <pt x="439" y="80" on="0"/>
        <pt x="434" y="72" on="1"/>
        <pt x="368" y="-12" on="0"/>
        <pt x="240" y="-12" on="1"/>
        <pt x="182" y="-12" on="0"/>
        <pt x="106" y="52" on="0"/>
        <pt x="106" y="106" on="1"/>
        <pt x="106" y="137" on="0"/>
        <pt x="117" y="173" on="1"/>
        <pt x="104" y="173" on="0"/>
        <pt x="68" y="172" on="0"/>
        <pt x="65" y="172" on="1"/>
        <pt x="60" y="172" on="0"/>
        <pt x="60" y="178" on="0"/>
        <pt x="78" y="190" on="0"/>
        <pt x="82" y="190" on="1"/>
        <pt x="87" y="190" on="0"/>
        <pt x="105" y="188" on="0"/>
        <pt x="123" y="188" on="1"/>
        <pt x="130" y="206" on="0"/>
        <pt x="146" y="235" on="1"/>
        <pt x="128" y="234" on="0"/>
        <pt x="95" y="234" on="1"/>
        <pt x="91" y="234" on="0"/>
        <pt x="91" y="236" on="1"/>
        <pt x="91" y="237" on="0"/>
        <pt x="93" y="238" on="1"/>
        <pt x="96" y="240" on="0"/>
        <pt x="97" y="241" on="1"/>
        <pt x="99" y="243" on="0"/>
        <pt x="102" y="247" on="0"/>
        <pt x="103" y="250" on="0"/>
        <pt x="106" y="252" on="0"/>
        <pt x="111" y="253" on="0"/>
        <pt x="114" y="253" on="1"/>
        <pt x="136" y="253" on="0"/>
        <pt x="156" y="252" on="1"/>
        <pt x="219" y="350" on="0"/>
        <pt x="318" y="405" on="1"/>
        <pt x="384" y="443" on="0"/>
        <pt x="453" y="443" on="1"/>
        <pt x="478" y="443" on="0"/>
        <pt x="513" y="425" on="0"/>
        <pt x="525" y="409" on="0"/>
        <pt x="525" y="404" on="1"/>
        <pt x="525" y="400" on="0"/>
        <pt x="503" y="380" on="0"/>
      </contour>
    </TTGlyph>
    <TTGlyph name="F" xMin="71" yMin="-14" xMax="571" yMax="543">
      <contour>
        <pt x="363" y="415" on="1"/>
        <pt x="339" y="349" on="0"/>
        <pt x="271" y="222" on="1"/>
        <pt x="366" y="226" on="1"/>
        <pt x="368" y="226" on="0"/>
        <pt x="368" y="225" on="1"/>
        <pt x="368" y="222" on="0"/>
        <pt x="352" y="210" on="0"/>
        <pt x="344" y="206" on="0"/>
        <pt x="302" y="202" on="0"/>
        <pt x="260" y="202" on="1"/>
        <pt x="174" y="43" on="0"/>
        <pt x="143" y="-1" on="1"/>
        <pt x="135" y="-11" on="0"/>
        <pt x="127" y="-11" on="1"/>
        <pt x="103" y="-14" on="0"/>
        <pt x="78" y="-14" on="1"/>
        <pt x="74" y="-14" on="1"/>
        <pt x="71" y="-14" on="0"/>
        <pt x="71" y="-11" on="1"/>
        <pt x="71" y="-10" on="0"/>
        <pt x="78" y="-8" on="0"/>
        <pt x="91" y="1" on="0"/>
        <pt x="96" y="8" on="1"/>
        <pt x="152" y="86" on="0"/>
        <pt x="217" y="201" on="1"/>
        <pt x="188" y="201" on="0"/>
        <pt x="148" y="197" on="0"/>
        <pt x="134" y="193" on="0"/>
        <pt x="125" y="189" on="0"/>
        <pt x="123" y="189" on="1"/>
        <pt x="122" y="189" on="0"/>
        <pt x="122" y="190" on="1"/>
        <pt x="122" y="196" on="0"/>
        <pt x="141" y="205" on="1"/>
        <pt x="171" y="221" on="0"/>
        <pt x="228" y="221" on="1"/>
        <pt x="297" y="348" on="0"/>
        <pt x="320" y="414" on="1"/>
        <pt x="306" y="414" on="0"/>
        <pt x="274" y="412" on="1"/>
        <pt x="240" y="410" on="0"/>
        <pt x="189" y="403" on="0"/>
        <pt x="165" y="394" on="0"/>
        <pt x="152" y="386" on="0"/>
        <pt x="147" y="381" on="0"/>
        <pt x="146" y="381" on="1"/>
        <pt x="143" y="381" on="0"/>
        <pt x="143" y="387" on="0"/>
        <pt x="154" y="398" on="1"/>
        <pt x="175" y="419" on="0"/>
        <pt x="212" y="426" on="1"/>
        <pt x="251" y="433" on="0"/>
        <pt x="327" y="435" on="1"/>
        <pt x="334" y="457" on="0"/>
        <pt x="334" y="474" on="1"/>
        <pt x="334" y="533" on="0"/>
        <pt x="285" y="533" on="1"/>
        <pt x="256" y="533" on="0"/>
        <pt x="227" y="508" on="1"/>
        <pt x="220" y="501" on="0"/>
        <pt x="219" y="501" on="1"/>
        <pt x="216" y="501" on="0"/>
        <pt x="216" y="505" on="0"/>
        <pt x="224" y="513" on="1"/>
        <pt x="256" y="543" on="0"/>
        <pt x="293" y="543" on="1"/>
        <pt x="376" y="543" on="0"/>
        <pt x="376" y="469" on="1"/>
        <pt x="376" y="452" on="0"/>
        <pt x="371" y="436" on="1"/>
        <pt x="458" y="438" on="0"/>
        <pt x="538" y="447" on="1"/>
        <pt x="552" y="449" on="0"/>
        <pt x="561" y="449" on="1"/>
        <pt x="565" y="449" on="1"/>
        <pt x="571" y="449" on="0"/>
        <pt x="571" y="447" on="1"/>
        <pt x="571" y="446" on="0"/>
        <pt x="568" y="444" on="1"/>
        <pt x="544" y="428" on="0"/>
        <pt x="503" y="423" on="1"/>
        <pt x="448" y="417" on="0"/>
      </contour>
    </TTGlyph>
    <TTGlyph name="G" xMin="7" yMin="-404" xMax="645" yMax="442">
      <contour>
        <pt x="367" y="-44" on="1"/>
        <pt x="243" y="-65" on="0"/>
        <pt x="196" y="-84" on="1"/>
        <pt x="118" y="-116" on="0"/>
        <pt x="45" y="-231" on="0"/>
        <pt x="45" y="-298" on="1"/>
        <pt x="45" y="-395" on="0"/>
        <pt x="112" y="-395" on="1"/>
        <pt x="186" y="-395" on="0"/>
        <pt x="235" y="-310" on="1"/>
        <pt x="290" y="-214" on="0"/>
      </contour>
      <contour>
        <pt x="371" y="-34" on="1"/>
        <pt x="405" y="37" on="0"/>
        <pt x="456" y="131" on="1"/>
        <pt x="395" y="81" on="0"/>
        <pt x="244" y="-11" on="0"/>
        <pt x="191" y="-11" on="1"/>
        <pt x="147" y="-11" on="0"/>
        <pt x="82" y="42" on="0"/>
        <pt x="82" y="90" on="1"/>
        <pt x="82" y="170" on="0"/>
        <pt x="145" y="253" on="1"/>
        <pt x="202" y="327" on="0"/>
        <pt x="393" y="442" on="0"/>
        <pt x="480" y="442" on="1"/>
        <pt x="499" y="442" on="0"/>
        <pt x="551" y="423" on="0"/>
        <pt x="551" y="407" on="1"/>
        <pt x="551" y="405" on="0"/>
        <pt x="547" y="398" on="0"/>
        <pt x="541" y="387" on="0"/>
        <pt x="539" y="383" on="1"/>
        <pt x="528" y="359" on="1"/>
        <pt x="522" y="359" on="0"/>
        <pt x="522" y="362" on="1"/>
        <pt x="522" y="363" on="0"/>
        <pt x="523" y="374" on="0"/>
        <pt x="523" y="379" on="1"/>
        <pt x="523" y="399" on="0"/>
        <pt x="494" y="433" on="0"/>
        <pt x="468" y="433" on="1"/>
        <pt x="425" y="433" on="0"/>
        <pt x="288" y="355" on="0"/>
        <pt x="234" y="301" on="1"/>
        <pt x="191" y="258" on="0"/>
        <pt x="126" y="135" on="0"/>
        <pt x="125" y="85" on="1"/>
        <pt x="125" y="47" on="0"/>
        <pt x="163" y="1" on="0"/>
        <pt x="194" y="1" on="1"/>
        <pt x="245" y="1" on="0"/>
        <pt x="395" y="97" on="0"/>
        <pt x="452" y="150" on="1"/>
        <pt x="470" y="168" on="0"/>
        <pt x="549" y="305" on="0"/>
        <pt x="577" y="368" on="1"/>
        <pt x="584" y="385" on="0"/>
        <pt x="589" y="385" on="1"/>
        <pt x="595" y="385" on="0"/>
        <pt x="626" y="367" on="0"/>
        <pt x="626" y="359" on="1"/>
        <pt x="626" y="343" on="0"/>
        <pt x="589" y="276" on="0"/>
        <pt x="564" y="247" on="1"/>
        <pt x="553" y="235" on="0"/>
        <pt x="531" y="200" on="0"/>
        <pt x="519" y="179" on="0"/>
        <pt x="496" y="132" on="0"/>
        <pt x="493" y="127" on="1"/>
        <pt x="414" y="-25" on="1"/>
        <pt x="510" y="2" on="0"/>
        <pt x="590" y="71" on="1"/>
        <pt x="623" y="100" on="0"/>
        <pt x="639" y="124" on="1"/>
        <pt x="641" y="127" on="0"/>
        <pt x="645" y="127" on="0"/>
        <pt x="645" y="125" on="1"/>
        <pt x="645" y="124" on="0"/>
        <pt x="644" y="122" on="1"/>
        <pt x="595" y="57" on="0"/>
        <pt x="528" y="18" on="1"/>
        <pt x="464" y="-19" on="0"/>
        <pt x="408" y="-35" on="1"/>
        <pt x="401" y="-48" on="0"/>
        <pt x="334" y="-193" on="0"/>
        <pt x="306" y="-240" on="1"/>
        <pt x="286" y="-272" on="0"/>
        <pt x="256" y="-314" on="0"/>
        <pt x="204" y="-373" on="0"/>
        <pt x="144" y="-404" on="0"/>
        <pt x="111" y="-404" on="1"/>
        <pt x="64" y="-404" on="0"/>
        <pt x="7" y="-336" on="0"/>
        <pt x="7" y="-284" on="1"/>
        <pt x="8" y="-210" on="0"/>
        <pt x="128" y="-97" on="0"/>
        <pt x="207" y="-70" on="1"/>
        <pt x="252" y="-55" on="0"/>
      </contour>
    </TTGlyph>
    <TTGlyph name="Gamma" xMin="13" yMin="-13" xMax="548" yMax="445">
      <contour>
        <pt x="150" y="378" on="1"/>
        <pt x="146" y="374" on="0"/>
        <pt x="144" y="376" on="1"/>
        <pt x="141" y="378" on="0"/>
        <pt x="145" y="383" on="1"/>
        <pt x="172" y="417" on="0"/>
        <pt x="213" y="424" on="1"/>
        <pt x="251" y="431" on="0"/>
        <pt x="450" y="433" on="0"/>
        <pt x="518" y="441" on="1"/>
        <pt x="528" y="442" on="0"/>
        <pt x="541" y="444" on="0"/>
        <pt x="544" y="445" on="0"/>
        <pt x="545" y="445" on="1"/>
        <pt x="555" y="445" on="0"/>
        <pt x="548" y="440" on="1"/>
        <pt x="524" y="424" on="0"/>
        <pt x="483" y="419" on="1"/>
        <pt x="448" y="415" on="0"/>
        <pt x="387" y="413" on="0"/>
        <pt x="316" y="413" on="0"/>
        <pt x="296" y="412" on="1"/>
        <pt x="285" y="392" on="0"/>
        <pt x="198" y="219" on="1"/>
        <pt x="85" y="0" on="1"/>
        <pt x="80" y="-10" on="0"/>
        <pt x="69" y="-10" on="1"/>
        <pt x="45" y="-13" on="0"/>
        <pt x="20" y="-13" on="1"/>
        <pt x="13" y="-13" on="0"/>
        <pt x="13" y="-10" on="1"/>
        <pt x="13" y="-9" on="0"/>
        <pt x="21" y="-7" on="0"/>
        <pt x="34" y="1" on="0"/>
        <pt x="39" y="9" on="1"/>
        <pt x="86" y="82" on="0"/>
        <pt x="165" y="230" on="1"/>
        <pt x="172" y="241" on="0"/>
        <pt x="237" y="372" on="0"/>
        <pt x="252" y="410" on="1"/>
        <pt x="205" y="407" on="0"/>
        <pt x="169" y="396" on="0"/>
      </contour>
    </TTGlyph>
    <TTGlyph name="Gbreve" xMin="7" yMin="-404" xMax="645" yMax="588">
      <component glyphName="uni0306" x="333" y="226" flags="0x1004"/>
      <component glyphName="G" x="0" y="0" flags="0x1204"/>
    </TTGlyph>
    <TTGlyph name="Gcaron" xMin="7" yMin="-404" xMax="645" yMax="597">
      <component glyphName="uni030C" x="333" y="226" flags="0x1004"/>
      <component glyphName="G" x="0" y="0" flags="0x1204"/>
    </TTGlyph>
    <TTGlyph name="Gcircumflex" xMin="7" yMin="-404" xMax="645" yMax="583">
      <component glyphName="uni0302" x="333" y="226" flags="0x1004"/>
      <component glyphName="G" x="0" y="0" flags="0x1204"/>
    </TTGlyph>
    <TTGlyph name="Gcommaaccent" xMin="-14" yMin="-615" xMax="645" yMax="442">
      <component glyphName="uni0326" x="-24" y="-470" flags="0x1004"/>
      <component glyphName="G" x="0" y="0" flags="0x1204"/>
    </TTGlyph>
    <TTGlyph name="Gdotaccent" xMin="7" yMin="-404" xMax="645" yMax="562">
      <component glyphName="uni0307" x="333" y="226" flags="0x1004"/>
      <component glyphName="G" x="0" y="0" flags="0x1204"/>
    </TTGlyph>
    <TTGlyph name="H" xMin="41" yMin="-12" xMax="612" yMax="443">
      <contour>
        <pt x="492" y="18" on="1"/>
        <pt x="440" y="-12" on="0"/>
        <pt x="392" y="-12" on="1"/>
        <pt x="339" y="-12" on="0"/>
        <pt x="339" y="36" on="1"/>
        <pt x="339" y="73" on="0"/>
        <pt x="407" y="203" on="1"/>
        <pt x="309" y="184" on="0"/>
        <pt x="228" y="184" on="1"/>
        <pt x="206" y="184" on="0"/>
        <pt x="190" y="187" on="1"/>
        <pt x="117" y="50" on="0"/>
        <pt x="96" y="5" on="1"/>
        <pt x="94" y="1" on="0"/>
        <pt x="84" y="-2" on="0"/>
        <pt x="64" y="-4" on="0"/>
        <pt x="60" y="-5" on="1"/>
        <pt x="52" y="-7" on="0"/>
        <pt x="46" y="-10" on="0"/>
        <pt x="44" y="-10" on="1"/>
        <pt x="41" y="-10" on="0"/>
        <pt x="41" y="-8" on="1"/>
        <pt x="41" y="-5" on="0"/>
        <pt x="74" y="53" on="1"/>
        <pt x="161" y="205" on="1"/>
        <pt x="157" y="213" on="0"/>
        <pt x="157" y="227" on="0"/>
        <pt x="172" y="236" on="0"/>
        <pt x="178" y="236" on="1"/>
        <pt x="248" y="360" on="0"/>
        <pt x="248" y="391" on="1"/>
        <pt x="248" y="406" on="0"/>
        <pt x="229" y="429" on="0"/>
        <pt x="209" y="429" on="1"/>
        <pt x="165" y="429" on="0"/>
        <pt x="127" y="391" on="1"/>
        <pt x="116" y="380" on="1"/>
        <pt x="113" y="380" on="0"/>
        <pt x="113" y="383" on="1"/>
        <pt x="113" y="387" on="0"/>
        <pt x="124" y="398" on="1"/>
        <pt x="168" y="443" on="0"/>
        <pt x="227" y="443" on="1"/>
        <pt x="257" y="443" on="0"/>
        <pt x="287" y="415" on="0"/>
        <pt x="287" y="393" on="1"/>
        <pt x="287" y="388" on="0"/>
        <pt x="285" y="376" on="0"/>
        <pt x="280" y="361" on="0"/>
        <pt x="274" y="347" on="0"/>
        <pt x="264" y="326" on="0"/>
        <pt x="256" y="310" on="0"/>
        <pt x="242" y="283" on="0"/>
        <pt x="232" y="265" on="0"/>
        <pt x="214" y="231" on="0"/>
        <pt x="208" y="221" on="1"/>
        <pt x="246" y="202" on="0"/>
        <pt x="298" y="202" on="1"/>
        <pt x="349" y="202" on="0"/>
        <pt x="414" y="216" on="1"/>
        <pt x="527" y="421" on="1"/>
        <pt x="530" y="427" on="0"/>
        <pt x="559" y="434" on="1"/>
        <pt x="563" y="435" on="0"/>
        <pt x="582" y="443" on="0"/>
        <pt x="588" y="443" on="1"/>
        <pt x="591" y="443" on="0"/>
        <pt x="591" y="437" on="0"/>
        <pt x="565" y="402" on="1"/>
        <pt x="526" y="344" on="0"/>
        <pt x="461" y="227" on="1"/>
        <pt x="476" y="230" on="0"/>
        <pt x="495" y="237" on="0"/>
        <pt x="502" y="239" on="0"/>
        <pt x="503" y="239" on="1"/>
        <pt x="506" y="239" on="0"/>
        <pt x="506" y="233" on="0"/>
        <pt x="501" y="227" on="0"/>
        <pt x="488" y="222" on="0"/>
        <pt x="479" y="220" on="0"/>
        <pt x="459" y="215" on="0"/>
        <pt x="455" y="214" on="1"/>
        <pt x="389" y="84" on="0"/>
        <pt x="389" y="51" on="1"/>
        <pt x="389" y="12" on="0"/>
        <pt x="428" y="12" on="1"/>
        <pt x="463" y="12" on="0"/>
        <pt x="495" y="29" on="1"/>
        <pt x="546" y="63" on="0"/>
        <pt x="556" y="71" on="1"/>
        <pt x="576" y="88" on="0"/>
        <pt x="606" y="124" on="1"/>
        <pt x="608" y="127" on="0"/>
        <pt x="612" y="127" on="0"/>
        <pt x="612" y="125" on="1"/>
        <pt x="612" y="124" on="0"/>
        <pt x="611" y="122" on="1"/>
        <pt x="584" y="87" on="0"/>
        <pt x="534" y="43" on="0"/>
      </contour>
    </TTGlyph>
    <TTGlyph name="Hbar" xMin="41" yMin="-12" xMax="612" yMax="443">
      <contour>
        <pt x="554" y="318" on="1"/>
        <pt x="442" y="303" on="0"/>
        <pt x="255" y="303" on="1"/>
        <pt x="232" y="303" on="0"/>
        <pt x="158" y="305" on="0"/>
        <pt x="157" y="305" on="1"/>
        <pt x="154" y="305" on="0"/>
        <pt x="154" y="306" on="1"/>
        <pt x="154" y="309" on="0"/>
        <pt x="179" y="321" on="0"/>
        <pt x="182" y="321" on="1"/>
        <pt x="207" y="321" on="0"/>
        <pt x="250" y="320" on="0"/>
        <pt x="264" y="320" on="1"/>
        <pt x="379" y="320" on="0"/>
        <pt x="521" y="326" on="0"/>
        <pt x="571" y="332" on="0"/>
        <pt x="576" y="332" on="1"/>
        <pt x="579" y="332" on="0"/>
        <pt x="579" y="331" on="1"/>
        <pt x="579" y="329" on="0"/>
        <pt x="559" y="319" on="0"/>
      </contour>
      <contour>
        <pt x="492" y="18" on="1"/>
        <pt x="440" y="-12" on="0"/>
        <pt x="392" y="-12" on="1"/>
        <pt x="339" y="-12" on="0"/>
        <pt x="339" y="36" on="1"/>
        <pt x="339" y="73" on="0"/>
        <pt x="407" y="203" on="1"/>
        <pt x="309" y="184" on="0"/>
        <pt x="228" y="184" on="1"/>
        <pt x="206" y="184" on="0"/>
        <pt x="190" y="187" on="1"/>
        <pt x="117" y="50" on="0"/>
        <pt x="96" y="5" on="1"/>
        <pt x="94" y="1" on="0"/>
        <pt x="84" y="-2" on="0"/>
        <pt x="64" y="-4" on="0"/>
        <pt x="60" y="-5" on="1"/>
        <pt x="52" y="-7" on="0"/>
        <pt x="46" y="-10" on="0"/>
        <pt x="44" y="-10" on="1"/>
        <pt x="41" y="-10" on="0"/>
        <pt x="41" y="-8" on="1"/>
        <pt x="41" y="-5" on="0"/>
        <pt x="74" y="53" on="1"/>
        <pt x="161" y="205" on="1"/>
        <pt x="157" y="213" on="0"/>
        <pt x="157" y="227" on="0"/>
        <pt x="172" y="236" on="0"/>
        <pt x="178" y="236" on="1"/>
        <pt x="248" y="360" on="0"/>
        <pt x="248" y="391" on="1"/>
        <pt x="248" y="406" on="0"/>
        <pt x="229" y="429" on="0"/>
        <pt x="209" y="429" on="1"/>
        <pt x="165" y="429" on="0"/>
        <pt x="127" y="391" on="1"/>
        <pt x="116" y="380" on="1"/>
        <pt x="113" y="380" on="0"/>
        <pt x="113" y="383" on="1"/>
        <pt x="113" y="387" on="0"/>
        <pt x="124" y="398" on="1"/>
        <pt x="168" y="443" on="0"/>
        <pt x="227" y="443" on="1"/>
        <pt x="257" y="443" on="0"/>
        <pt x="287" y="415" on="0"/>
        <pt x="287" y="393" on="1"/>
        <pt x="287" y="388" on="0"/>
        <pt x="285" y="376" on="0"/>
        <pt x="280" y="361" on="0"/>
        <pt x="274" y="347" on="0"/>
        <pt x="264" y="326" on="0"/>
        <pt x="256" y="310" on="0"/>
        <pt x="242" y="283" on="0"/>
        <pt x="232" y="265" on="0"/>
        <pt x="214" y="231" on="0"/>
        <pt x="208" y="221" on="1"/>
        <pt x="246" y="202" on="0"/>
        <pt x="298" y="202" on="1"/>
        <pt x="349" y="202" on="0"/>
        <pt x="414" y="216" on="1"/>
        <pt x="527" y="421" on="1"/>
        <pt x="530" y="427" on="0"/>
        <pt x="559" y="434" on="1"/>
        <pt x="563" y="435" on="0"/>
        <pt x="582" y="443" on="0"/>
        <pt x="588" y="443" on="1"/>
        <pt x="591" y="443" on="0"/>
        <pt x="591" y="437" on="0"/>
        <pt x="565" y="402" on="1"/>
        <pt x="526" y="344" on="0"/>
        <pt x="461" y="227" on="1"/>
        <pt x="476" y="230" on="0"/>
        <pt x="495" y="237" on="0"/>
        <pt x="502" y="239" on="0"/>
        <pt x="503" y="239" on="1"/>
        <pt x="506" y="239" on="0"/>
        <pt x="506" y="233" on="0"/>
        <pt x="501" y="227" on="0"/>
        <pt x="488" y="222" on="0"/>
        <pt x="479" y="220" on="0"/>
        <pt x="459" y="215" on="0"/>
        <pt x="455" y="214" on="1"/>
        <pt x="389" y="84" on="0"/>
        <pt x="389" y="51" on="1"/>
        <pt x="389" y="12" on="0"/>
        <pt x="428" y="12" on="1"/>
        <pt x="463" y="12" on="0"/>
        <pt x="495" y="29" on="1"/>
        <pt x="546" y="63" on="0"/>
        <pt x="556" y="71" on="1"/>
        <pt x="576" y="88" on="0"/>
        <pt x="606" y="124" on="1"/>
        <pt x="608" y="127" on="0"/>
        <pt x="612" y="127" on="0"/>
        <pt x="612" y="125" on="1"/>
        <pt x="612" y="124" on="0"/>
        <pt x="611" y="122" on="1"/>
        <pt x="584" y="87" on="0"/>
        <pt x="534" y="43" on="0"/>
      </contour>
    </TTGlyph>
    <TTGlyph name="Hcircumflex" xMin="41" yMin="-12" xMax="612" yMax="583">
      <component glyphName="uni0302" x="237" y="226" flags="0x1004"/>
      <component glyphName="H" x="0" y="0" flags="0x1204"/>
    </TTGlyph>
    <TTGlyph name="I" xMin="38" yMin="-6" xMax="473" yMax="487">
      <contour>
        <pt x="282" y="398" on="1"/>
        <pt x="301" y="425" on="0"/>
        <pt x="301" y="457" on="0"/>
        <pt x="279" y="475" on="0"/>
        <pt x="262" y="475" on="1"/>
        <pt x="238" y="475" on="0"/>
        <pt x="198" y="451" on="0"/>
        <pt x="198" y="427" on="1"/>
        <pt x="198" y="408" on="0"/>
        <pt x="241" y="398" on="0"/>
      </contour>
      <contour>
        <pt x="73" y="81" on="1"/>
        <pt x="73" y="53" on="0"/>
        <pt x="115" y="3" on="0"/>
        <pt x="141" y="3" on="1"/>
        <pt x="168" y="3" on="0"/>
        <pt x="211" y="53" on="0"/>
        <pt x="235" y="104" on="1"/>
        <pt x="315" y="273" on="0"/>
        <pt x="410" y="405" on="1"/>
        <pt x="363" y="391" on="0"/>
        <pt x="288" y="388" on="1"/>
        <pt x="256" y="348" on="0"/>
        <pt x="185" y="287" on="1"/>
        <pt x="177" y="279" on="0"/>
        <pt x="173" y="279" on="1"/>
        <pt x="171" y="279" on="0"/>
        <pt x="171" y="281" on="1"/>
        <pt x="171" y="285" on="0"/>
        <pt x="179" y="291" on="1"/>
        <pt x="194" y="303" on="0"/>
        <pt x="259" y="369" on="0"/>
        <pt x="274" y="388" on="1"/>
        <pt x="170" y="388" on="0"/>
        <pt x="170" y="422" on="1"/>
        <pt x="170" y="449" on="0"/>
        <pt x="251" y="487" on="0"/>
        <pt x="282" y="487" on="1"/>
        <pt x="324" y="487" on="0"/>
        <pt x="324" y="459" on="1"/>
        <pt x="324" y="442" on="0"/>
        <pt x="296" y="399" on="1"/>
        <pt x="364" y="403" on="0"/>
        <pt x="406" y="418" on="1"/>
        <pt x="432" y="428" on="0"/>
        <pt x="469" y="428" on="1"/>
        <pt x="473" y="428" on="0"/>
        <pt x="473" y="425" on="1"/>
        <pt x="473" y="424" on="0"/>
        <pt x="468" y="420" on="0"/>
        <pt x="461" y="416" on="0"/>
        <pt x="459" y="413" on="1"/>
        <pt x="367" y="281" on="0"/>
        <pt x="284" y="112" on="1"/>
        <pt x="226" y="-6" on="0"/>
        <pt x="121" y="-6" on="1"/>
        <pt x="89" y="-6" on="0"/>
        <pt x="38" y="35" on="0"/>
        <pt x="38" y="68" on="1"/>
        <pt x="38" y="71" on="0"/>
        <pt x="50" y="83" on="1"/>
        <pt x="57" y="90" on="0"/>
        <pt x="71" y="107" on="0"/>
        <pt x="79" y="117" on="0"/>
        <pt x="80" y="117" on="1"/>
        <pt x="83" y="117" on="0"/>
        <pt x="83" y="115" on="1"/>
        <pt x="80" y="112" on="1"/>
        <pt x="78" y="109" on="0"/>
        <pt x="73" y="93" on="0"/>
      </contour>
    </TTGlyph>
    <TTGlyph name="IJ" xMin="38" yMin="-424" xMax="796" yMax="487">
      <contour>
        <pt x="502" y="-29" on="1"/>
        <pt x="426" y="-48" on="0"/>
        <pt x="387" y="-67" on="1"/>
        <pt x="287" y="-119" on="0"/>
        <pt x="199" y="-233" on="0"/>
        <pt x="198" y="-321" on="1"/>
        <pt x="198" y="-363" on="0"/>
        <pt x="226" y="-410" on="0"/>
        <pt x="251" y="-410" on="1"/>
        <pt x="300" y="-410" on="0"/>
        <pt x="349" y="-338" on="1"/>
        <pt x="418" y="-235" on="0"/>
        <pt x="494" y="-48" on="1"/>
        <pt x="499" y="-35" on="0"/>
      </contour>
      <contour>
        <pt x="73" y="81" on="1"/>
        <pt x="73" y="53" on="0"/>
        <pt x="115" y="3" on="0"/>
        <pt x="141" y="3" on="1"/>
        <pt x="168" y="3" on="0"/>
        <pt x="211" y="53" on="0"/>
        <pt x="235" y="104" on="1"/>
        <pt x="315" y="273" on="0"/>
        <pt x="410" y="405" on="1"/>
        <pt x="363" y="391" on="0"/>
        <pt x="288" y="388" on="1"/>
        <pt x="256" y="348" on="0"/>
        <pt x="185" y="287" on="1"/>
        <pt x="177" y="279" on="0"/>
        <pt x="173" y="279" on="1"/>
        <pt x="171" y="279" on="0"/>
        <pt x="171" y="281" on="1"/>
        <pt x="171" y="285" on="0"/>
        <pt x="179" y="291" on="1"/>
        <pt x="194" y="303" on="0"/>
        <pt x="259" y="369" on="0"/>
        <pt x="274" y="388" on="1"/>
        <pt x="170" y="388" on="0"/>
        <pt x="170" y="422" on="1"/>
        <pt x="170" y="449" on="0"/>
        <pt x="251" y="487" on="0"/>
        <pt x="282" y="487" on="1"/>
        <pt x="324" y="487" on="0"/>
        <pt x="324" y="459" on="1"/>
        <pt x="324" y="442" on="0"/>
        <pt x="296" y="399" on="1"/>
        <pt x="364" y="403" on="0"/>
        <pt x="406" y="418" on="1"/>
        <pt x="432" y="428" on="0"/>
        <pt x="469" y="428" on="1"/>
        <pt x="473" y="428" on="0"/>
        <pt x="473" y="425" on="1"/>
        <pt x="473" y="424" on="0"/>
        <pt x="468" y="420" on="0"/>
        <pt x="461" y="416" on="0"/>
        <pt x="459" y="413" on="1"/>
        <pt x="385" y="307" on="0"/>
        <pt x="325" y="193" on="1"/>
        <pt x="479" y="241" on="0"/>
        <pt x="597" y="388" on="1"/>
        <pt x="493" y="388" on="0"/>
        <pt x="493" y="422" on="1"/>
        <pt x="493" y="449" on="0"/>
        <pt x="574" y="487" on="0"/>
        <pt x="605" y="487" on="1"/>
        <pt x="647" y="487" on="0"/>
        <pt x="647" y="459" on="1"/>
        <pt x="647" y="442" on="0"/>
        <pt x="619" y="399" on="1"/>
        <pt x="687" y="403" on="0"/>
        <pt x="729" y="418" on="1"/>
        <pt x="755" y="428" on="0"/>
        <pt x="792" y="428" on="1"/>
        <pt x="796" y="428" on="0"/>
        <pt x="796" y="425" on="1"/>
        <pt x="796" y="424" on="0"/>
        <pt x="791" y="420" on="0"/>
        <pt x="784" y="415" on="0"/>
        <pt x="782" y="413" on="1"/>
        <pt x="768" y="396" on="0"/>
        <pt x="741" y="359" on="0"/>
        <pt x="722" y="332" on="0"/>
        <pt x="696" y="286" on="0"/>
        <pt x="684" y="266" on="0"/>
        <pt x="656" y="208" on="0"/>
        <pt x="648" y="192" on="0"/>
        <pt x="614" y="120" on="0"/>
        <pt x="610" y="112" on="1"/>
        <pt x="555" y="-5" on="1"/>
        <pt x="617" y="10" on="0"/>
        <pt x="648" y="26" on="1"/>
        <pt x="677" y="41" on="0"/>
        <pt x="713" y="71" on="1"/>
        <pt x="746" y="100" on="0"/>
        <pt x="762" y="124" on="1"/>
        <pt x="764" y="127" on="0"/>
        <pt x="768" y="127" on="0"/>
        <pt x="768" y="125" on="1"/>
        <pt x="768" y="124" on="0"/>
        <pt x="767" y="122" on="1"/>
        <pt x="715" y="53" on="0"/>
        <pt x="651" y="19" on="1"/>
        <pt x="613" y="-2" on="0"/>
        <pt x="548" y="-18" on="1"/>
        <pt x="445" y="-232" on="0"/>
        <pt x="372" y="-334" on="1"/>
        <pt x="307" y="-424" on="0"/>
        <pt x="235" y="-424" on="1"/>
        <pt x="159" y="-424" on="0"/>
        <pt x="159" y="-318" on="1"/>
        <pt x="159" y="-246" on="0"/>
        <pt x="272" y="-102" on="0"/>
        <pt x="385" y="-52" on="1"/>
        <pt x="435" y="-30" on="0"/>
        <pt x="508" y="-15" on="1"/>
        <pt x="534" y="50" on="0"/>
        <pt x="561" y="104" on="1"/>
        <pt x="622" y="238" on="0"/>
        <pt x="687" y="335" on="1"/>
        <pt x="733" y="405" on="1"/>
        <pt x="686" y="391" on="0"/>
        <pt x="611" y="388" on="1"/>
        <pt x="587" y="358" on="0"/>
        <pt x="521" y="293" on="0"/>
        <pt x="389" y="205" on="0"/>
        <pt x="319" y="182" on="1"/>
        <pt x="284" y="112" on="1"/>
        <pt x="226" y="-6" on="0"/>
        <pt x="121" y="-6" on="1"/>
        <pt x="89" y="-6" on="0"/>
        <pt x="38" y="35" on="0"/>
        <pt x="38" y="68" on="1"/>
        <pt x="38" y="71" on="0"/>
        <pt x="50" y="83" on="1"/>
        <pt x="57" y="90" on="0"/>
        <pt x="71" y="107" on="0"/>
        <pt x="79" y="117" on="0"/>
        <pt x="80" y="117" on="1"/>
        <pt x="83" y="117" on="0"/>
        <pt x="83" y="115" on="1"/>
        <pt x="80" y="112" on="1"/>
        <pt x="78" y="109" on="0"/>
        <pt x="73" y="93" on="0"/>
      </contour>
      <contour>
        <pt x="282" y="398" on="1"/>
        <pt x="301" y="425" on="0"/>
        <pt x="301" y="457" on="0"/>
        <pt x="279" y="475" on="0"/>
        <pt x="262" y="475" on="1"/>
        <pt x="238" y="475" on="0"/>
        <pt x="198" y="451" on="0"/>
        <pt x="198" y="427" on="1"/>
        <pt x="198" y="408" on="0"/>
        <pt x="241" y="398" on="0"/>
      </contour>
      <contour>
        <pt x="605" y="398" on="1"/>
        <pt x="624" y="425" on="0"/>
        <pt x="624" y="457" on="0"/>
        <pt x="602" y="475" on="0"/>
        <pt x="585" y="475" on="1"/>
        <pt x="561" y="475" on="0"/>
        <pt x="521" y="451" on="0"/>
        <pt x="521" y="427" on="1"/>
        <pt x="521" y="408" on="0"/>
        <pt x="564" y="398" on="0"/>
      </contour>
    </TTGlyph>
    <TTGlyph name="Iacute" xMin="38" yMin="-6" xMax="489" yMax="580">
      <component glyphName="acutecomb" x="238" y="226" flags="0x1004"/>
      <component glyphName="I" x="0" y="0" flags="0x1204"/>
    </TTGlyph>
    <TTGlyph name="Ibreve" xMin="38" yMin="-6" xMax="531" yMax="588">
      <component glyphName="uni0306" x="221" y="226" flags="0x1004"/>
      <component glyphName="I" x="0" y="0" flags="0x1204"/>
    </TTGlyph>
    <TTGlyph name="Icircumflex" xMin="38" yMin="-6" xMax="500" yMax="583">
      <component glyphName="uni0302" x="238" y="226" flags="0x1004"/>
      <component glyphName="I" x="0" y="0" flags="0x1204"/>
    </TTGlyph>
    <TTGlyph name="Idieresis" xMin="38" yMin="-6" xMax="500" yMax="562">
      <component glyphName="uni0308" x="238" y="226" flags="0x1004"/>
      <component glyphName="I" x="0" y="0" flags="0x1204"/>
    </TTGlyph>
    <TTGlyph name="Idotaccent" xMin="38" yMin="-6" xMax="473" yMax="562">
      <component glyphName="uni0307" x="221" y="226" flags="0x1004"/>
      <component glyphName="I" x="0" y="0" flags="0x1204"/>
    </TTGlyph>
    <TTGlyph name="Igrave" xMin="38" yMin="-6" xMax="473" yMax="621">
      <component glyphName="gravecomb" x="221" y="226" flags="0x1004"/>
      <component glyphName="I" x="0" y="0" flags="0x1204"/>
    </TTGlyph>
    <TTGlyph name="Imacron" xMin="38" yMin="-6" xMax="512" yMax="541">
      <component glyphName="uni0304" x="221" y="226" flags="0x1004"/>
      <component glyphName="I" x="0" y="0" flags="0x1204"/>
    </TTGlyph>
    <TTGlyph name="Iogonek" xMin="-4" yMin="-113" xMax="473" yMax="487">
      <component glyphName="uni0328" x="21" y="0" flags="0x1004"/>
      <component glyphName="I" x="0" y="0" flags="0x1204"/>
    </TTGlyph>
    <TTGlyph name="Iota" xMin="9" yMin="-9" xMax="372" yMax="443">
      <contour>
        <pt x="121" y="124" on="1"/>
        <pt x="276" y="408" on="0"/>
        <pt x="276" y="422" on="1"/>
        <pt x="276" y="430" on="0"/>
        <pt x="261" y="434" on="1"/>
        <pt x="257" y="435" on="0"/>
        <pt x="244" y="437" on="0"/>
        <pt x="238" y="438" on="0"/>
        <pt x="238" y="439" on="1"/>
        <pt x="238" y="443" on="0"/>
        <pt x="246" y="443" on="1"/>
        <pt x="250" y="443" on="0"/>
        <pt x="288" y="441" on="0"/>
        <pt x="305" y="441" on="1"/>
        <pt x="317" y="441" on="0"/>
        <pt x="361" y="443" on="0"/>
        <pt x="367" y="443" on="1"/>
        <pt x="372" y="443" on="0"/>
        <pt x="372" y="439" on="1"/>
        <pt x="372" y="437" on="0"/>
        <pt x="353" y="432" on="0"/>
        <pt x="331" y="427" on="0"/>
        <pt x="329" y="424" on="1"/>
        <pt x="231" y="262" on="0"/>
        <pt x="142" y="84" on="1"/>
        <pt x="134" y="68" on="0"/>
        <pt x="119" y="35" on="0"/>
        <pt x="115" y="21" on="0"/>
        <pt x="103" y="6" on="0"/>
        <pt x="100" y="2" on="0"/>
        <pt x="81" y="-3" on="0"/>
        <pt x="70" y="-4" on="0"/>
        <pt x="52" y="-5" on="1"/>
        <pt x="45" y="-5" on="0"/>
        <pt x="28" y="-7" on="0"/>
        <pt x="18" y="-9" on="0"/>
        <pt x="17" y="-9" on="1"/>
        <pt x="9" y="-9" on="0"/>
        <pt x="9" y="-5" on="1"/>
        <pt x="9" y="0" on="0"/>
        <pt x="15" y="0" on="1"/>
        <pt x="32" y="2" on="0"/>
        <pt x="52" y="14" on="0"/>
        <pt x="90" y="67" on="0"/>
      </contour>
    </TTGlyph>
    <TTGlyph name="Iotadieresis" xMin="9" yMin="-9" xMax="412" yMax="562">
      <component glyphName="uni0308" x="150" y="226" flags="0x1004"/>
      <component glyphName="Iota" x="0" y="0" flags="0x1204"/>
    </TTGlyph>
    <TTGlyph name="Iotatonos" xMin="9" yMin="-9" xMax="372" yMax="511">
      <component glyphName="tonos" x="-9" y="126" flags="0x1004"/>
      <component glyphName="Iota" x="0" y="0" flags="0x1204"/>
    </TTGlyph>
    <TTGlyph name="Itilde" xMin="38" yMin="-6" xMax="526" yMax="564">
      <component glyphName="tildecomb" x="221" y="226" flags="0x1004"/>
      <component glyphName="I" x="0" y="0" flags="0x1204"/>
    </TTGlyph>
    <TTGlyph name="J" xMin="-167" yMin="-424" xMax="470" yMax="487">
      <contour>
        <pt x="176" y="-29" on="1"/>
        <pt x="100" y="-48" on="0"/>
        <pt x="61" y="-67" on="1"/>
        <pt x="-39" y="-119" on="0"/>
        <pt x="-127" y="-233" on="0"/>
        <pt x="-128" y="-321" on="1"/>
        <pt x="-128" y="-363" on="0"/>
        <pt x="-100" y="-410" on="0"/>
        <pt x="-75" y="-410" on="1"/>
        <pt x="-26" y="-410" on="0"/>
        <pt x="23" y="-338" on="1"/>
        <pt x="92" y="-235" on="0"/>
        <pt x="168" y="-48" on="1"/>
        <pt x="173" y="-35" on="0"/>
      </contour>
      <contour>
        <pt x="403" y="418" on="1"/>
        <pt x="429" y="428" on="0"/>
        <pt x="466" y="428" on="1"/>
        <pt x="470" y="428" on="0"/>
        <pt x="470" y="425" on="1"/>
        <pt x="470" y="424" on="0"/>
        <pt x="465" y="420" on="0"/>
        <pt x="458" y="415" on="0"/>
        <pt x="456" y="413" on="1"/>
        <pt x="442" y="396" on="0"/>
        <pt x="415" y="359" on="0"/>
        <pt x="396" y="332" on="0"/>
        <pt x="370" y="286" on="0"/>
        <pt x="358" y="266" on="0"/>
        <pt x="330" y="208" on="0"/>
        <pt x="322" y="192" on="0"/>
        <pt x="288" y="120" on="0"/>
        <pt x="284" y="112" on="1"/>
        <pt x="229" y="-5" on="1"/>
        <pt x="291" y="10" on="0"/>
        <pt x="322" y="26" on="1"/>
        <pt x="351" y="41" on="0"/>
        <pt x="387" y="71" on="1"/>
        <pt x="420" y="100" on="0"/>
        <pt x="436" y="124" on="1"/>
        <pt x="438" y="127" on="0"/>
        <pt x="442" y="127" on="0"/>
        <pt x="442" y="125" on="1"/>
        <pt x="442" y="124" on="0"/>
        <pt x="441" y="122" on="1"/>
        <pt x="389" y="53" on="0"/>
        <pt x="325" y="19" on="1"/>
        <pt x="287" y="-2" on="0"/>
        <pt x="222" y="-18" on="1"/>
        <pt x="119" y="-232" on="0"/>
        <pt x="46" y="-334" on="1"/>
        <pt x="-19" y="-424" on="0"/>
        <pt x="-91" y="-424" on="1"/>
        <pt x="-167" y="-424" on="0"/>
        <pt x="-167" y="-318" on="1"/>
        <pt x="-167" y="-246" on="0"/>
        <pt x="-54" y="-102" on="0"/>
        <pt x="59" y="-52" on="1"/>
        <pt x="109" y="-30" on="0"/>
        <pt x="182" y="-15" on="1"/>
        <pt x="208" y="50" on="0"/>
        <pt x="235" y="104" on="1"/>
        <pt x="303" y="247" on="0"/>
        <pt x="361" y="335" on="1"/>
        <pt x="407" y="405" on="1"/>
        <pt x="360" y="391" on="0"/>
        <pt x="285" y="388" on="1"/>
        <pt x="253" y="348" on="0"/>
        <pt x="182" y="287" on="1"/>
        <pt x="174" y="279" on="0"/>
        <pt x="170" y="279" on="1"/>
        <pt x="168" y="279" on="0"/>
        <pt x="168" y="281" on="1"/>
        <pt x="168" y="285" on="0"/>
        <pt x="176" y="291" on="1"/>
        <pt x="191" y="303" on="0"/>
        <pt x="256" y="369" on="0"/>
        <pt x="271" y="388" on="1"/>
        <pt x="167" y="388" on="0"/>
        <pt x="167" y="422" on="1"/>
        <pt x="167" y="449" on="0"/>
        <pt x="248" y="487" on="0"/>
        <pt x="279" y="487" on="1"/>
        <pt x="321" y="487" on="0"/>
        <pt x="321" y="459" on="1"/>
        <pt x="321" y="442" on="0"/>
        <pt x="293" y="399" on="1"/>
        <pt x="361" y="403" on="0"/>
      </contour>
      <contour>
        <pt x="279" y="398" on="1"/>
        <pt x="298" y="425" on="0"/>
        <pt x="298" y="457" on="0"/>
        <pt x="276" y="475" on="0"/>
        <pt x="259" y="475" on="1"/>
        <pt x="235" y="475" on="0"/>
        <pt x="195" y="451" on="0"/>
        <pt x="195" y="427" on="1"/>
        <pt x="195" y="408" on="0"/>
        <pt x="238" y="398" on="0"/>
      </contour>
    </TTGlyph>
    <TTGlyph name="Jcircumflex" xMin="-167" yMin="-424" xMax="470" yMax="583">
      <component glyphName="uni0302" x="208" y="226" flags="0x1004"/>
      <component glyphName="J" x="0" y="0" flags="0x1204"/>
    </TTGlyph>
    <TTGlyph name="K" xMin="14" yMin="-103" xMax="556" yMax="443">
      <contour>
        <pt x="185" y="224" on="1"/>
        <pt x="198" y="247" on="1"/>
        <pt x="175" y="239" on="1"/>
        <pt x="178" y="232" on="0"/>
      </contour>
      <contour>
        <pt x="227" y="443" on="1"/>
        <pt x="257" y="443" on="0"/>
        <pt x="291" y="414" on="0"/>
        <pt x="291" y="393" on="1"/>
        <pt x="291" y="357" on="0"/>
        <pt x="253" y="283" on="1"/>
        <pt x="454" y="374" on="0"/>
        <pt x="508" y="414" on="1"/>
        <pt x="541" y="438" on="0"/>
        <pt x="554" y="438" on="1"/>
        <pt x="556" y="438" on="0"/>
        <pt x="556" y="436" on="1"/>
        <pt x="556" y="432" on="0"/>
        <pt x="521" y="402" on="0"/>
        <pt x="456" y="360" on="0"/>
        <pt x="424" y="347" on="1"/>
        <pt x="245" y="267" on="1"/>
        <pt x="204" y="192" on="1"/>
        <pt x="280" y="63" on="0"/>
        <pt x="305" y="25" on="1"/>
        <pt x="331" y="-15" on="0"/>
        <pt x="358" y="-51" on="0"/>
        <pt x="414" y="-92" on="0"/>
        <pt x="444" y="-92" on="1"/>
        <pt x="490" y="-92" on="0"/>
        <pt x="537" y="-56" on="1"/>
        <pt x="539" y="-54" on="0"/>
        <pt x="541" y="-54" on="1"/>
        <pt x="542" y="-54" on="0"/>
        <pt x="542" y="-55" on="1"/>
        <pt x="542" y="-70" on="0"/>
        <pt x="469" y="-103" on="0"/>
        <pt x="433" y="-103" on="1"/>
        <pt x="376" y="-103" on="0"/>
        <pt x="310" y="-60" on="0"/>
        <pt x="272" y="-2" on="1"/>
        <pt x="223" y="74" on="0"/>
        <pt x="181" y="150" on="1"/>
        <pt x="125" y="50" on="0"/>
        <pt x="86" y="-1" on="1"/>
        <pt x="75" y="-14" on="0"/>
        <pt x="21" y="-14" on="1"/>
        <pt x="14" y="-14" on="0"/>
        <pt x="14" y="-11" on="1"/>
        <pt x="14" y="-10" on="0"/>
        <pt x="21" y="-7" on="0"/>
        <pt x="34" y="1" on="0"/>
        <pt x="40" y="8" on="1"/>
        <pt x="98" y="75" on="0"/>
        <pt x="162" y="184" on="1"/>
        <pt x="137" y="225" on="0"/>
        <pt x="124" y="225" on="1"/>
        <pt x="122" y="225" on="0"/>
        <pt x="116" y="223" on="0"/>
        <pt x="114" y="223" on="1"/>
        <pt x="110" y="223" on="0"/>
        <pt x="110" y="227" on="1"/>
        <pt x="110" y="232" on="0"/>
        <pt x="207" y="264" on="1"/>
        <pt x="250" y="342" on="0"/>
        <pt x="250" y="379" on="1"/>
        <pt x="250" y="429" on="0"/>
        <pt x="209" y="429" on="1"/>
        <pt x="165" y="429" on="0"/>
        <pt x="127" y="391" on="1"/>
        <pt x="116" y="380" on="1"/>
        <pt x="113" y="380" on="0"/>
        <pt x="113" y="383" on="1"/>
        <pt x="113" y="387" on="0"/>
        <pt x="124" y="398" on="1"/>
        <pt x="168" y="443" on="0"/>
      </contour>
    </TTGlyph>
    <TTGlyph name="Kappa" xMin="14" yMin="-103" xMax="556" yMax="443">
      <component glyphName="K" x="0" y="0" flags="0x1004"/>
    </TTGlyph>
    <TTGlyph name="Kcommaaccent" xMin="14" yMin="-195" xMax="556" yMax="443">
      <component glyphName="uni0326" x="72" y="-50" flags="0x1004"/>
      <component glyphName="K" x="0" y="0" flags="0x1204"/>
    </TTGlyph>
    <TTGlyph name="L" xMin="47" yMin="-152" xMax="629" yMax="443">
      <contour>
        <pt x="241" y="391" on="1"/>
        <pt x="230" y="380" on="1"/>
        <pt x="227" y="380" on="0"/>
        <pt x="227" y="383" on="1"/>
        <pt x="227" y="387" on="0"/>
        <pt x="238" y="398" on="1"/>
        <pt x="281" y="443" on="0"/>
        <pt x="329" y="443" on="1"/>
        <pt x="349" y="443" on="0"/>
        <pt x="379" y="422" on="0"/>
        <pt x="379" y="398" on="1"/>
        <pt x="379" y="358" on="0"/>
        <pt x="267" y="154" on="0"/>
        <pt x="226" y="97" on="1"/>
        <pt x="255" y="10" on="0"/>
        <pt x="427" y="-127" on="0"/>
        <pt x="513" y="-127" on="1"/>
        <pt x="571" y="-127" on="0"/>
        <pt x="609" y="-91" on="1"/>
        <pt x="613" y="-87" on="0"/>
        <pt x="620" y="-76" on="0"/>
        <pt x="625" y="-71" on="0"/>
        <pt x="629" y="-71" on="0"/>
        <pt x="629" y="-74" on="1"/>
        <pt x="629" y="-82" on="0"/>
        <pt x="615" y="-99" on="1"/>
        <pt x="570" y="-152" on="0"/>
        <pt x="485" y="-152" on="1"/>
        <pt x="448" y="-152" on="0"/>
        <pt x="371" y="-129" on="0"/>
        <pt x="290" y="-81" on="0"/>
        <pt x="223" y="9" on="0"/>
        <pt x="204" y="69" on="1"/>
        <pt x="138" y="-12" on="0"/>
        <pt x="78" y="-12" on="1"/>
        <pt x="47" y="-12" on="0"/>
        <pt x="47" y="8" on="1"/>
        <pt x="47" y="44" on="0"/>
        <pt x="150" y="155" on="0"/>
        <pt x="184" y="155" on="1"/>
        <pt x="203" y="155" on="0"/>
        <pt x="218" y="119" on="1"/>
        <pt x="277" y="212" on="0"/>
        <pt x="340" y="361" on="0"/>
        <pt x="340" y="388" on="1"/>
        <pt x="340" y="424" on="0"/>
        <pt x="314" y="424" on="1"/>
        <pt x="274" y="424" on="0"/>
      </contour>
      <contour>
        <pt x="198" y="89" on="1"/>
        <pt x="187" y="128" on="0"/>
        <pt x="167" y="128" on="1"/>
        <pt x="139" y="128" on="0"/>
        <pt x="77" y="58" on="0"/>
        <pt x="77" y="28" on="1"/>
        <pt x="77" y="9" on="0"/>
        <pt x="96" y="9" on="1"/>
        <pt x="124" y="9" on="0"/>
        <pt x="171" y="51" on="0"/>
      </contour>
    </TTGlyph>
    <TTGlyph name="Lacute" xMin="47" yMin="-152" xMax="629" yMax="580">
      <component glyphName="acutecomb" x="208" y="226" flags="0x1004"/>
      <component glyphName="L" x="0" y="0" flags="0x1204"/>
    </TTGlyph>
    <TTGlyph name="Lambda" xMin="-25" yMin="-7" xMax="580" yMax="451">
      <contour>
        <pt x="453" y="415" on="1"/>
        <pt x="430" y="354" on="0"/>
        <pt x="390" y="144" on="0"/>
        <pt x="390" y="89" on="1"/>
        <pt x="390" y="13" on="0"/>
        <pt x="422" y="13" on="1"/>
        <pt x="458" y="13" on="0"/>
        <pt x="525" y="71" on="1"/>
        <pt x="558" y="100" on="0"/>
        <pt x="574" y="124" on="1"/>
        <pt x="576" y="127" on="0"/>
        <pt x="580" y="127" on="0"/>
        <pt x="580" y="125" on="1"/>
        <pt x="580" y="124" on="0"/>
        <pt x="579" y="122" on="1"/>
        <pt x="530" y="57" on="0"/>
        <pt x="463" y="18" on="1"/>
        <pt x="425" y="-4" on="0"/>
        <pt x="393" y="-4" on="1"/>
        <pt x="364" y="-4" on="0"/>
        <pt x="346" y="33" on="0"/>
        <pt x="346" y="77" on="1"/>
        <pt x="346" y="144" on="0"/>
        <pt x="403" y="395" on="0"/>
        <pt x="403" y="401" on="1"/>
        <pt x="403" y="404" on="0"/>
        <pt x="402" y="404" on="1"/>
        <pt x="388" y="390" on="1"/>
        <pt x="186" y="153" on="1"/>
        <pt x="90" y="43" on="0"/>
        <pt x="51" y="11" on="1"/>
        <pt x="36" y="0" on="0"/>
        <pt x="8" y="-3" on="1"/>
        <pt x="6" y="-3" on="0"/>
        <pt x="-13" y="-7" on="0"/>
        <pt x="-25" y="-7" on="0"/>
        <pt x="-25" y="-3" on="1"/>
        <pt x="-25" y="2" on="0"/>
        <pt x="-17" y="4" on="1"/>
        <pt x="2" y="10" on="0"/>
        <pt x="15" y="22" on="1"/>
        <pt x="175" y="161" on="0"/>
        <pt x="373" y="392" on="1"/>
        <pt x="381" y="401" on="0"/>
        <pt x="392" y="414" on="0"/>
        <pt x="403" y="423" on="0"/>
        <pt x="407" y="428" on="0"/>
        <pt x="418" y="434" on="0"/>
        <pt x="421" y="435" on="0"/>
        <pt x="435" y="441" on="0"/>
        <pt x="438" y="442" on="1"/>
        <pt x="440" y="443" on="0"/>
        <pt x="457" y="451" on="0"/>
        <pt x="460" y="451" on="1"/>
        <pt x="464" y="451" on="0"/>
        <pt x="464" y="447" on="1"/>
        <pt x="464" y="446" on="1"/>
        <pt x="464" y="441" on="0"/>
        <pt x="453" y="416" on="0"/>
      </contour>
    </TTGlyph>
    <TTGlyph name="Lcaron" xMin="47" yMin="-152" xMax="629" yMax="448">
      <component glyphName="uni0315" x="353" y="-118" flags="0x1004"/>
      <component glyphName="L" x="0" y="0" flags="0x1004"/>
    </TTGlyph>
    <TTGlyph name="Lcommaaccent" xMin="47" yMin="-195" xMax="629" yMax="443">
      <component glyphName="uni0326" x="78" y="-50" flags="0x1004"/>
      <component glyphName="L" x="0" y="0" flags="0x1204"/>
    </TTGlyph>
    <TTGlyph name="Ldot" xMin="47" yMin="-152" xMax="629" yMax="443">
      <component glyphName="periodcentered" x="217" y="13" flags="0x1004"/>
      <component glyphName="L" x="0" y="0" flags="0x1204"/>
    </TTGlyph>
    <TTGlyph name="Lslash" xMin="47" yMin="-152" xMax="629" yMax="443">
      <contour>
        <pt x="327" y="275" on="1"/>
        <pt x="423" y="332" on="0"/>
        <pt x="430" y="332" on="1"/>
        <pt x="433" y="332" on="0"/>
        <pt x="433" y="329" on="1"/>
        <pt x="433" y="325" on="0"/>
        <pt x="405" y="307" on="0"/>
        <pt x="332" y="265" on="1"/>
        <pt x="293" y="242" on="0"/>
        <pt x="220" y="210" on="0"/>
        <pt x="185" y="200" on="0"/>
        <pt x="180" y="200" on="1"/>
        <pt x="177" y="200" on="0"/>
        <pt x="177" y="202" on="1"/>
        <pt x="177" y="205" on="0"/>
        <pt x="200" y="221" on="0"/>
        <pt x="211" y="224" on="1"/>
        <pt x="263" y="237" on="0"/>
      </contour>
      <contour>
        <pt x="241" y="391" on="1"/>
        <pt x="230" y="380" on="1"/>
        <pt x="227" y="380" on="0"/>
        <pt x="227" y="383" on="1"/>
        <pt x="227" y="387" on="0"/>
        <pt x="238" y="398" on="1"/>
        <pt x="281" y="443" on="0"/>
        <pt x="329" y="443" on="1"/>
        <pt x="349" y="443" on="0"/>
        <pt x="379" y="422" on="0"/>
        <pt x="379" y="398" on="1"/>
        <pt x="379" y="358" on="0"/>
        <pt x="267" y="154" on="0"/>
        <pt x="226" y="97" on="1"/>
        <pt x="255" y="10" on="0"/>
        <pt x="427" y="-127" on="0"/>
        <pt x="513" y="-127" on="1"/>
        <pt x="571" y="-127" on="0"/>
        <pt x="609" y="-91" on="1"/>
        <pt x="613" y="-87" on="0"/>
        <pt x="620" y="-76" on="0"/>
        <pt x="625" y="-71" on="0"/>
        <pt x="629" y="-71" on="0"/>
        <pt x="629" y="-74" on="1"/>
        <pt x="629" y="-82" on="0"/>
        <pt x="615" y="-99" on="1"/>
        <pt x="570" y="-152" on="0"/>
        <pt x="485" y="-152" on="1"/>
        <pt x="448" y="-152" on="0"/>
        <pt x="371" y="-129" on="0"/>
        <pt x="290" y="-81" on="0"/>
        <pt x="223" y="9" on="0"/>
        <pt x="204" y="69" on="1"/>
        <pt x="138" y="-12" on="0"/>
        <pt x="78" y="-12" on="1"/>
        <pt x="47" y="-12" on="0"/>
        <pt x="47" y="8" on="1"/>
        <pt x="47" y="44" on="0"/>
        <pt x="150" y="155" on="0"/>
        <pt x="184" y="155" on="1"/>
        <pt x="203" y="155" on="0"/>
        <pt x="218" y="119" on="1"/>
        <pt x="277" y="212" on="0"/>
        <pt x="340" y="361" on="0"/>
        <pt x="340" y="388" on="1"/>
        <pt x="340" y="424" on="0"/>
        <pt x="314" y="424" on="1"/>
        <pt x="274" y="424" on="0"/>
      </contour>
      <contour>
        <pt x="198" y="89" on="1"/>
        <pt x="187" y="128" on="0"/>
        <pt x="167" y="128" on="1"/>
        <pt x="139" y="128" on="0"/>
        <pt x="77" y="58" on="0"/>
        <pt x="77" y="28" on="1"/>
        <pt x="77" y="9" on="0"/>
        <pt x="96" y="9" on="1"/>
        <pt x="124" y="9" on="0"/>
        <pt x="171" y="51" on="0"/>
      </contour>
    </TTGlyph>
    <TTGlyph name="M" xMin="14" yMin="-151" xMax="730" yMax="450">
      <contour>
        <pt x="268" y="353" on="1"/>
        <pt x="291" y="377" on="0"/>
        <pt x="320" y="403" on="0"/>
        <pt x="368" y="432" on="0"/>
        <pt x="388" y="432" on="1"/>
        <pt x="446" y="432" on="0"/>
        <pt x="446" y="360" on="1"/>
        <pt x="544" y="450" on="0"/>
        <pt x="608" y="450" on="1"/>
        <pt x="631" y="450" on="0"/>
        <pt x="664" y="427" on="0"/>
        <pt x="664" y="406" on="1"/>
        <pt x="664" y="380" on="0"/>
        <pt x="613" y="295" on="0"/>
        <pt x="553" y="212" on="0"/>
        <pt x="502" y="82" on="0"/>
        <pt x="502" y="17" on="1"/>
        <pt x="502" y="-56" on="0"/>
        <pt x="567" y="-127" on="0"/>
        <pt x="613" y="-127" on="1"/>
        <pt x="670" y="-127" on="0"/>
        <pt x="715" y="-72" on="1"/>
        <pt x="728" y="-56" on="1"/>
        <pt x="730" y="-56" on="0"/>
        <pt x="730" y="-58" on="1"/>
        <pt x="730" y="-78" on="0"/>
        <pt x="647" y="-151" on="0"/>
        <pt x="596" y="-151" on="1"/>
        <pt x="537" y="-151" on="0"/>
        <pt x="461" y="-75" on="0"/>
        <pt x="461" y="-6" on="1"/>
        <pt x="461" y="55" on="0"/>
        <pt x="510" y="180" on="0"/>
        <pt x="570" y="265" on="0"/>
        <pt x="619" y="356" on="0"/>
        <pt x="619" y="386" on="1"/>
        <pt x="619" y="406" on="0"/>
        <pt x="592" y="426" on="0"/>
        <pt x="575" y="426" on="1"/>
        <pt x="572" y="426" on="1"/>
        <pt x="530" y="425" on="0"/>
        <pt x="440" y="335" on="1"/>
        <pt x="430" y="311" on="0"/>
        <pt x="423" y="301" on="1"/>
        <pt x="418" y="294" on="0"/>
        <pt x="383" y="275" on="0"/>
        <pt x="376" y="275" on="1"/>
        <pt x="372" y="275" on="0"/>
        <pt x="372" y="277" on="1"/>
        <pt x="372" y="286" on="0"/>
        <pt x="402" y="316" on="1"/>
        <pt x="406" y="327" on="0"/>
        <pt x="406" y="344" on="1"/>
        <pt x="406" y="408" on="0"/>
        <pt x="361" y="408" on="1"/>
        <pt x="343" y="408" on="0"/>
        <pt x="272" y="341" on="0"/>
        <pt x="246" y="304" on="1"/>
        <pt x="205" y="238" on="0"/>
        <pt x="97" y="20" on="0"/>
        <pt x="83" y="-1" on="1"/>
        <pt x="76" y="-14" on="0"/>
        <pt x="21" y="-14" on="1"/>
        <pt x="14" y="-14" on="0"/>
        <pt x="14" y="-11" on="1"/>
        <pt x="14" y="-10" on="0"/>
        <pt x="21" y="-8" on="0"/>
        <pt x="34" y="1" on="0"/>
        <pt x="40" y="8" on="1"/>
        <pt x="59" y="32" on="0"/>
        <pt x="108" y="124" on="1"/>
        <pt x="122" y="150" on="0"/>
        <pt x="173" y="242" on="0"/>
        <pt x="194" y="282" on="0"/>
        <pt x="222" y="339" on="0"/>
        <pt x="232" y="373" on="0"/>
        <pt x="232" y="386" on="1"/>
        <pt x="232" y="405" on="0"/>
        <pt x="213" y="425" on="0"/>
        <pt x="198" y="425" on="1"/>
        <pt x="161" y="425" on="0"/>
        <pt x="127" y="391" on="1"/>
        <pt x="117" y="381" on="0"/>
        <pt x="116" y="381" on="1"/>
        <pt x="113" y="381" on="0"/>
        <pt x="113" y="387" on="0"/>
        <pt x="124" y="398" on="1"/>
        <pt x="168" y="443" on="0"/>
        <pt x="217" y="443" on="1"/>
        <pt x="275" y="443" on="0"/>
        <pt x="275" y="393" on="1"/>
        <pt x="275" y="373" on="0"/>
      </contour>
    </TTGlyph>
    <TTGlyph name="Mu" xMin="14" yMin="-151" xMax="730" yMax="450">
      <component glyphName="M" x="0" y="0" flags="0x1004"/>
    </TTGlyph>
    <TTGlyph name="N" xMin="43" yMin="-16" xMax="615" yMax="437">
      <contour>
        <pt x="355" y="18" on="1"/>
        <pt x="343" y="-12" on="0"/>
        <pt x="317" y="-12" on="1"/>
        <pt x="297" y="-12" on="0"/>
        <pt x="297" y="36" on="1"/>
        <pt x="299" y="380" on="1"/>
        <pt x="299" y="404" on="0"/>
        <pt x="296" y="404" on="1"/>
        <pt x="290" y="404" on="0"/>
        <pt x="281" y="386" on="1"/>
        <pt x="87" y="18" on="1"/>
        <pt x="83" y="11" on="0"/>
        <pt x="75" y="3" on="0"/>
        <pt x="62" y="-3" on="0"/>
        <pt x="59" y="-5" on="1"/>
        <pt x="55" y="-7" on="0"/>
        <pt x="49" y="-16" on="0"/>
        <pt x="43" y="-16" on="0"/>
        <pt x="43" y="-14" on="1"/>
        <pt x="43" y="-13" on="0"/>
        <pt x="49" y="2" on="0"/>
        <pt x="61" y="28" on="0"/>
        <pt x="65" y="38" on="1"/>
        <pt x="85" y="91" on="0"/>
        <pt x="85" y="115" on="1"/>
        <pt x="85" y="147" on="0"/>
        <pt x="77" y="147" on="1"/>
        <pt x="74" y="147" on="0"/>
        <pt x="66" y="142" on="0"/>
        <pt x="62" y="142" on="0"/>
        <pt x="62" y="145" on="1"/>
        <pt x="78" y="155" on="1"/>
        <pt x="94" y="164" on="1"/>
        <pt x="109" y="164" on="0"/>
        <pt x="116" y="146" on="1"/>
        <pt x="120" y="134" on="0"/>
        <pt x="120" y="124" on="1"/>
        <pt x="274" y="407" on="1"/>
        <pt x="288" y="436" on="0"/>
        <pt x="324" y="436" on="1"/>
        <pt x="341" y="436" on="0"/>
        <pt x="341" y="406" on="1"/>
        <pt x="338" y="37" on="1"/>
        <pt x="354" y="78" on="0"/>
        <pt x="510" y="379" on="0"/>
        <pt x="532" y="401" on="1"/>
        <pt x="533" y="402" on="0"/>
        <pt x="545" y="414" on="0"/>
        <pt x="555" y="422" on="0"/>
        <pt x="569" y="432" on="0"/>
        <pt x="584" y="437" on="0"/>
        <pt x="591" y="437" on="1"/>
        <pt x="600" y="437" on="0"/>
        <pt x="615" y="429" on="0"/>
        <pt x="615" y="426" on="1"/>
        <pt x="615" y="422" on="0"/>
        <pt x="604" y="412" on="1"/>
        <pt x="577" y="387" on="0"/>
        <pt x="576" y="387" on="1"/>
        <pt x="573" y="387" on="0"/>
        <pt x="573" y="390" on="1"/>
        <pt x="573" y="399" on="0"/>
        <pt x="561" y="399" on="1"/>
        <pt x="546" y="399" on="0"/>
        <pt x="535" y="382" on="1"/>
        <pt x="496" y="324" on="0"/>
        <pt x="376" y="72" on="0"/>
      </contour>
    </TTGlyph>
    <TTGlyph name="Nacute" xMin="43" yMin="-16" xMax="615" yMax="580">
      <component glyphName="acutecomb" x="297" y="226" flags="0x1004"/>
      <component glyphName="N" x="0" y="0" flags="0x1204"/>
    </TTGlyph>
    <TTGlyph name="Ncaron" xMin="43" yMin="-16" xMax="615" yMax="597">
      <component glyphName="uni030C" x="274" y="226" flags="0x1004"/>
      <component glyphName="N" x="0" y="0" flags="0x1204"/>
    </TTGlyph>
    <TTGlyph name="Ncommaaccent" xMin="43" yMin="-195" xMax="615" yMax="437">
      <component glyphName="uni0326" x="79" y="-50" flags="0x1004"/>
      <component glyphName="N" x="0" y="0" flags="0x1204"/>
    </TTGlyph>
    <TTGlyph name="Ntilde" xMin="43" yMin="-16" xMax="615" yMax="564">
      <component glyphName="tildecomb" x="274" y="226" flags="0x1004"/>
      <component glyphName="N" x="0" y="0" flags="0x1204"/>
    </TTGlyph>
    <TTGlyph name="Nu" xMin="43" yMin="-16" xMax="615" yMax="437">
      <component glyphName="N" x="0" y="0" flags="0x1004"/>
    </TTGlyph>
    <TTGlyph name="O" xMin="77" yMin="-12" xMax="535" yMax="444">
      <contour>
        <pt x="535" y="315" on="1"/>
        <pt x="535" y="251" on="0"/>
        <pt x="472" y="127" on="0"/>
        <pt x="378" y="41" on="0"/>
        <pt x="269" y="-12" on="0"/>
        <pt x="223" y="-12" on="1"/>
        <pt x="164" y="-12" on="0"/>
        <pt x="77" y="61" on="0"/>
        <pt x="77" y="124" on="1"/>
        <pt x="77" y="172" on="0"/>
        <pt x="126" y="285" on="0"/>
        <pt x="159" y="326" on="1"/>
        <pt x="204" y="381" on="0"/>
        <pt x="322" y="443" on="0"/>
        <pt x="384" y="443" on="1"/>
        <pt x="411" y="443" on="0"/>
        <pt x="468" y="408" on="0"/>
        <pt x="468" y="389" on="1"/>
        <pt x="468" y="387" on="0"/>
        <pt x="465" y="381" on="0"/>
        <pt x="459" y="372" on="0"/>
        <pt x="457" y="368" on="1"/>
        <pt x="446" y="348" on="0"/>
        <pt x="445" y="348" on="1"/>
        <pt x="440" y="348" on="0"/>
        <pt x="440" y="353" on="1"/>
        <pt x="440" y="392" on="0"/>
        <pt x="390" y="426" on="0"/>
        <pt x="363" y="426" on="1"/>
        <pt x="251" y="426" on="0"/>
        <pt x="178" y="317" on="1"/>
        <pt x="118" y="228" on="0"/>
        <pt x="118" y="153" on="1"/>
        <pt x="118" y="93" on="0"/>
        <pt x="183" y="18" on="0"/>
        <pt x="236" y="18" on="1"/>
        <pt x="335" y="18" on="0"/>
        <pt x="504" y="191" on="0"/>
        <pt x="504" y="297" on="1"/>
        <pt x="504" y="309" on="0"/>
        <pt x="500" y="336" on="0"/>
        <pt x="495" y="358" on="0"/>
        <pt x="488" y="380" on="0"/>
        <pt x="480" y="397" on="0"/>
        <pt x="475" y="410" on="0"/>
        <pt x="473" y="414" on="1"/>
        <pt x="471" y="417" on="1"/>
        <pt x="471" y="420" on="0"/>
        <pt x="492" y="444" on="0"/>
        <pt x="497" y="444" on="1"/>
        <pt x="512" y="444" on="0"/>
        <pt x="535" y="355" on="0"/>
      </contour>
    </TTGlyph>
    <TTGlyph name="OE" xMin="77" yMin="-12" xMax="866" yMax="444">
      <component glyphName="E" x="369" y="0" flags="0x1004"/>
      <component glyphName="O" x="0" y="0" flags="0x1004"/>
    </TTGlyph>
    <TTGlyph name="Oacute" xMin="77" yMin="-12" xMax="535" yMax="580">
      <component glyphName="acutecomb" x="261" y="226" flags="0x1004"/>
      <component glyphName="O" x="0" y="0" flags="0x1204"/>
    </TTGlyph>
    <TTGlyph name="Obreve" xMin="77" yMin="-12" xMax="548" yMax="588">
      <component glyphName="uni0306" x="238" y="226" flags="0x1004"/>
      <component glyphName="O" x="0" y="0" flags="0x1204"/>
    </TTGlyph>
    <TTGlyph name="Ocircumflex" xMin="77" yMin="-12" xMax="535" yMax="583">
      <component glyphName="uni0302" x="238" y="226" flags="0x1004"/>
      <component glyphName="O" x="0" y="0" flags="0x1204"/>
    </TTGlyph>
    <TTGlyph name="Odieresis" xMin="77" yMin="-12" xMax="535" yMax="562">
      <component glyphName="uni0308" x="238" y="226" flags="0x1004"/>
      <component glyphName="O" x="0" y="0" flags="0x1204"/>
    </TTGlyph>
    <TTGlyph name="Ograve" xMin="77" yMin="-12" xMax="535" yMax="621">
      <component glyphName="gravecomb" x="238" y="226" flags="0x1004"/>
      <component glyphName="O" x="0" y="0" flags="0x1204"/>
    </TTGlyph>
    <TTGlyph name="Ohorn" xMin="77" yMin="-12" xMax="611" yMax="456">
      <contour>
        <pt x="77" y="125" on="1"/>
        <pt x="77" y="173" on="0"/>
        <pt x="126" y="285" on="0"/>
        <pt x="159" y="326" on="1"/>
        <pt x="204" y="381" on="0"/>
        <pt x="322" y="443" on="0"/>
        <pt x="384" y="443" on="1"/>
        <pt x="411" y="443" on="0"/>
        <pt x="468" y="408" on="0"/>
        <pt x="468" y="389" on="1"/>
        <pt x="468" y="384" on="0"/>
        <pt x="455" y="360" on="1"/>
        <pt x="443" y="334" on="0"/>
        <pt x="441" y="334" on="1"/>
        <pt x="436" y="334" on="0"/>
        <pt x="436" y="339" on="1"/>
        <pt x="436" y="342" on="0"/>
        <pt x="440" y="357" on="0"/>
        <pt x="440" y="361" on="1"/>
        <pt x="440" y="384" on="0"/>
        <pt x="398" y="426" on="0"/>
        <pt x="363" y="426" on="1"/>
        <pt x="251" y="426" on="0"/>
        <pt x="178" y="317" on="1"/>
        <pt x="118" y="228" on="0"/>
        <pt x="118" y="153" on="1"/>
        <pt x="118" y="93" on="0"/>
        <pt x="183" y="18" on="0"/>
        <pt x="236" y="18" on="1"/>
        <pt x="335" y="18" on="0"/>
        <pt x="504" y="191" on="0"/>
        <pt x="504" y="297" on="1"/>
        <pt x="504" y="340" on="0"/>
        <pt x="490" y="379" on="1"/>
        <pt x="485" y="391" on="0"/>
        <pt x="471" y="413" on="0"/>
        <pt x="471" y="417" on="1"/>
        <pt x="471" y="420" on="0"/>
        <pt x="492" y="444" on="0"/>
        <pt x="497" y="444" on="1"/>
        <pt x="504" y="444" on="0"/>
        <pt x="533" y="418" on="0"/>
        <pt x="547" y="418" on="1"/>
        <pt x="569" y="418" on="0"/>
        <pt x="605" y="436" on="0"/>
        <pt x="605" y="452" on="1"/>
        <pt x="605" y="456" on="0"/>
        <pt x="611" y="456" on="0"/>
        <pt x="611" y="452" on="1"/>
        <pt x="611" y="429" on="0"/>
        <pt x="567" y="394" on="0"/>
        <pt x="537" y="394" on="1"/>
        <pt x="528" y="394" on="0"/>
        <pt x="524" y="395" on="1"/>
        <pt x="535" y="354" on="0"/>
        <pt x="535" y="315" on="1"/>
        <pt x="535" y="251" on="0"/>
        <pt x="472" y="127" on="0"/>
        <pt x="378" y="41" on="0"/>
        <pt x="269" y="-12" on="0"/>
        <pt x="223" y="-12" on="1"/>
        <pt x="164" y="-12" on="0"/>
        <pt x="77" y="62" on="0"/>
      </contour>
    </TTGlyph>
    <TTGlyph name="Ohungarumlaut" xMin="77" yMin="-12" xMax="553" yMax="586">
      <component glyphName="uni030B" x="238" y="226" flags="0x1004"/>
      <component glyphName="O" x="0" y="0" flags="0x1204"/>
    </TTGlyph>
    <TTGlyph name="Omacron" xMin="77" yMin="-12" xMax="535" yMax="541">
      <component glyphName="uni0304" x="238" y="226" flags="0x1004"/>
      <component glyphName="O" x="0" y="0" flags="0x1204"/>
    </TTGlyph>
    <TTGlyph name="Omega" xMin="-2" yMin="-54" xMax="663" yMax="443">
      <contour>
        <pt x="158" y="9" on="1"/>
        <pt x="102" y="76" on="0"/>
        <pt x="102" y="154" on="1"/>
        <pt x="102" y="197" on="0"/>
        <pt x="149" y="295" on="0"/>
        <pt x="233" y="384" on="0"/>
        <pt x="370" y="443" on="0"/>
        <pt x="449" y="443" on="1"/>
        <pt x="519" y="443" on="0"/>
        <pt x="633" y="360" on="0"/>
        <pt x="633" y="284" on="1"/>
        <pt x="633" y="164" on="0"/>
        <pt x="445" y="22" on="1"/>
        <pt x="465" y="19" on="0"/>
        <pt x="599" y="-32" on="0"/>
        <pt x="639" y="-32" on="1"/>
        <pt x="647" y="-32" on="0"/>
        <pt x="660" y="-26" on="0"/>
        <pt x="661" y="-26" on="1"/>
        <pt x="663" y="-26" on="0"/>
        <pt x="663" y="-30" on="0"/>
        <pt x="651" y="-42" on="0"/>
        <pt x="624" y="-54" on="0"/>
        <pt x="609" y="-54" on="1"/>
        <pt x="576" y="-54" on="0"/>
        <pt x="430" y="-3" on="0"/>
        <pt x="414" y="-2" on="1"/>
        <pt x="379" y="-28" on="0"/>
        <pt x="368" y="-28" on="1"/>
        <pt x="363" y="-28" on="0"/>
        <pt x="363" y="-22" on="1"/>
        <pt x="363" y="-14" on="0"/>
        <pt x="379" y="-2" on="0"/>
        <pt x="410" y="13" on="0"/>
        <pt x="415" y="16" on="1"/>
        <pt x="497" y="71" on="0"/>
        <pt x="593" y="187" on="0"/>
        <pt x="593" y="265" on="1"/>
        <pt x="593" y="339" on="0"/>
        <pt x="493" y="428" on="0"/>
        <pt x="428" y="428" on="1"/>
        <pt x="372" y="428" on="0"/>
        <pt x="275" y="391" on="0"/>
        <pt x="211" y="334" on="0"/>
        <pt x="165" y="264" on="0"/>
        <pt x="144" y="199" on="0"/>
        <pt x="144" y="173" on="1"/>
        <pt x="144" y="134" on="0"/>
        <pt x="168" y="69" on="0"/>
        <pt x="196" y="37" on="0"/>
        <pt x="220" y="12" on="0"/>
        <pt x="220" y="7" on="1"/>
        <pt x="220" y="3" on="0"/>
        <pt x="194" y="-9" on="1"/>
        <pt x="176" y="-17" on="0"/>
        <pt x="170" y="-17" on="1"/>
        <pt x="169" y="-17" on="0"/>
        <pt x="63" y="-14" on="0"/>
        <pt x="0" y="-14" on="1"/>
        <pt x="-2" y="-13" on="1"/>
        <pt x="0" y="-12" on="1"/>
        <pt x="3" y="-10" on="0"/>
        <pt x="13" y="-5" on="0"/>
        <pt x="19" y="-1" on="0"/>
        <pt x="26" y="4" on="0"/>
        <pt x="30" y="7" on="0"/>
        <pt x="34" y="9" on="0"/>
        <pt x="35" y="9" on="1"/>
        <pt x="38" y="9" on="0"/>
        <pt x="82" y="7" on="0"/>
        <pt x="93" y="7" on="1"/>
        <pt x="114" y="7" on="0"/>
      </contour>
    </TTGlyph>
    <TTGlyph name="Omegatonos" xMin="-2" yMin="-54" xMax="663" yMax="511">
      <component glyphName="tonos" x="38" y="126" flags="0x1004"/>
      <component glyphName="Omega" x="0" y="0" flags="0x1204"/>
    </TTGlyph>
    <TTGlyph name="Omicron" xMin="77" yMin="-12" xMax="535" yMax="444">
      <component glyphName="O" x="0" y="0" flags="0x1004"/>
    </TTGlyph>
    <TTGlyph name="Omicrontonos" xMin="77" yMin="-12" xMax="535" yMax="511">
      <component glyphName="tonos" x="5" y="126" flags="0x1004"/>
      <component glyphName="Omicron" x="0" y="0" flags="0x1204"/>
    </TTGlyph>
    <TTGlyph name="Oslash" xMin="28" yMin="-12" xMax="603" yMax="444">
      <contour>
        <pt x="603" y="390" on="0"/>
        <pt x="603" y="384" on="0"/>
        <pt x="589" y="376" on="1"/>
        <pt x="556" y="357" on="0"/>
        <pt x="518" y="334" on="1"/>
        <pt x="105" y="78" on="1"/>
        <pt x="43" y="38" on="0"/>
        <pt x="34" y="38" on="1"/>
        <pt x="28" y="38" on="0"/>
        <pt x="28" y="43" on="1"/>
        <pt x="28" y="46" on="0"/>
        <pt x="40" y="52" on="1"/>
        <pt x="69" y="68" on="0"/>
        <pt x="104" y="89" on="1"/>
        <pt x="516" y="346" on="1"/>
        <pt x="523" y="350" on="0"/>
        <pt x="550" y="367" on="0"/>
        <pt x="564" y="375" on="0"/>
        <pt x="582" y="386" on="0"/>
        <pt x="594" y="390" on="0"/>
        <pt x="599" y="390" on="1"/>
      </contour>
      <contour>
        <pt x="535" y="315" on="1"/>
        <pt x="535" y="251" on="0"/>
        <pt x="472" y="127" on="0"/>
        <pt x="378" y="41" on="0"/>
        <pt x="269" y="-12" on="0"/>
        <pt x="223" y="-12" on="1"/>
        <pt x="164" y="-12" on="0"/>
        <pt x="77" y="61" on="0"/>
        <pt x="77" y="124" on="1"/>
        <pt x="77" y="172" on="0"/>
        <pt x="126" y="285" on="0"/>
        <pt x="159" y="326" on="1"/>
        <pt x="204" y="381" on="0"/>
        <pt x="322" y="443" on="0"/>
        <pt x="384" y="443" on="1"/>
        <pt x="411" y="443" on="0"/>
        <pt x="468" y="408" on="0"/>
        <pt x="468" y="389" on="1"/>
        <pt x="468" y="387" on="0"/>
        <pt x="465" y="381" on="0"/>
        <pt x="459" y="372" on="0"/>
        <pt x="457" y="368" on="1"/>
        <pt x="446" y="348" on="0"/>
        <pt x="445" y="348" on="1"/>
        <pt x="440" y="348" on="0"/>
        <pt x="440" y="353" on="1"/>
        <pt x="440" y="392" on="0"/>
        <pt x="390" y="426" on="0"/>
        <pt x="363" y="426" on="1"/>
        <pt x="251" y="426" on="0"/>
        <pt x="178" y="317" on="1"/>
        <pt x="118" y="228" on="0"/>
        <pt x="118" y="153" on="1"/>
        <pt x="118" y="93" on="0"/>
        <pt x="183" y="18" on="0"/>
        <pt x="236" y="18" on="1"/>
        <pt x="335" y="18" on="0"/>
        <pt x="504" y="191" on="0"/>
        <pt x="504" y="297" on="1"/>
        <pt x="504" y="309" on="0"/>
        <pt x="500" y="336" on="0"/>
        <pt x="495" y="358" on="0"/>
        <pt x="488" y="380" on="0"/>
        <pt x="480" y="397" on="0"/>
        <pt x="475" y="410" on="0"/>
        <pt x="473" y="414" on="1"/>
        <pt x="471" y="417" on="1"/>
        <pt x="471" y="420" on="0"/>
        <pt x="492" y="444" on="0"/>
        <pt x="497" y="444" on="1"/>
        <pt x="512" y="444" on="0"/>
        <pt x="535" y="355" on="0"/>
      </contour>
    </TTGlyph>
    <TTGlyph name="Oslashacute" xMin="28" yMin="-12" xMax="603" yMax="580">
      <component glyphName="acutecomb" x="232" y="226" flags="0x1004"/>
      <component glyphName="Oslash" x="0" y="0" flags="0x1204"/>
    </TTGlyph>
    <TTGlyph name="Otilde" xMin="77" yMin="-12" xMax="543" yMax="564">
      <component glyphName="tildecomb" x="238" y="226" flags="0x1004"/>
      <component glyphName="O" x="0" y="0" flags="0x1204"/>
    </TTGlyph>
    <TTGlyph name="P" xMin="33" yMin="-16" xMax="507" yMax="443">
      <contour>
        <pt x="182" y="182" on="1"/>
        <pt x="255" y="201" on="0"/>
        <pt x="322" y="226" on="1"/>
        <pt x="375" y="246" on="0"/>
        <pt x="465" y="324" on="0"/>
        <pt x="465" y="360" on="1"/>
        <pt x="465" y="382" on="0"/>
        <pt x="436" y="415" on="0"/>
        <pt x="410" y="415" on="1"/>
        <pt x="308" y="415" on="0"/>
      </contour>
      <contour>
        <pt x="50" y="17" on="1"/>
        <pt x="98" y="95" on="0"/>
        <pt x="131" y="156" on="1"/>
        <pt x="203" y="294" on="0"/>
        <pt x="203" y="310" on="1"/>
        <pt x="203" y="313" on="0"/>
        <pt x="200" y="316" on="0"/>
        <pt x="193" y="317" on="0"/>
        <pt x="187" y="317" on="0"/>
        <pt x="178" y="317" on="0"/>
        <pt x="176" y="317" on="1"/>
        <pt x="171" y="317" on="0"/>
        <pt x="171" y="321" on="1"/>
        <pt x="171" y="324" on="0"/>
        <pt x="230" y="337" on="0"/>
        <pt x="244" y="337" on="0"/>
        <pt x="244" y="332" on="1"/>
        <pt x="244" y="328" on="0"/>
        <pt x="209" y="258" on="1"/>
        <pt x="228" y="294" on="0"/>
        <pt x="253" y="325" on="1"/>
        <pt x="294" y="375" on="0"/>
        <pt x="395" y="443" on="0"/>
        <pt x="438" y="443" on="1"/>
        <pt x="469" y="443" on="0"/>
        <pt x="507" y="410" on="0"/>
        <pt x="507" y="380" on="1"/>
        <pt x="507" y="343" on="0"/>
        <pt x="439" y="271" on="0"/>
        <pt x="365" y="230" on="0"/>
        <pt x="322" y="213" on="1"/>
        <pt x="275" y="195" on="0"/>
        <pt x="178" y="166" on="1"/>
        <pt x="116" y="42" on="0"/>
        <pt x="100" y="2" on="1"/>
        <pt x="98" y="-3" on="0"/>
        <pt x="85" y="-5" on="0"/>
        <pt x="62" y="-5" on="0"/>
        <pt x="52" y="-9" on="1"/>
        <pt x="47" y="-11" on="0"/>
        <pt x="40" y="-16" on="0"/>
        <pt x="38" y="-16" on="1"/>
        <pt x="33" y="-16" on="0"/>
        <pt x="33" y="-13" on="1"/>
      </contour>
    </TTGlyph>
    <TTGlyph name="Phi" xMin="89" yMin="-9" xMax="477" yMax="444">
      <contour>
        <pt x="227" y="78" on="1"/>
        <pt x="233" y="77" on="0"/>
        <pt x="245" y="77" on="1"/>
        <pt x="327" y="77" on="0"/>
        <pt x="440" y="192" on="0"/>
        <pt x="440" y="254" on="1"/>
        <pt x="440" y="287" on="0"/>
        <pt x="404" y="336" on="0"/>
        <pt x="372" y="347" on="1"/>
        <pt x="303" y="231" on="0"/>
      </contour>
      <contour>
        <pt x="173" y="60" on="1"/>
        <pt x="134" y="69" on="0"/>
        <pt x="89" y="122" on="0"/>
        <pt x="89" y="160" on="1"/>
        <pt x="89" y="239" on="0"/>
        <pt x="257" y="372" on="0"/>
        <pt x="345" y="377" on="1"/>
        <pt x="361" y="409" on="0"/>
        <pt x="361" y="416" on="1"/>
        <pt x="361" y="432" on="0"/>
        <pt x="340" y="432" on="1"/>
        <pt x="336" y="432" on="0"/>
        <pt x="336" y="440" on="0"/>
        <pt x="344" y="440" on="1"/>
        <pt x="356" y="440" on="0"/>
        <pt x="384" y="439" on="0"/>
        <pt x="398" y="439" on="1"/>
        <pt x="410" y="439" on="0"/>
        <pt x="450" y="444" on="0"/>
        <pt x="456" y="444" on="1"/>
        <pt x="461" y="444" on="0"/>
        <pt x="461" y="439" on="1"/>
        <pt x="461" y="437" on="0"/>
        <pt x="442" y="432" on="0"/>
        <pt x="420" y="427" on="0"/>
        <pt x="418" y="424" on="1"/>
        <pt x="388" y="374" on="1"/>
        <pt x="430" y="366" on="0"/>
        <pt x="477" y="312" on="0"/>
        <pt x="477" y="274" on="1"/>
        <pt x="477" y="194" on="0"/>
        <pt x="307" y="59" on="0"/>
        <pt x="217" y="56" on="1"/>
        <pt x="214" y="49" on="0"/>
        <pt x="204" y="28" on="0"/>
        <pt x="203" y="22" on="0"/>
        <pt x="193" y="8" on="0"/>
        <pt x="193" y="6" on="0"/>
        <pt x="181" y="-1" on="0"/>
        <pt x="179" y="-1" on="0"/>
        <pt x="160" y="-4" on="0"/>
        <pt x="154" y="-4" on="0"/>
        <pt x="140" y="-5" on="1"/>
        <pt x="133" y="-5" on="0"/>
        <pt x="116" y="-7" on="0"/>
        <pt x="106" y="-9" on="0"/>
        <pt x="105" y="-9" on="1"/>
        <pt x="97" y="-9" on="0"/>
        <pt x="97" y="-5" on="1"/>
        <pt x="97" y="0" on="0"/>
        <pt x="103" y="0" on="1"/>
        <pt x="116" y="1" on="0"/>
        <pt x="132" y="8" on="0"/>
        <pt x="157" y="34" on="0"/>
      </contour>
      <contour>
        <pt x="125" y="180" on="1"/>
        <pt x="125" y="148" on="0"/>
        <pt x="159" y="99" on="0"/>
        <pt x="189" y="87" on="1"/>
        <pt x="334" y="355" on="1"/>
        <pt x="325" y="356" on="0"/>
        <pt x="320" y="356" on="1"/>
        <pt x="233" y="356" on="0"/>
        <pt x="125" y="239" on="0"/>
      </contour>
    </TTGlyph>
    <TTGlyph name="Pi" xMin="16" yMin="-14" xMax="608" yMax="449">
      <contour>
        <pt x="116" y="381" on="1"/>
        <pt x="113" y="381" on="0"/>
        <pt x="113" y="387" on="0"/>
        <pt x="124" y="398" on="1"/>
        <pt x="145" y="419" on="0"/>
        <pt x="182" y="426" on="1"/>
        <pt x="220" y="433" on="0"/>
        <pt x="511" y="437" on="0"/>
        <pt x="578" y="445" on="1"/>
        <pt x="588" y="446" on="0"/>
        <pt x="601" y="448" on="0"/>
        <pt x="604" y="449" on="0"/>
        <pt x="605" y="449" on="1"/>
        <pt x="615" y="449" on="0"/>
        <pt x="608" y="444" on="1"/>
        <pt x="584" y="428" on="0"/>
        <pt x="543" y="423" on="1"/>
        <pt x="527" y="421" on="0"/>
        <pt x="493" y="419" on="1"/>
        <pt x="326" y="84" on="1"/>
        <pt x="299" y="30" on="0"/>
        <pt x="299" y="11" on="1"/>
        <pt x="299" y="3" on="0"/>
        <pt x="311" y="3" on="1"/>
        <pt x="319" y="3" on="0"/>
        <pt x="342" y="11" on="0"/>
        <pt x="343" y="11" on="1"/>
        <pt x="346" y="11" on="0"/>
        <pt x="346" y="9" on="1"/>
        <pt x="346" y="2" on="0"/>
        <pt x="289" y="-14" on="0"/>
        <pt x="259" y="-14" on="1"/>
        <pt x="246" y="-14" on="0"/>
        <pt x="246" y="-3" on="1"/>
        <pt x="246" y="5" on="0"/>
        <pt x="254" y="26" on="0"/>
        <pt x="267" y="49" on="0"/>
        <pt x="294" y="99" on="0"/>
        <pt x="307" y="124" on="1"/>
        <pt x="412" y="330" on="0"/>
        <pt x="448" y="417" on="1"/>
        <pt x="417" y="416" on="0"/>
        <pt x="301" y="414" on="0"/>
        <pt x="295" y="414" on="1"/>
        <pt x="261" y="333" on="0"/>
        <pt x="119" y="61" on="0"/>
        <pt x="84" y="-1" on="1"/>
        <pt x="77" y="-14" on="0"/>
        <pt x="23" y="-14" on="1"/>
        <pt x="16" y="-14" on="0"/>
        <pt x="16" y="-11" on="1"/>
        <pt x="16" y="-10" on="0"/>
        <pt x="24" y="-8" on="0"/>
        <pt x="36" y="1" on="0"/>
        <pt x="41" y="8" on="1"/>
        <pt x="92" y="86" on="0"/>
        <pt x="215" y="318" on="0"/>
        <pt x="254" y="412" on="1"/>
        <pt x="244" y="412" on="1"/>
        <pt x="210" y="410" on="0"/>
        <pt x="159" y="403" on="0"/>
        <pt x="135" y="394" on="0"/>
        <pt x="122" y="386" on="0"/>
        <pt x="117" y="381" on="0"/>
      </contour>
    </TTGlyph>
    <TTGlyph name="Psi" xMin="113" yMin="-9" xMax="647" yMax="495">
      <contour>
        <pt x="217" y="443" on="1"/>
        <pt x="244" y="443" on="0"/>
        <pt x="271" y="415" on="0"/>
        <pt x="271" y="393" on="1"/>
        <pt x="271" y="374" on="0"/>
        <pt x="224" y="259" on="0"/>
        <pt x="224" y="230" on="1"/>
        <pt x="224" y="177" on="0"/>
        <pt x="279" y="161" on="1"/>
        <pt x="414" y="408" on="0"/>
        <pt x="414" y="422" on="1"/>
        <pt x="414" y="430" on="0"/>
        <pt x="399" y="434" on="1"/>
        <pt x="395" y="435" on="0"/>
        <pt x="382" y="437" on="0"/>
        <pt x="376" y="438" on="0"/>
        <pt x="376" y="439" on="1"/>
        <pt x="376" y="443" on="0"/>
        <pt x="384" y="443" on="1"/>
        <pt x="388" y="443" on="0"/>
        <pt x="426" y="441" on="0"/>
        <pt x="443" y="441" on="1"/>
        <pt x="455" y="441" on="0"/>
        <pt x="499" y="443" on="0"/>
        <pt x="505" y="443" on="1"/>
        <pt x="510" y="443" on="0"/>
        <pt x="510" y="439" on="1"/>
        <pt x="510" y="437" on="0"/>
        <pt x="491" y="432" on="0"/>
        <pt x="469" y="427" on="0"/>
        <pt x="467" y="424" on="1"/>
        <pt x="380" y="280" on="0"/>
        <pt x="317" y="157" on="1"/>
        <pt x="373" y="162" on="0"/>
        <pt x="515" y="259" on="0"/>
        <pt x="579" y="364" on="1"/>
        <pt x="613" y="420" on="0"/>
        <pt x="614" y="447" on="1"/>
        <pt x="614" y="461" on="0"/>
        <pt x="596" y="474" on="0"/>
        <pt x="587" y="474" on="1"/>
        <pt x="584" y="474" on="0"/>
        <pt x="581" y="473" on="1"/>
        <pt x="578" y="472" on="1"/>
        <pt x="576" y="472" on="0"/>
        <pt x="576" y="476" on="0"/>
        <pt x="581" y="480" on="1"/>
        <pt x="600" y="495" on="0"/>
        <pt x="616" y="495" on="1"/>
        <pt x="622" y="495" on="0"/>
        <pt x="634" y="491" on="0"/>
        <pt x="647" y="477" on="0"/>
        <pt x="647" y="465" on="1"/>
        <pt x="647" y="439" on="0"/>
        <pt x="612" y="380" on="1"/>
        <pt x="547" y="274" on="0"/>
        <pt x="383" y="143" on="0"/>
        <pt x="306" y="135" on="1"/>
        <pt x="280" y="84" on="1"/>
        <pt x="270" y="64" on="0"/>
        <pt x="249" y="20" on="0"/>
        <pt x="247" y="10" on="0"/>
        <pt x="227" y="-3" on="0"/>
        <pt x="214" y="-4" on="0"/>
        <pt x="190" y="-5" on="1"/>
        <pt x="183" y="-5" on="0"/>
        <pt x="166" y="-7" on="0"/>
        <pt x="156" y="-9" on="0"/>
        <pt x="155" y="-9" on="1"/>
        <pt x="147" y="-9" on="0"/>
        <pt x="147" y="-5" on="1"/>
        <pt x="147" y="0" on="0"/>
        <pt x="153" y="0" on="1"/>
        <pt x="180" y="3" on="0"/>
        <pt x="218" y="48" on="0"/>
        <pt x="265" y="135" on="1"/>
        <pt x="231" y="139" on="0"/>
        <pt x="178" y="189" on="0"/>
        <pt x="178" y="222" on="1"/>
        <pt x="178" y="250" on="0"/>
        <pt x="228" y="366" on="0"/>
        <pt x="228" y="387" on="1"/>
        <pt x="228" y="425" on="0"/>
        <pt x="197" y="425" on="1"/>
        <pt x="161" y="425" on="0"/>
        <pt x="127" y="391" on="1"/>
        <pt x="117" y="381" on="0"/>
        <pt x="116" y="381" on="1"/>
        <pt x="113" y="381" on="0"/>
        <pt x="113" y="387" on="0"/>
        <pt x="124" y="398" on="1"/>
        <pt x="168" y="443" on="0"/>
      </contour>
    </TTGlyph>
    <TTGlyph name="Q" xMin="77" yMin="-186" xMax="663" yMax="444">
      <contour>
        <pt x="477" y="-186" on="1"/>
        <pt x="354" y="-186" on="0"/>
        <pt x="292" y="1" on="1"/>
        <pt x="253" y="-12" on="0"/>
        <pt x="223" y="-12" on="1"/>
        <pt x="164" y="-12" on="0"/>
        <pt x="77" y="61" on="0"/>
        <pt x="77" y="124" on="1"/>
        <pt x="77" y="172" on="0"/>
        <pt x="126" y="285" on="0"/>
        <pt x="159" y="326" on="1"/>
        <pt x="204" y="381" on="0"/>
        <pt x="322" y="443" on="0"/>
        <pt x="384" y="443" on="1"/>
        <pt x="411" y="443" on="0"/>
        <pt x="468" y="408" on="0"/>
        <pt x="468" y="389" on="1"/>
        <pt x="468" y="387" on="0"/>
        <pt x="465" y="381" on="0"/>
        <pt x="459" y="372" on="0"/>
        <pt x="457" y="368" on="1"/>
        <pt x="446" y="348" on="0"/>
        <pt x="445" y="348" on="1"/>
        <pt x="440" y="348" on="0"/>
        <pt x="440" y="353" on="1"/>
        <pt x="440" y="392" on="0"/>
        <pt x="390" y="426" on="0"/>
        <pt x="363" y="426" on="1"/>
        <pt x="251" y="426" on="0"/>
        <pt x="178" y="317" on="1"/>
        <pt x="118" y="228" on="0"/>
        <pt x="118" y="153" on="1"/>
        <pt x="118" y="93" on="0"/>
        <pt x="183" y="18" on="0"/>
        <pt x="236" y="18" on="1"/>
        <pt x="261" y="18" on="0"/>
        <pt x="285" y="24" on="1"/>
        <pt x="263" y="109" on="0"/>
        <pt x="263" y="186" on="1"/>
        <pt x="263" y="189" on="0"/>
        <pt x="292" y="206" on="0"/>
        <pt x="298" y="206" on="1"/>
        <pt x="301" y="206" on="0"/>
        <pt x="301" y="204" on="1"/>
        <pt x="298" y="172" on="0"/>
        <pt x="298" y="144" on="1"/>
        <pt x="298" y="84" on="0"/>
        <pt x="309" y="32" on="1"/>
        <pt x="389" y="61" on="0"/>
        <pt x="504" y="212" on="0"/>
        <pt x="504" y="297" on="1"/>
        <pt x="504" y="309" on="0"/>
        <pt x="500" y="336" on="0"/>
        <pt x="495" y="358" on="0"/>
        <pt x="488" y="380" on="0"/>
        <pt x="480" y="397" on="0"/>
        <pt x="475" y="410" on="0"/>
        <pt x="473" y="414" on="1"/>
        <pt x="471" y="417" on="1"/>
        <pt x="471" y="420" on="0"/>
        <pt x="492" y="444" on="0"/>
        <pt x="497" y="444" on="1"/>
        <pt x="512" y="444" on="0"/>
        <pt x="535" y="355" on="0"/>
        <pt x="535" y="315" on="1"/>
        <pt x="535" y="217" on="0"/>
        <pt x="403" y="48" on="0"/>
        <pt x="315" y="10" on="1"/>
        <pt x="333" y="-62" on="0"/>
        <pt x="433" y="-160" on="0"/>
        <pt x="501" y="-160" on="1"/>
        <pt x="558" y="-160" on="0"/>
        <pt x="643" y="-95" on="0"/>
        <pt x="649" y="-67" on="1"/>
        <pt x="651" y="-58" on="0"/>
        <pt x="656" y="-58" on="1"/>
        <pt x="663" y="-58" on="0"/>
        <pt x="663" y="-64" on="1"/>
        <pt x="663" y="-67" on="0"/>
        <pt x="650" y="-92" on="0"/>
        <pt x="620" y="-129" on="0"/>
        <pt x="579" y="-162" on="0"/>
        <pt x="514" y="-186" on="0"/>
      </contour>
    </TTGlyph>
    <TTGlyph name="R" xMin="41" yMin="-133" xMax="528" yMax="443">
      <contour>
        <pt x="158" y="207" on="1"/>
        <pt x="163" y="217" on="1"/>
        <pt x="153" y="215" on="1"/>
      </contour>
      <contour>
        <pt x="215" y="239" on="1"/>
        <pt x="242" y="245" on="0"/>
        <pt x="300" y="261" on="0"/>
        <pt x="390" y="294" on="0"/>
        <pt x="447" y="342" on="0"/>
        <pt x="447" y="369" on="1"/>
        <pt x="447" y="390" on="0"/>
        <pt x="416" y="423" on="0"/>
        <pt x="389" y="423" on="1"/>
        <pt x="339" y="423" on="0"/>
        <pt x="265" y="334" on="0"/>
      </contour>
      <contour>
        <pt x="46" y="-16" on="1"/>
        <pt x="41" y="-16" on="0"/>
        <pt x="41" y="-13" on="1"/>
        <pt x="41" y="-12" on="0"/>
        <pt x="49" y="1" on="0"/>
        <pt x="60" y="16" on="0"/>
        <pt x="61" y="19" on="1"/>
        <pt x="95" y="81" on="0"/>
        <pt x="137" y="166" on="0"/>
        <pt x="149" y="189" on="1"/>
        <pt x="135" y="217" on="0"/>
        <pt x="135" y="222" on="1"/>
        <pt x="135" y="224" on="0"/>
        <pt x="170" y="230" on="1"/>
        <pt x="204" y="295" on="0"/>
        <pt x="226" y="327" on="1"/>
        <pt x="259" y="380" on="0"/>
        <pt x="375" y="443" on="0"/>
        <pt x="424" y="443" on="1"/>
        <pt x="451" y="443" on="0"/>
        <pt x="484" y="415" on="0"/>
        <pt x="484" y="389" on="1"/>
        <pt x="484" y="285" on="0"/>
        <pt x="208" y="226" on="1"/>
        <pt x="180" y="172" on="1"/>
        <pt x="291" y="-11" on="1"/>
        <pt x="323" y="-69" on="0"/>
        <pt x="382" y="-122" on="0"/>
        <pt x="421" y="-122" on="1"/>
        <pt x="475" y="-122" on="0"/>
        <pt x="505" y="-79" on="1"/>
        <pt x="512" y="-72" on="0"/>
        <pt x="521" y="-72" on="1"/>
        <pt x="528" y="-72" on="0"/>
        <pt x="528" y="-76" on="1"/>
        <pt x="528" y="-79" on="1"/>
        <pt x="470" y="-133" on="0"/>
        <pt x="404" y="-133" on="1"/>
        <pt x="333" y="-133" on="0"/>
        <pt x="297" y="-79" on="1"/>
        <pt x="275" y="-46" on="0"/>
        <pt x="180" y="132" on="0"/>
        <pt x="169" y="152" on="1"/>
        <pt x="158" y="128" on="0"/>
        <pt x="132" y="66" on="0"/>
        <pt x="111" y="10" on="0"/>
        <pt x="108" y="2" on="1"/>
        <pt x="106" y="-3" on="0"/>
        <pt x="93" y="-5" on="0"/>
        <pt x="70" y="-5" on="0"/>
        <pt x="60" y="-9" on="1"/>
        <pt x="55" y="-11" on="0"/>
        <pt x="48" y="-16" on="0"/>
      </contour>
    </TTGlyph>
    <TTGlyph name="Racute" xMin="41" yMin="-133" xMax="543" yMax="580">
      <component glyphName="acutecomb" x="292" y="226" flags="0x1004"/>
      <component glyphName="R" x="0" y="0" flags="0x1204"/>
    </TTGlyph>
    <TTGlyph name="Rcaron" xMin="41" yMin="-133" xMax="577" yMax="597">
      <component glyphName="uni030C" x="269" y="226" flags="0x1004"/>
      <component glyphName="R" x="0" y="0" flags="0x1204"/>
    </TTGlyph>
    <TTGlyph name="Rcommaaccent" xMin="41" yMin="-195" xMax="528" yMax="443">
      <component glyphName="uni0326" x="70" y="-50" flags="0x1004"/>
      <component glyphName="R" x="0" y="0" flags="0x1204"/>
    </TTGlyph>
    <TTGlyph name="Rho" xMin="33" yMin="-16" xMax="507" yMax="443">
      <component glyphName="P" x="0" y="0" flags="0x1004"/>
    </TTGlyph>
    <TTGlyph name="S" xMin="38" yMin="-17" xMax="450" yMax="443">
      <contour>
        <pt x="38" y="68" on="1"/>
        <pt x="38" y="71" on="0"/>
        <pt x="50" y="83" on="1"/>
        <pt x="57" y="90" on="0"/>
        <pt x="71" y="107" on="0"/>
        <pt x="79" y="117" on="0"/>
        <pt x="80" y="117" on="1"/>
        <pt x="83" y="117" on="0"/>
        <pt x="83" y="115" on="1"/>
        <pt x="78" y="108" on="1"/>
        <pt x="74" y="100" on="0"/>
        <pt x="74" y="95" on="1"/>
        <pt x="74" y="47" on="0"/>
        <pt x="144" y="4" on="0"/>
        <pt x="182" y="4" on="1"/>
        <pt x="240" y="4" on="0"/>
        <pt x="312" y="77" on="0"/>
        <pt x="312" y="114" on="1"/>
        <pt x="312" y="140" on="0"/>
        <pt x="280" y="199" on="0"/>
        <pt x="241" y="241" on="0"/>
        <pt x="209" y="296" on="0"/>
        <pt x="209" y="319" on="1"/>
        <pt x="209" y="368" on="0"/>
        <pt x="318" y="443" on="0"/>
        <pt x="373" y="443" on="1"/>
        <pt x="398" y="443" on="0"/>
        <pt x="436" y="420" on="0"/>
        <pt x="450" y="399" on="0"/>
        <pt x="450" y="395" on="1"/>
        <pt x="450" y="393" on="0"/>
        <pt x="443" y="387" on="0"/>
        <pt x="430" y="378" on="0"/>
        <pt x="427" y="376" on="1"/>
        <pt x="419" y="370" on="0"/>
        <pt x="418" y="370" on="1"/>
        <pt x="415" y="370" on="0"/>
        <pt x="415" y="373" on="1"/>
        <pt x="415" y="391" on="0"/>
        <pt x="373" y="421" on="0"/>
        <pt x="341" y="421" on="1"/>
        <pt x="296" y="421" on="0"/>
        <pt x="244" y="371" on="0"/>
        <pt x="244" y="340" on="1"/>
        <pt x="244" y="318" on="0"/>
        <pt x="278" y="266" on="0"/>
        <pt x="319" y="224" on="0"/>
        <pt x="353" y="168" on="0"/>
        <pt x="353" y="143" on="1"/>
        <pt x="353" y="82" on="0"/>
        <pt x="217" y="-17" on="0"/>
        <pt x="148" y="-17" on="1"/>
        <pt x="92" y="-17" on="0"/>
        <pt x="38" y="37" on="0"/>
      </contour>
    </TTGlyph>
    <TTGlyph name="Sacute" xMin="38" yMin="-17" xMax="486" yMax="580">
      <component glyphName="acutecomb" x="235" y="226" flags="0x1004"/>
      <component glyphName="S" x="0" y="0" flags="0x1204"/>
    </TTGlyph>
    <TTGlyph name="Scaron" xMin="38" yMin="-17" xMax="520" yMax="597">
      <component glyphName="uni030C" x="212" y="226" flags="0x1004"/>
      <component glyphName="S" x="0" y="0" flags="0x1204"/>
    </TTGlyph>
    <TTGlyph name="Scedilla" xMin="38" yMin="-145" xMax="450" yMax="443">
      <component glyphName="uni0327" x="70" y="0" flags="0x1004"/>
      <component glyphName="S" x="0" y="0" flags="0x1204"/>
    </TTGlyph>
    <TTGlyph name="Scircumflex" xMin="38" yMin="-17" xMax="474" yMax="583">
      <component glyphName="uni0302" x="212" y="226" flags="0x1004"/>
      <component glyphName="S" x="0" y="0" flags="0x1204"/>
    </TTGlyph>
    <TTGlyph name="Scommaaccent" xMin="38" yMin="-195" xMax="450" yMax="443">
      <component glyphName="uni0326" x="44" y="-50" flags="0x1004"/>
      <component glyphName="S" x="0" y="0" flags="0x1204"/>
    </TTGlyph>
    <TTGlyph name="Sigma" xMin="12" yMin="-14" xMax="565" yMax="443">
      <contour>
        <pt x="16" y="-12" on="1"/>
        <pt x="12" y="-12" on="0"/>
        <pt x="12" y="-8" on="1"/>
        <pt x="12" y="0" on="0"/>
        <pt x="66" y="67" on="0"/>
        <pt x="168" y="169" on="0"/>
        <pt x="222" y="209" on="1"/>
        <pt x="246" y="227" on="0"/>
        <pt x="246" y="235" on="1"/>
        <pt x="246" y="237" on="0"/>
        <pt x="231" y="293" on="0"/>
        <pt x="216" y="376" on="0"/>
        <pt x="216" y="411" on="1"/>
        <pt x="216" y="414" on="0"/>
        <pt x="220" y="420" on="0"/>
        <pt x="224" y="423" on="0"/>
        <pt x="233" y="429" on="0"/>
        <pt x="234" y="430" on="1"/>
        <pt x="249" y="443" on="0"/>
        <pt x="258" y="443" on="1"/>
        <pt x="556" y="443" on="1"/>
        <pt x="565" y="443" on="0"/>
        <pt x="565" y="437" on="0"/>
        <pt x="561" y="430" on="0"/>
        <pt x="553" y="418" on="0"/>
        <pt x="550" y="412" on="1"/>
        <pt x="543" y="400" on="0"/>
        <pt x="529" y="369" on="0"/>
        <pt x="523" y="360" on="0"/>
        <pt x="517" y="357" on="1"/>
        <pt x="512" y="354" on="0"/>
        <pt x="501" y="343" on="0"/>
        <pt x="497" y="343" on="1"/>
        <pt x="495" y="343" on="0"/>
        <pt x="495" y="346" on="1"/>
        <pt x="495" y="347" on="0"/>
        <pt x="506" y="367" on="0"/>
        <pt x="518" y="395" on="0"/>
        <pt x="518" y="407" on="1"/>
        <pt x="518" y="420" on="0"/>
        <pt x="486" y="420" on="1"/>
        <pt x="261" y="420" on="0"/>
        <pt x="261" y="413" on="1"/>
        <pt x="261" y="399" on="1"/>
        <pt x="261" y="368" on="0"/>
        <pt x="267" y="315" on="0"/>
        <pt x="274" y="283" on="0"/>
        <pt x="282" y="261" on="0"/>
        <pt x="288" y="249" on="0"/>
        <pt x="288" y="248" on="1"/>
        <pt x="288" y="246" on="0"/>
        <pt x="285" y="241" on="0"/>
        <pt x="278" y="236" on="0"/>
        <pt x="272" y="231" on="0"/>
        <pt x="258" y="222" on="0"/>
        <pt x="253" y="219" on="1"/>
        <pt x="116" y="124" on="0"/>
        <pt x="46" y="18" on="1"/>
        <pt x="123" y="29" on="0"/>
        <pt x="155" y="29" on="1"/>
        <pt x="190" y="29" on="0"/>
        <pt x="280" y="5" on="0"/>
        <pt x="342" y="5" on="0"/>
        <pt x="385" y="23" on="0"/>
        <pt x="401" y="52" on="0"/>
        <pt x="406" y="70" on="0"/>
        <pt x="406" y="79" on="1"/>
        <pt x="406" y="87" on="0"/>
        <pt x="401" y="94" on="1"/>
        <pt x="396" y="101" on="1"/>
        <pt x="396" y="105" on="0"/>
        <pt x="421" y="118" on="0"/>
        <pt x="429" y="118" on="0"/>
        <pt x="439" y="107" on="0"/>
        <pt x="439" y="99" on="1"/>
        <pt x="439" y="59" on="0"/>
        <pt x="348" y="-14" on="0"/>
        <pt x="283" y="-14" on="1"/>
        <pt x="261" y="-14" on="0"/>
        <pt x="174" y="0" on="0"/>
        <pt x="152" y="0" on="1"/>
        <pt x="135" y="0" on="0"/>
        <pt x="24" y="-12" on="0"/>
      </contour>
    </TTGlyph>
    <TTGlyph name="T" xMin="71" yMin="-14" xMax="548" yMax="552">
      <contour>
        <pt x="143" y="-1" on="1"/>
        <pt x="132" y="-14" on="0"/>
        <pt x="78" y="-14" on="1"/>
        <pt x="71" y="-14" on="0"/>
        <pt x="71" y="-11" on="1"/>
        <pt x="71" y="-10" on="0"/>
        <pt x="78" y="-8" on="0"/>
        <pt x="91" y="1" on="0"/>
        <pt x="96" y="8" on="1"/>
        <pt x="148" y="77" on="0"/>
        <pt x="289" y="328" on="0"/>
        <pt x="318" y="414" on="1"/>
        <pt x="296" y="414" on="0"/>
        <pt x="244" y="412" on="1"/>
        <pt x="210" y="410" on="0"/>
        <pt x="159" y="403" on="0"/>
        <pt x="135" y="394" on="0"/>
        <pt x="122" y="386" on="0"/>
        <pt x="117" y="381" on="0"/>
        <pt x="116" y="381" on="1"/>
        <pt x="113" y="381" on="0"/>
        <pt x="113" y="387" on="0"/>
        <pt x="124" y="398" on="1"/>
        <pt x="145" y="419" on="0"/>
        <pt x="182" y="426" on="1"/>
        <pt x="221" y="433" on="0"/>
        <pt x="325" y="435" on="1"/>
        <pt x="333" y="465" on="0"/>
        <pt x="333" y="483" on="1"/>
        <pt x="333" y="544" on="0"/>
        <pt x="275" y="544" on="1"/>
        <pt x="248" y="544" on="0"/>
        <pt x="221" y="531" on="1"/>
        <pt x="220" y="531" on="0"/>
        <pt x="200" y="516" on="0"/>
        <pt x="196" y="516" on="1"/>
        <pt x="191" y="516" on="0"/>
        <pt x="191" y="519" on="1"/>
        <pt x="191" y="526" on="0"/>
        <pt x="216" y="537" on="1"/>
        <pt x="248" y="552" on="0"/>
        <pt x="280" y="552" on="1"/>
        <pt x="327" y="552" on="0"/>
        <pt x="376" y="506" on="0"/>
        <pt x="376" y="466" on="1"/>
        <pt x="376" y="456" on="0"/>
        <pt x="370" y="436" on="1"/>
        <pt x="457" y="438" on="0"/>
        <pt x="518" y="445" on="1"/>
        <pt x="528" y="446" on="0"/>
        <pt x="541" y="448" on="0"/>
        <pt x="544" y="449" on="0"/>
        <pt x="545" y="449" on="1"/>
        <pt x="555" y="449" on="0"/>
        <pt x="548" y="444" on="1"/>
        <pt x="524" y="428" on="0"/>
        <pt x="483" y="423" on="1"/>
        <pt x="428" y="417" on="0"/>
        <pt x="363" y="415" on="1"/>
        <pt x="333" y="335" on="0"/>
        <pt x="170" y="39" on="0"/>
      </contour>
    </TTGlyph>
    <TTGlyph name="Tau" xMin="71" yMin="-14" xMax="548" yMax="552">
      <component glyphName="T" x="0" y="0" flags="0x1004"/>
    </TTGlyph>
    <TTGlyph name="Tbar" xMin="71" yMin="-14" xMax="548" yMax="552">
      <contour>
        <pt x="426" y="348" on="1"/>
        <pt x="428" y="348" on="0"/>
        <pt x="428" y="346" on="1"/>
        <pt x="428" y="343" on="0"/>
        <pt x="410" y="333" on="1"/>
        <pt x="396" y="324" on="0"/>
        <pt x="392" y="324" on="1"/>
        <pt x="367" y="323" on="0"/>
        <pt x="240" y="322" on="0"/>
        <pt x="192" y="320" on="1"/>
        <pt x="190" y="320" on="0"/>
        <pt x="190" y="321" on="1"/>
        <pt x="190" y="325" on="0"/>
        <pt x="222" y="344" on="0"/>
        <pt x="228" y="344" on="1"/>
        <pt x="316" y="348" on="0"/>
      </contour>
      <contour>
        <pt x="143" y="-1" on="1"/>
        <pt x="132" y="-14" on="0"/>
        <pt x="78" y="-14" on="1"/>
        <pt x="71" y="-14" on="0"/>
        <pt x="71" y="-11" on="1"/>
        <pt x="71" y="-10" on="0"/>
        <pt x="78" y="-8" on="0"/>
        <pt x="91" y="1" on="0"/>
        <pt x="96" y="8" on="1"/>
        <pt x="148" y="77" on="0"/>
        <pt x="289" y="328" on="0"/>
        <pt x="318" y="414" on="1"/>
        <pt x="296" y="414" on="0"/>
        <pt x="244" y="412" on="1"/>
        <pt x="210" y="410" on="0"/>
        <pt x="159" y="403" on="0"/>
        <pt x="135" y="394" on="0"/>
        <pt x="122" y="386" on="0"/>
        <pt x="117" y="381" on="0"/>
        <pt x="116" y="381" on="1"/>
        <pt x="113" y="381" on="0"/>
        <pt x="113" y="387" on="0"/>
        <pt x="124" y="398" on="1"/>
        <pt x="145" y="419" on="0"/>
        <pt x="182" y="426" on="1"/>
        <pt x="221" y="433" on="0"/>
        <pt x="325" y="435" on="1"/>
        <pt x="333" y="465" on="0"/>
        <pt x="333" y="483" on="1"/>
        <pt x="333" y="544" on="0"/>
        <pt x="275" y="544" on="1"/>
        <pt x="248" y="544" on="0"/>
        <pt x="221" y="531" on="1"/>
        <pt x="220" y="531" on="0"/>
        <pt x="200" y="516" on="0"/>
        <pt x="196" y="516" on="1"/>
        <pt x="191" y="516" on="0"/>
        <pt x="191" y="519" on="1"/>
        <pt x="191" y="526" on="0"/>
        <pt x="216" y="537" on="1"/>
        <pt x="248" y="552" on="0"/>
        <pt x="280" y="552" on="1"/>
        <pt x="327" y="552" on="0"/>
        <pt x="376" y="506" on="0"/>
        <pt x="376" y="466" on="1"/>
        <pt x="376" y="456" on="0"/>
        <pt x="370" y="436" on="1"/>
        <pt x="457" y="438" on="0"/>
        <pt x="518" y="445" on="1"/>
        <pt x="528" y="446" on="0"/>
        <pt x="541" y="448" on="0"/>
        <pt x="544" y="449" on="0"/>
        <pt x="545" y="449" on="1"/>
        <pt x="555" y="449" on="0"/>
        <pt x="548" y="444" on="1"/>
        <pt x="524" y="428" on="0"/>
        <pt x="483" y="423" on="1"/>
        <pt x="428" y="417" on="0"/>
        <pt x="363" y="415" on="1"/>
        <pt x="333" y="335" on="0"/>
        <pt x="170" y="39" on="0"/>
      </contour>
    </TTGlyph>
    <TTGlyph name="Tcaron" xMin="71" yMin="-14" xMax="548" yMax="627">
      <component glyphName="uni030C" x="192" y="256" flags="0x1004"/>
      <component glyphName="T" x="0" y="0" flags="0x1204"/>
    </TTGlyph>
    <TTGlyph name="Tcommaaccent" xMin="44" yMin="-145" xMax="548" yMax="552">
      <component glyphName="uni0327" x="33" y="0" flags="0x1004"/>
      <component glyphName="T" x="0" y="0" flags="0x1204"/>
    </TTGlyph>
    <TTGlyph name="Theta" xMin="77" yMin="-12" xMax="535" yMax="444">
      <component glyphName="Omicron" x="0" y="0" flags="0x1004"/>
      <component glyphName="hyphen" x="113" y="46" flags="0x1004"/>
    </TTGlyph>
    <TTGlyph name="Thorn" xMin="43" yMin="-13" xMax="464" yMax="443">
      <contour>
        <pt x="140" y="97" on="1"/>
        <pt x="422" y="171" on="0"/>
        <pt x="422" y="274" on="1"/>
        <pt x="422" y="296" on="0"/>
        <pt x="393" y="329" on="0"/>
        <pt x="367" y="329" on="1"/>
        <pt x="326" y="329" on="0"/>
        <pt x="230" y="242" on="0"/>
        <pt x="169" y="151" on="0"/>
      </contour>
      <contour>
        <pt x="211" y="238" on="1"/>
        <pt x="305" y="357" on="0"/>
        <pt x="395" y="357" on="1"/>
        <pt x="426" y="357" on="0"/>
        <pt x="464" y="324" on="0"/>
        <pt x="464" y="294" on="1"/>
        <pt x="464" y="273" on="0"/>
        <pt x="445" y="232" on="0"/>
        <pt x="408" y="198" on="0"/>
        <pt x="367" y="168" on="0"/>
        <pt x="311" y="141" on="0"/>
        <pt x="266" y="122" on="0"/>
        <pt x="208" y="103" on="0"/>
        <pt x="176" y="93" on="0"/>
        <pt x="134" y="81" on="0"/>
        <pt x="133" y="81" on="1"/>
        <pt x="112" y="41" on="0"/>
        <pt x="99" y="3" on="1"/>
        <pt x="97" y="-3" on="0"/>
        <pt x="90" y="-6" on="0"/>
        <pt x="71" y="-7" on="1"/>
        <pt x="62" y="-8" on="0"/>
        <pt x="52" y="-11" on="0"/>
        <pt x="50" y="-12" on="1"/>
        <pt x="48" y="-13" on="1"/>
        <pt x="43" y="-13" on="0"/>
        <pt x="43" y="-10" on="1"/>
        <pt x="43" y="-9" on="0"/>
        <pt x="44" y="-7" on="0"/>
        <pt x="47" y="-2" on="0"/>
        <pt x="50" y="3" on="0"/>
        <pt x="55" y="12" on="0"/>
        <pt x="58" y="17" on="1"/>
        <pt x="142" y="176" on="0"/>
        <pt x="225" y="343" on="0"/>
        <pt x="237" y="377" on="0"/>
        <pt x="237" y="389" on="1"/>
        <pt x="237" y="425" on="0"/>
        <pt x="200" y="425" on="1"/>
        <pt x="161" y="425" on="0"/>
        <pt x="127" y="391" on="1"/>
        <pt x="117" y="381" on="0"/>
        <pt x="116" y="381" on="1"/>
        <pt x="113" y="381" on="0"/>
        <pt x="113" y="387" on="0"/>
        <pt x="124" y="398" on="1"/>
        <pt x="168" y="443" on="0"/>
        <pt x="217" y="443" on="1"/>
        <pt x="247" y="443" on="0"/>
        <pt x="278" y="415" on="0"/>
        <pt x="278" y="393" on="1"/>
        <pt x="278" y="350" on="0"/>
      </contour>
    </TTGlyph>
    <TTGlyph name="U" xMin="101" yMin="-8" xMax="598" yMax="443">
      <contour>
        <pt x="291" y="394" on="1"/>
        <pt x="291" y="364" on="0"/>
        <pt x="148" y="118" on="0"/>
        <pt x="148" y="79" on="1"/>
        <pt x="148" y="48" on="0"/>
        <pt x="180" y="16" on="0"/>
        <pt x="206" y="16" on="1"/>
        <pt x="287" y="16" on="0"/>
        <pt x="399" y="151" on="1"/>
        <pt x="450" y="261" on="0"/>
        <pt x="504" y="356" on="0"/>
        <pt x="539" y="400" on="1"/>
        <pt x="563" y="429" on="0"/>
        <pt x="580" y="429" on="1"/>
        <pt x="586" y="429" on="0"/>
        <pt x="586" y="425" on="1"/>
        <pt x="586" y="404" on="0"/>
        <pt x="474" y="232" on="1"/>
        <pt x="452" y="198" on="0"/>
        <pt x="398" y="69" on="0"/>
        <pt x="398" y="36" on="1"/>
        <pt x="398" y="15" on="0"/>
        <pt x="428" y="15" on="1"/>
        <pt x="470" y="15" on="0"/>
        <pt x="539" y="71" on="1"/>
        <pt x="578" y="103" on="0"/>
        <pt x="592" y="124" on="1"/>
        <pt x="594" y="127" on="0"/>
        <pt x="598" y="127" on="0"/>
        <pt x="598" y="125" on="1"/>
        <pt x="598" y="124" on="0"/>
        <pt x="597" y="122" on="1"/>
        <pt x="544" y="57" on="0"/>
        <pt x="472" y="18" on="1"/>
        <pt x="431" y="-4" on="0"/>
        <pt x="396" y="-4" on="1"/>
        <pt x="360" y="-4" on="0"/>
        <pt x="360" y="32" on="1"/>
        <pt x="360" y="58" on="0"/>
        <pt x="383" y="110" on="1"/>
        <pt x="344" y="73" on="0"/>
        <pt x="297" y="33" on="0"/>
        <pt x="218" y="-8" on="0"/>
        <pt x="183" y="-8" on="1"/>
        <pt x="146" y="-8" on="0"/>
        <pt x="101" y="34" on="0"/>
        <pt x="101" y="70" on="1"/>
        <pt x="101" y="103" on="0"/>
        <pt x="175" y="246" on="0"/>
        <pt x="249" y="374" on="0"/>
        <pt x="249" y="390" on="1"/>
        <pt x="249" y="429" on="0"/>
        <pt x="209" y="429" on="1"/>
        <pt x="165" y="429" on="0"/>
        <pt x="127" y="391" on="1"/>
        <pt x="117" y="381" on="0"/>
        <pt x="116" y="381" on="1"/>
        <pt x="113" y="381" on="0"/>
        <pt x="113" y="387" on="0"/>
        <pt x="124" y="398" on="1"/>
        <pt x="168" y="443" on="0"/>
        <pt x="227" y="443" on="1"/>
        <pt x="257" y="443" on="0"/>
        <pt x="291" y="415" on="0"/>
      </contour>
    </TTGlyph>
    <TTGlyph name="Uacute" xMin="101" yMin="-8" xMax="598" yMax="580">
      <component glyphName="acutecomb" x="276" y="226" flags="0x1004"/>
      <component glyphName="U" x="0" y="0" flags="0x1204"/>
    </TTGlyph>
    <TTGlyph name="Ubreve" xMin="101" yMin="-8" xMax="598" yMax="588">
      <component glyphName="uni0306" x="239" y="226" flags="0x1004"/>
      <component glyphName="U" x="0" y="0" flags="0x1204"/>
    </TTGlyph>
    <TTGlyph name="Ucircumflex" xMin="101" yMin="-8" xMax="598" yMax="583">
      <component glyphName="uni0302" x="253" y="226" flags="0x1004"/>
      <component glyphName="U" x="0" y="0" flags="0x1204"/>
    </TTGlyph>
    <TTGlyph name="Udieresis" xMin="101" yMin="-8" xMax="598" yMax="562">
      <component glyphName="uni0308" x="253" y="226" flags="0x1004"/>
      <component glyphName="U" x="0" y="0" flags="0x1204"/>
    </TTGlyph>
    <TTGlyph name="Ugrave" xMin="101" yMin="-8" xMax="598" yMax="621">
      <component glyphName="gravecomb" x="253" y="226" flags="0x1004"/>
      <component glyphName="U" x="0" y="0" flags="0x1204"/>
    </TTGlyph>
    <TTGlyph name="Uhorn" xMin="101" yMin="-8" xMax="638" yMax="456">
      <contour>
        <pt x="566" y="394" on="1"/>
        <pt x="585" y="420" on="1"/>
        <pt x="632" y="428" on="0"/>
        <pt x="632" y="452" on="1"/>
        <pt x="632" y="456" on="0"/>
        <pt x="638" y="456" on="0"/>
        <pt x="638" y="452" on="1"/>
        <pt x="638" y="443" on="0"/>
        <pt x="630" y="422" on="0"/>
        <pt x="595" y="397" on="0"/>
      </contour>
      <contour>
        <pt x="291" y="394" on="1"/>
        <pt x="291" y="364" on="0"/>
        <pt x="148" y="118" on="0"/>
        <pt x="148" y="79" on="1"/>
        <pt x="148" y="48" on="0"/>
        <pt x="180" y="16" on="0"/>
        <pt x="206" y="16" on="1"/>
        <pt x="287" y="16" on="0"/>
        <pt x="399" y="151" on="1"/>
        <pt x="450" y="261" on="0"/>
        <pt x="504" y="356" on="0"/>
        <pt x="539" y="400" on="1"/>
        <pt x="563" y="429" on="0"/>
        <pt x="580" y="429" on="1"/>
        <pt x="586" y="429" on="0"/>
        <pt x="586" y="425" on="1"/>
        <pt x="586" y="404" on="0"/>
        <pt x="474" y="232" on="1"/>
        <pt x="452" y="198" on="0"/>
        <pt x="398" y="69" on="0"/>
        <pt x="398" y="36" on="1"/>
        <pt x="398" y="15" on="0"/>
        <pt x="428" y="15" on="1"/>
        <pt x="470" y="15" on="0"/>
        <pt x="539" y="71" on="1"/>
        <pt x="578" y="103" on="0"/>
        <pt x="592" y="124" on="1"/>
        <pt x="594" y="127" on="0"/>
        <pt x="598" y="127" on="0"/>
        <pt x="598" y="125" on="1"/>
        <pt x="598" y="124" on="0"/>
        <pt x="597" y="122" on="1"/>
        <pt x="544" y="57" on="0"/>
        <pt x="472" y="18" on="1"/>
        <pt x="431" y="-4" on="0"/>
        <pt x="396" y="-4" on="1"/>
        <pt x="360" y="-4" on="0"/>
        <pt x="360" y="32" on="1"/>
        <pt x="360" y="58" on="0"/>
        <pt x="383" y="110" on="1"/>
        <pt x="344" y="73" on="0"/>
        <pt x="297" y="33" on="0"/>
        <pt x="218" y="-8" on="0"/>
        <pt x="183" y="-8" on="1"/>
        <pt x="146" y="-8" on="0"/>
        <pt x="101" y="34" on="0"/>
        <pt x="101" y="70" on="1"/>
        <pt x="101" y="103" on="0"/>
        <pt x="175" y="246" on="0"/>
        <pt x="249" y="374" on="0"/>
        <pt x="249" y="390" on="1"/>
        <pt x="249" y="429" on="0"/>
        <pt x="209" y="429" on="1"/>
        <pt x="165" y="429" on="0"/>
        <pt x="127" y="391" on="1"/>
        <pt x="117" y="381" on="0"/>
        <pt x="116" y="381" on="1"/>
        <pt x="113" y="381" on="0"/>
        <pt x="113" y="387" on="0"/>
        <pt x="124" y="398" on="1"/>
        <pt x="168" y="443" on="0"/>
        <pt x="227" y="443" on="1"/>
        <pt x="257" y="443" on="0"/>
        <pt x="291" y="415" on="0"/>
      </contour>
    </TTGlyph>
    <TTGlyph name="Uhungarumlaut" xMin="101" yMin="-8" xMax="598" yMax="586">
      <component glyphName="uni030B" x="239" y="226" flags="0x1004"/>
      <component glyphName="U" x="0" y="0" flags="0x1204"/>
    </TTGlyph>
    <TTGlyph name="Umacron" xMin="101" yMin="-8" xMax="598" yMax="541">
      <component glyphName="uni0304" x="239" y="226" flags="0x1004"/>
      <component glyphName="U" x="0" y="0" flags="0x1204"/>
    </TTGlyph>
    <TTGlyph name="Uogonek" xMin="86" yMin="-113" xMax="598" yMax="443">
      <component glyphName="uni0328" x="111" y="0" flags="0x1004"/>
      <component glyphName="U" x="0" y="0" flags="0x1204"/>
    </TTGlyph>
    <TTGlyph name="Upsilon" xMin="-112" yMin="-483" xMax="598" yMax="443">
      <component glyphName="Y" x="0" y="0" flags="0x1004"/>
    </TTGlyph>
    <TTGlyph name="Upsilon1" xMin="113" yMin="-16" xMax="626" yMax="443">
      <contour>
        <pt x="262" y="157" on="0"/>
        <pt x="238" y="113" on="0"/>
        <pt x="205" y="51" on="0"/>
        <pt x="185" y="12" on="0"/>
        <pt x="180" y="5" on="1"/>
        <pt x="177" y="0" on="0"/>
        <pt x="168" y="-3" on="0"/>
        <pt x="149" y="-5" on="0"/>
        <pt x="140" y="-9" on="1"/>
        <pt x="135" y="-11" on="0"/>
        <pt x="128" y="-16" on="0"/>
        <pt x="126" y="-16" on="1"/>
        <pt x="121" y="-16" on="0"/>
        <pt x="121" y="-13" on="1"/>
        <pt x="121" y="-12" on="0"/>
        <pt x="128" y="-2" on="0"/>
        <pt x="141" y="13" on="0"/>
        <pt x="145" y="20" on="1"/>
        <pt x="279" y="236" on="0"/>
        <pt x="279" y="333" on="1"/>
        <pt x="279" y="382" on="0"/>
        <pt x="228" y="424" on="0"/>
        <pt x="198" y="424" on="1"/>
        <pt x="160" y="424" on="0"/>
        <pt x="127" y="391" on="1"/>
        <pt x="117" y="381" on="0"/>
        <pt x="116" y="381" on="1"/>
        <pt x="113" y="381" on="0"/>
        <pt x="113" y="387" on="0"/>
        <pt x="124" y="398" on="1"/>
        <pt x="168" y="443" on="0"/>
        <pt x="217" y="443" on="1"/>
        <pt x="258" y="443" on="0"/>
        <pt x="315" y="390" on="0"/>
        <pt x="315" y="335" on="1"/>
        <pt x="315" y="283" on="0"/>
        <pt x="281" y="200" on="1"/>
        <pt x="310" y="235" on="1"/>
        <pt x="418" y="363" on="0"/>
        <pt x="504" y="412" on="1"/>
        <pt x="556" y="443" on="0"/>
        <pt x="596" y="443" on="1"/>
        <pt x="609" y="443" on="0"/>
        <pt x="626" y="425" on="0"/>
        <pt x="626" y="416" on="1"/>
        <pt x="626" y="398" on="0"/>
        <pt x="566" y="360" on="0"/>
        <pt x="554" y="360" on="1"/>
        <pt x="552" y="360" on="0"/>
        <pt x="552" y="362" on="1"/>
        <pt x="552" y="365" on="0"/>
        <pt x="586" y="382" on="0"/>
        <pt x="586" y="394" on="1"/>
        <pt x="586" y="402" on="0"/>
        <pt x="572" y="419" on="0"/>
        <pt x="560" y="419" on="1"/>
        <pt x="536" y="419" on="0"/>
        <pt x="508" y="405" on="1"/>
        <pt x="444" y="369" on="0"/>
        <pt x="327" y="234" on="1"/>
      </contour>
    </TTGlyph>
    <TTGlyph name="Upsilondieresis" xMin="-112" yMin="-483" xMax="598" yMax="562">
      <component glyphName="uni0308" x="253" y="226" flags="0x1004"/>
      <component glyphName="Upsilon" x="0" y="0" flags="0x1204"/>
    </TTGlyph>
    <TTGlyph name="Upsilontonos" xMin="-112" yMin="-483" xMax="598" yMax="511">
      <component glyphName="tonos" x="-92" y="126" flags="0x1004"/>
      <component glyphName="Upsilon" x="0" y="0" flags="0x1204"/>
    </TTGlyph>
    <TTGlyph name="Uring" xMin="101" yMin="-8" xMax="598" yMax="591">
      <component glyphName="uni030A" x="239" y="226" flags="0x1004"/>
      <component glyphName="U" x="0" y="0" flags="0x1204"/>
    </TTGlyph>
    <TTGlyph name="Utilde" xMin="101" yMin="-8" xMax="598" yMax="564">
      <component glyphName="tildecomb" x="239" y="226" flags="0x1004"/>
      <component glyphName="U" x="0" y="0" flags="0x1204"/>
    </TTGlyph>
    <TTGlyph name="V" xMin="92" yMin="-17" xMax="597" yMax="447">
      <contour>
        <pt x="181" y="81" on="1"/>
        <pt x="280" y="217" on="0"/>
        <pt x="424" y="338" on="1"/>
        <pt x="517" y="417" on="0"/>
        <pt x="579" y="443" on="1"/>
        <pt x="589" y="447" on="0"/>
        <pt x="592" y="447" on="1"/>
        <pt x="597" y="447" on="0"/>
        <pt x="597" y="444" on="1"/>
        <pt x="597" y="443" on="0"/>
        <pt x="581" y="435" on="1"/>
        <pt x="506" y="395" on="0"/>
        <pt x="428" y="325" on="1"/>
        <pt x="285" y="197" on="0"/>
        <pt x="186" y="59" on="1"/>
        <pt x="163" y="26" on="0"/>
        <pt x="153" y="9" on="1"/>
        <pt x="151" y="5" on="0"/>
        <pt x="127" y="-8" on="1"/>
        <pt x="106" y="-17" on="0"/>
        <pt x="101" y="-17" on="1"/>
        <pt x="92" y="-17" on="0"/>
        <pt x="92" y="-11" on="1"/>
        <pt x="92" y="-3" on="0"/>
        <pt x="109" y="31" on="0"/>
        <pt x="135" y="78" on="0"/>
        <pt x="139" y="85" on="1"/>
        <pt x="231" y="277" on="0"/>
        <pt x="231" y="376" on="1"/>
        <pt x="231" y="425" on="0"/>
        <pt x="198" y="425" on="1"/>
        <pt x="161" y="425" on="0"/>
        <pt x="127" y="391" on="1"/>
        <pt x="117" y="381" on="0"/>
        <pt x="116" y="381" on="1"/>
        <pt x="113" y="381" on="0"/>
        <pt x="113" y="387" on="0"/>
        <pt x="124" y="398" on="1"/>
        <pt x="168" y="443" on="0"/>
        <pt x="217" y="443" on="1"/>
        <pt x="246" y="443" on="0"/>
        <pt x="275" y="402" on="0"/>
        <pt x="275" y="375" on="1"/>
        <pt x="275" y="290" on="0"/>
      </contour>
    </TTGlyph>
    <TTGlyph name="W" xMin="35" yMin="-28" xMax="625" yMax="447">
      <contour>
        <pt x="221" y="444" on="1"/>
        <pt x="284" y="444" on="0"/>
        <pt x="284" y="388" on="1"/>
        <pt x="284" y="377" on="0"/>
        <pt x="278" y="352" on="0"/>
        <pt x="259" y="312" on="0"/>
        <pt x="241" y="277" on="0"/>
        <pt x="203" y="211" on="0"/>
        <pt x="172" y="159" on="0"/>
        <pt x="113" y="59" on="0"/>
        <pt x="90" y="20" on="1"/>
        <pt x="137" y="66" on="0"/>
        <pt x="273" y="162" on="0"/>
        <pt x="317" y="162" on="1"/>
        <pt x="330" y="162" on="0"/>
        <pt x="348" y="156" on="0"/>
        <pt x="358" y="138" on="0"/>
        <pt x="360" y="134" on="0"/>
        <pt x="363" y="123" on="1"/>
        <pt x="368" y="104" on="0"/>
        <pt x="380" y="51" on="0"/>
        <pt x="388" y="23" on="0"/>
        <pt x="401" y="-6" on="0"/>
        <pt x="423" y="-18" on="0"/>
        <pt x="440" y="-18" on="1"/>
        <pt x="482" y="-18" on="0"/>
        <pt x="545" y="38" on="0"/>
        <pt x="576" y="119" on="0"/>
        <pt x="590" y="187" on="0"/>
        <pt x="590" y="210" on="1"/>
        <pt x="590" y="241" on="0"/>
        <pt x="576" y="311" on="0"/>
        <pt x="544" y="387" on="0"/>
        <pt x="480" y="437" on="0"/>
        <pt x="437" y="437" on="1"/>
        <pt x="401" y="437" on="0"/>
        <pt x="379" y="423" on="1"/>
        <pt x="372" y="419" on="0"/>
        <pt x="366" y="419" on="1"/>
        <pt x="358" y="419" on="0"/>
        <pt x="358" y="424" on="1"/>
        <pt x="356" y="429" on="0"/>
        <pt x="367" y="434" on="1"/>
        <pt x="397" y="447" on="0"/>
        <pt x="439" y="447" on="1"/>
        <pt x="492" y="447" on="0"/>
        <pt x="569" y="405" on="0"/>
        <pt x="608" y="337" on="0"/>
        <pt x="625" y="266" on="0"/>
        <pt x="625" y="228" on="1"/>
        <pt x="625" y="167" on="0"/>
        <pt x="586" y="55" on="0"/>
        <pt x="494" y="-28" on="0"/>
        <pt x="429" y="-28" on="1"/>
        <pt x="407" y="-28" on="0"/>
        <pt x="373" y="-20" on="0"/>
        <pt x="349" y="3" on="0"/>
        <pt x="335" y="19" on="0"/>
        <pt x="323" y="63" on="0"/>
        <pt x="319" y="82" on="0"/>
        <pt x="313" y="110" on="1"/>
        <pt x="308" y="135" on="0"/>
        <pt x="293" y="135" on="1"/>
        <pt x="274" y="135" on="0"/>
        <pt x="202" y="93" on="0"/>
        <pt x="140" y="47" on="0"/>
        <pt x="77" y="-4" on="0"/>
        <pt x="76" y="-5" on="1"/>
        <pt x="65" y="-12" on="0"/>
        <pt x="41" y="-12" on="1"/>
        <pt x="35" y="-12" on="0"/>
        <pt x="35" y="-4" on="1"/>
        <pt x="35" y="-1" on="0"/>
        <pt x="43" y="15" on="1"/>
        <pt x="54" y="37" on="0"/>
        <pt x="151" y="205" on="1"/>
        <pt x="153" y="209" on="0"/>
        <pt x="186" y="265" on="0"/>
        <pt x="214" y="316" on="0"/>
        <pt x="239" y="376" on="0"/>
        <pt x="239" y="404" on="0"/>
        <pt x="218" y="425" on="0"/>
        <pt x="198" y="425" on="1"/>
        <pt x="161" y="425" on="0"/>
        <pt x="127" y="391" on="1"/>
        <pt x="117" y="381" on="0"/>
        <pt x="116" y="381" on="1"/>
        <pt x="113" y="381" on="0"/>
        <pt x="113" y="387" on="0"/>
        <pt x="124" y="398" on="1"/>
        <pt x="169" y="444" on="0"/>
      </contour>
    </TTGlyph>
    <TTGlyph name="Wacute" xMin="35" yMin="-28" xMax="625" yMax="580">
      <component glyphName="acutecomb" x="259" y="226" flags="0x1004"/>
      <component glyphName="W" x="0" y="0" flags="0x1204"/>
    </TTGlyph>
    <TTGlyph name="Wcircumflex" xMin="35" yMin="-28" xMax="625" yMax="583">
      <component glyphName="uni0302" x="236" y="226" flags="0x1004"/>
      <component glyphName="W" x="0" y="0" flags="0x1204"/>
    </TTGlyph>
    <TTGlyph name="Wdieresis" xMin="35" yMin="-28" xMax="625" yMax="562">
      <component glyphName="uni0308" x="236" y="226" flags="0x1004"/>
      <component glyphName="W" x="0" y="0" flags="0x1204"/>
    </TTGlyph>
    <TTGlyph name="Wgrave" xMin="35" yMin="-28" xMax="625" yMax="621">
      <component glyphName="gravecomb" x="236" y="226" flags="0x1004"/>
      <component glyphName="W" x="0" y="0" flags="0x1204"/>
    </TTGlyph>
    <TTGlyph name="X" xMin="-10" yMin="-53" xMax="605" yMax="443">
      <contour>
        <pt x="26" y="41" on="1"/>
        <pt x="27" y="41" on="0"/>
        <pt x="33" y="31" on="0"/>
        <pt x="50" y="21" on="0"/>
        <pt x="65" y="21" on="1"/>
        <pt x="96" y="21" on="0"/>
        <pt x="110" y="32" on="1"/>
        <pt x="139" y="49" on="0"/>
        <pt x="214" y="124" on="0"/>
        <pt x="287" y="206" on="1"/>
        <pt x="286" y="214" on="0"/>
        <pt x="285" y="229" on="1"/>
        <pt x="282" y="265" on="0"/>
        <pt x="278" y="300" on="0"/>
        <pt x="271" y="353" on="0"/>
        <pt x="263" y="378" on="0"/>
        <pt x="250" y="406" on="0"/>
        <pt x="232" y="417" on="0"/>
        <pt x="220" y="417" on="1"/>
        <pt x="197" y="417" on="0"/>
        <pt x="171" y="391" on="1"/>
        <pt x="161" y="381" on="0"/>
        <pt x="160" y="381" on="1"/>
        <pt x="157" y="381" on="0"/>
        <pt x="157" y="387" on="0"/>
        <pt x="168" y="398" on="1"/>
        <pt x="210" y="443" on="0"/>
        <pt x="246" y="443" on="1"/>
        <pt x="267" y="443" on="0"/>
        <pt x="296" y="416" on="0"/>
        <pt x="313" y="354" on="0"/>
        <pt x="320" y="299" on="0"/>
        <pt x="325" y="248" on="1"/>
        <pt x="436" y="369" on="0"/>
        <pt x="494" y="411" on="1"/>
        <pt x="545" y="443" on="0"/>
        <pt x="574" y="443" on="1"/>
        <pt x="586" y="443" on="0"/>
        <pt x="601" y="435" on="0"/>
        <pt x="605" y="428" on="0"/>
        <pt x="605" y="426" on="1"/>
        <pt x="605" y="423" on="0"/>
        <pt x="591" y="411" on="1"/>
        <pt x="588" y="409" on="0"/>
        <pt x="576" y="396" on="0"/>
        <pt x="567" y="388" on="0"/>
        <pt x="563" y="388" on="0"/>
        <pt x="563" y="390" on="1"/>
        <pt x="563" y="391" on="0"/>
        <pt x="567" y="396" on="0"/>
        <pt x="567" y="401" on="1"/>
        <pt x="567" y="408" on="0"/>
        <pt x="551" y="419" on="0"/>
        <pt x="538" y="419" on="1"/>
        <pt x="523" y="419" on="0"/>
        <pt x="499" y="399" on="1"/>
        <pt x="445" y="355" on="0"/>
        <pt x="327" y="224" on="1"/>
        <pt x="341" y="68" on="0"/>
        <pt x="357" y="27" on="1"/>
        <pt x="378" y="-29" on="0"/>
        <pt x="434" y="-29" on="1"/>
        <pt x="467" y="-29" on="0"/>
        <pt x="483" y="-13" on="1"/>
        <pt x="490" y="-6" on="0"/>
        <pt x="492" y="-6" on="1"/>
        <pt x="496" y="-6" on="0"/>
        <pt x="496" y="-10" on="1"/>
        <pt x="496" y="-15" on="0"/>
        <pt x="471" y="-35" on="0"/>
        <pt x="424" y="-53" on="0"/>
        <pt x="400" y="-53" on="1"/>
        <pt x="335" y="-53" on="0"/>
        <pt x="313" y="21" on="1"/>
        <pt x="300" y="67" on="0"/>
        <pt x="289" y="181" on="1"/>
        <pt x="185" y="63" on="0"/>
        <pt x="114" y="22" on="1"/>
        <pt x="66" y="-4" on="0"/>
        <pt x="29" y="-4" on="1"/>
        <pt x="20" y="-4" on="0"/>
        <pt x="1" y="2" on="0"/>
        <pt x="-10" y="8" on="0"/>
        <pt x="-10" y="12" on="0"/>
        <pt x="6" y="24" on="1"/>
        <pt x="9" y="27" on="0"/>
        <pt x="18" y="36" on="0"/>
        <pt x="24" y="41" on="0"/>
      </contour>
    </TTGlyph>
    <TTGlyph name="Xi" xMin="1" yMin="-14" xMax="580" yMax="443">
      <contour>
        <pt x="114" y="44" on="1"/>
        <pt x="160" y="44" on="0"/>
        <pt x="296" y="8" on="0"/>
        <pt x="346" y="8" on="1"/>
        <pt x="378" y="8" on="0"/>
        <pt x="407" y="28" on="1"/>
        <pt x="420" y="38" on="1"/>
        <pt x="422" y="38" on="0"/>
        <pt x="422" y="36" on="1"/>
        <pt x="422" y="35" on="0"/>
        <pt x="412" y="26" on="1"/>
        <pt x="362" y="-14" on="0"/>
        <pt x="309" y="-14" on="1"/>
        <pt x="259" y="-14" on="0"/>
        <pt x="123" y="22" on="0"/>
        <pt x="77" y="22" on="1"/>
        <pt x="45" y="22" on="0"/>
        <pt x="16" y="2" on="1"/>
        <pt x="4" y="-8" on="0"/>
        <pt x="3" y="-8" on="1"/>
        <pt x="1" y="-8" on="0"/>
        <pt x="1" y="-6" on="1"/>
        <pt x="1" y="-5" on="0"/>
        <pt x="11" y="4" on="1"/>
        <pt x="61" y="44" on="0"/>
      </contour>
      <contour>
        <pt x="348" y="187" on="1"/>
        <pt x="320" y="187" on="0"/>
        <pt x="236" y="211" on="0"/>
        <pt x="209" y="211" on="1"/>
        <pt x="177" y="211" on="0"/>
        <pt x="148" y="191" on="1"/>
        <pt x="136" y="181" on="0"/>
        <pt x="135" y="181" on="1"/>
        <pt x="133" y="181" on="0"/>
        <pt x="133" y="183" on="1"/>
        <pt x="133" y="184" on="0"/>
        <pt x="143" y="193" on="1"/>
        <pt x="193" y="233" on="0"/>
        <pt x="246" y="233" on="1"/>
        <pt x="274" y="233" on="0"/>
        <pt x="358" y="209" on="0"/>
        <pt x="385" y="209" on="1"/>
        <pt x="417" y="209" on="0"/>
        <pt x="446" y="229" on="1"/>
        <pt x="458" y="239" on="0"/>
        <pt x="459" y="239" on="1"/>
        <pt x="461" y="239" on="0"/>
        <pt x="461" y="237" on="1"/>
        <pt x="461" y="236" on="0"/>
        <pt x="451" y="227" on="1"/>
        <pt x="401" y="187" on="0"/>
      </contour>
      <contour>
        <pt x="194" y="398" on="1"/>
        <pt x="214" y="420" on="0"/>
        <pt x="281" y="443" on="0"/>
        <pt x="306" y="443" on="1"/>
        <pt x="345" y="443" on="0"/>
        <pt x="466" y="409" on="0"/>
        <pt x="504" y="409" on="1"/>
        <pt x="536" y="409" on="0"/>
        <pt x="565" y="429" on="1"/>
        <pt x="578" y="439" on="1"/>
        <pt x="580" y="439" on="0"/>
        <pt x="580" y="437" on="1"/>
        <pt x="580" y="436" on="0"/>
        <pt x="570" y="427" on="1"/>
        <pt x="520" y="387" on="0"/>
        <pt x="467" y="387" on="1"/>
        <pt x="428" y="387" on="0"/>
        <pt x="309" y="421" on="0"/>
        <pt x="269" y="421" on="1"/>
        <pt x="227" y="421" on="0"/>
        <pt x="197" y="391" on="1"/>
        <pt x="187" y="381" on="0"/>
        <pt x="186" y="381" on="1"/>
        <pt x="183" y="381" on="0"/>
        <pt x="183" y="387" on="0"/>
      </contour>
    </TTGlyph>
    <TTGlyph name="Y" xMin="-112" yMin="-483" xMax="598" yMax="443">
      <contour>
        <pt x="291" y="-84" on="1"/>
        <pt x="-63" y="-258" on="0"/>
        <pt x="-63" y="-419" on="1"/>
        <pt x="-63" y="-468" on="0"/>
        <pt x="-17" y="-468" on="1"/>
        <pt x="85" y="-468" on="0"/>
        <pt x="174" y="-303" on="1"/>
        <pt x="257" y="-154" on="0"/>
      </contour>
      <contour>
        <pt x="472" y="232" on="1"/>
        <pt x="445" y="187" on="0"/>
        <pt x="359" y="-8" on="0"/>
        <pt x="338" y="-48" on="1"/>
        <pt x="455" y="7" on="0"/>
        <pt x="539" y="71" on="1"/>
        <pt x="578" y="103" on="0"/>
        <pt x="592" y="124" on="1"/>
        <pt x="594" y="127" on="0"/>
        <pt x="598" y="127" on="0"/>
        <pt x="598" y="125" on="1"/>
        <pt x="598" y="124" on="0"/>
        <pt x="597" y="122" on="1"/>
        <pt x="567" y="84" on="0"/>
        <pt x="538" y="61" on="1"/>
        <pt x="470" y="5" on="0"/>
        <pt x="329" y="-65" on="1"/>
        <pt x="288" y="-148" on="0"/>
        <pt x="198" y="-299" on="1"/>
        <pt x="173" y="-341" on="0"/>
        <pt x="112" y="-415" on="0"/>
        <pt x="15" y="-483" on="0"/>
        <pt x="-31" y="-483" on="1"/>
        <pt x="-72" y="-483" on="0"/>
        <pt x="-112" y="-446" on="0"/>
        <pt x="-112" y="-415" on="1"/>
        <pt x="-112" y="-257" on="0"/>
        <pt x="300" y="-65" on="1"/>
        <pt x="383" y="110" on="1"/>
        <pt x="310" y="41" on="0"/>
        <pt x="278" y="21" on="1"/>
        <pt x="232" y="-8" on="0"/>
        <pt x="189" y="-8" on="1"/>
        <pt x="152" y="-8" on="0"/>
        <pt x="107" y="32" on="0"/>
        <pt x="107" y="68" on="1"/>
        <pt x="107" y="102" on="0"/>
        <pt x="178" y="245" on="0"/>
        <pt x="250" y="374" on="0"/>
        <pt x="250" y="390" on="1"/>
        <pt x="250" y="429" on="0"/>
        <pt x="209" y="429" on="1"/>
        <pt x="165" y="429" on="0"/>
        <pt x="127" y="391" on="1"/>
        <pt x="116" y="380" on="1"/>
        <pt x="113" y="380" on="0"/>
        <pt x="113" y="383" on="1"/>
        <pt x="113" y="387" on="0"/>
        <pt x="124" y="398" on="1"/>
        <pt x="168" y="443" on="0"/>
        <pt x="227" y="443" on="1"/>
        <pt x="257" y="443" on="0"/>
        <pt x="290" y="414" on="0"/>
        <pt x="290" y="393" on="1"/>
        <pt x="290" y="376" on="0"/>
        <pt x="222" y="252" on="0"/>
        <pt x="154" y="113" on="0"/>
        <pt x="154" y="77" on="1"/>
        <pt x="154" y="16" on="0"/>
        <pt x="212" y="16" on="1"/>
        <pt x="287" y="16" on="0"/>
        <pt x="399" y="151" on="1"/>
        <pt x="409" y="172" on="0"/>
        <pt x="443" y="245" on="0"/>
        <pt x="456" y="273" on="0"/>
        <pt x="479" y="321" on="0"/>
        <pt x="491" y="343" on="0"/>
        <pt x="509" y="375" on="0"/>
        <pt x="525" y="398" on="0"/>
        <pt x="535" y="410" on="1"/>
        <pt x="551" y="429" on="0"/>
        <pt x="564" y="429" on="1"/>
        <pt x="570" y="429" on="0"/>
        <pt x="570" y="425" on="1"/>
        <pt x="570" y="407" on="0"/>
        <pt x="491" y="262" on="0"/>
      </contour>
    </TTGlyph>
    <TTGlyph name="Yacute" xMin="-112" yMin="-483" xMax="598" yMax="580">
      <component glyphName="acutecomb" x="276" y="226" flags="0x1004"/>
      <component glyphName="Y" x="0" y="0" flags="0x1204"/>
    </TTGlyph>
    <TTGlyph name="Ycircumflex" xMin="-112" yMin="-483" xMax="598" yMax="583">
      <component glyphName="uni0302" x="239" y="226" flags="0x1004"/>
      <component glyphName="Y" x="0" y="0" flags="0x1204"/>
    </TTGlyph>
    <TTGlyph name="Ydieresis" xMin="-112" yMin="-483" xMax="598" yMax="562">
      <component glyphName="uni0308" x="239" y="226" flags="0x1004"/>
      <component glyphName="Y" x="0" y="0" flags="0x1204"/>
    </TTGlyph>
    <TTGlyph name="Ygrave" xMin="-112" yMin="-483" xMax="598" yMax="621">
      <component glyphName="gravecomb" x="239" y="226" flags="0x1004"/>
      <component glyphName="Y" x="0" y="0" flags="0x1204"/>
    </TTGlyph>
    <TTGlyph name="Z" xMin="26" yMin="-89" xMax="583" yMax="431">
      <contour>
        <pt x="397" y="409" on="1"/>
        <pt x="444" y="409" on="0"/>
        <pt x="491" y="424" on="0"/>
        <pt x="494" y="424" on="1"/>
        <pt x="502" y="424" on="0"/>
        <pt x="515" y="416" on="0"/>
        <pt x="515" y="413" on="1"/>
        <pt x="515" y="412" on="0"/>
        <pt x="515" y="410" on="0"/>
        <pt x="513" y="408" on="0"/>
        <pt x="511" y="406" on="0"/>
        <pt x="507" y="404" on="0"/>
        <pt x="500" y="399" on="0"/>
        <pt x="493" y="393" on="0"/>
        <pt x="481" y="383" on="0"/>
        <pt x="474" y="377" on="1"/>
        <pt x="110" y="42" on="1"/>
        <pt x="136" y="45" on="0"/>
        <pt x="151" y="45" on="1"/>
        <pt x="196" y="45" on="0"/>
        <pt x="306" y="-10" on="0"/>
        <pt x="417" y="-65" on="0"/>
        <pt x="465" y="-65" on="1"/>
        <pt x="508" y="-65" on="0"/>
        <pt x="568" y="-29" on="0"/>
        <pt x="568" y="-15" on="1"/>
        <pt x="568" y="-10" on="0"/>
        <pt x="571" y="-10" on="1"/>
        <pt x="573" y="-10" on="0"/>
        <pt x="583" y="-30" on="0"/>
        <pt x="583" y="-33" on="1"/>
        <pt x="581" y="-39" on="0"/>
        <pt x="570" y="-58" on="0"/>
        <pt x="527" y="-89" on="0"/>
        <pt x="499" y="-89" on="1"/>
        <pt x="449" y="-89" on="0"/>
        <pt x="321" y="-37" on="0"/>
        <pt x="201" y="15" on="0"/>
        <pt x="123" y="15" on="0"/>
        <pt x="64" y="-2" on="0"/>
        <pt x="62" y="-2" on="1"/>
        <pt x="56" y="-2" on="0"/>
        <pt x="42" y="5" on="1"/>
        <pt x="37" y="7" on="0"/>
        <pt x="28" y="9" on="0"/>
        <pt x="26" y="10" on="0"/>
        <pt x="26" y="14" on="0"/>
        <pt x="35" y="23" on="1"/>
        <pt x="450" y="398" on="1"/>
        <pt x="416" y="391" on="0"/>
        <pt x="383" y="391" on="1"/>
        <pt x="349" y="391" on="0"/>
        <pt x="274" y="410" on="0"/>
        <pt x="239" y="410" on="1"/>
        <pt x="206" y="410" on="0"/>
        <pt x="186" y="391" on="1"/>
        <pt x="176" y="381" on="0"/>
        <pt x="175" y="381" on="1"/>
        <pt x="172" y="381" on="0"/>
        <pt x="172" y="387" on="0"/>
        <pt x="183" y="398" on="1"/>
        <pt x="215" y="431" on="0"/>
        <pt x="269" y="431" on="1"/>
        <pt x="281" y="431" on="0"/>
        <pt x="374" y="409" on="0"/>
      </contour>
    </TTGlyph>
    <TTGlyph name="Zacute" xMin="26" yMin="-89" xMax="583" yMax="580">
      <component glyphName="acutecomb" x="222" y="226" flags="0x1004"/>
      <component glyphName="Z" x="0" y="0" flags="0x1204"/>
    </TTGlyph>
    <TTGlyph name="Zcaron" xMin="26" yMin="-89" xMax="583" yMax="597">
      <component glyphName="uni030C" x="199" y="226" flags="0x1004"/>
      <component glyphName="Z" x="0" y="0" flags="0x1204"/>
    </TTGlyph>
    <TTGlyph name="Zdotaccent" xMin="26" yMin="-89" xMax="583" yMax="562">
      <component glyphName="uni0307" x="199" y="226" flags="0x1004"/>
      <component glyphName="Z" x="0" y="0" flags="0x1204"/>
    </TTGlyph>
    <TTGlyph name="Zeta" xMin="26" yMin="-89" xMax="583" yMax="431">
      <component glyphName="Z" x="0" y="0" flags="0x1004"/>
    </TTGlyph>
    <TTGlyph name="a" xMin="31" yMin="-6" xMax="396" yMax="231">
      <contour>
        <pt x="217" y="84" on="1"/>
        <pt x="268" y="135" on="0"/>
        <pt x="268" y="152" on="1"/>
        <pt x="268" y="156" on="0"/>
        <pt x="264" y="156" on="1"/>
        <pt x="254" y="156" on="0"/>
      </contour>
      <contour>
        <pt x="207" y="219" on="1"/>
        <pt x="159" y="219" on="0"/>
        <pt x="70" y="104" on="0"/>
        <pt x="70" y="52" on="1"/>
        <pt x="70" y="17" on="0"/>
        <pt x="98" y="17" on="1"/>
        <pt x="129" y="17" on="0"/>
        <pt x="167" y="45" on="1"/>
        <pt x="178" y="82" on="0"/>
        <pt x="210" y="126" on="1"/>
        <pt x="240" y="168" on="0"/>
        <pt x="260" y="176" on="1"/>
        <pt x="243" y="219" on="0"/>
      </contour>
      <contour>
        <pt x="205" y="231" on="1"/>
        <pt x="253" y="231" on="0"/>
        <pt x="268" y="178" on="1"/>
        <pt x="281" y="178" on="0"/>
        <pt x="281" y="167" on="1"/>
        <pt x="281" y="161" on="0"/>
        <pt x="279" y="148" on="0"/>
        <pt x="272" y="136" on="0"/>
        <pt x="268" y="128" on="0"/>
        <pt x="257" y="115" on="0"/>
        <pt x="252" y="109" on="0"/>
        <pt x="238" y="95" on="0"/>
        <pt x="237" y="94" on="1"/>
        <pt x="211" y="69" on="1"/>
        <pt x="203" y="43" on="0"/>
        <pt x="203" y="34" on="1"/>
        <pt x="203" y="13" on="0"/>
        <pt x="235" y="13" on="1"/>
        <pt x="274" y="13" on="0"/>
        <pt x="341" y="71" on="1"/>
        <pt x="374" y="100" on="0"/>
        <pt x="390" y="124" on="1"/>
        <pt x="392" y="127" on="0"/>
        <pt x="396" y="127" on="0"/>
        <pt x="396" y="125" on="1"/>
        <pt x="396" y="124" on="0"/>
        <pt x="395" y="122" on="1"/>
        <pt x="346" y="57" on="0"/>
        <pt x="279" y="18" on="1"/>
        <pt x="237" y="-6" on="0"/>
        <pt x="205" y="-6" on="1"/>
        <pt x="165" y="-6" on="0"/>
        <pt x="165" y="26" on="1"/>
        <pt x="165" y="28" on="0"/>
        <pt x="166" y="34" on="0"/>
        <pt x="166" y="35" on="1"/>
        <pt x="109" y="0" on="0"/>
        <pt x="73" y="0" on="1"/>
        <pt x="31" y="0" on="0"/>
        <pt x="31" y="51" on="1"/>
        <pt x="31" y="109" on="0"/>
        <pt x="146" y="231" on="0"/>
      </contour>
    </TTGlyph>
    <TTGlyph name="aacute" xMin="31" yMin="-6" xMax="396" yMax="354">
      <component glyphName="acutecomb" x="81" y="0" flags="0x1004"/>
      <component glyphName="a" x="0" y="0" flags="0x1204"/>
    </TTGlyph>
    <TTGlyph name="abreve" xMin="31" yMin="-6" xMax="396" yMax="362">
      <component glyphName="uni0306" x="58" y="0" flags="0x1004"/>
      <component glyphName="a" x="0" y="0" flags="0x1204"/>
    </TTGlyph>
    <TTGlyph name="acircumflex" xMin="31" yMin="-6" xMax="396" yMax="357">
      <component glyphName="uni0302" x="58" y="0" flags="0x1004"/>
      <component glyphName="a" x="0" y="0" flags="0x1204"/>
    </TTGlyph>
    <TTGlyph name="acute" xMin="118" yMin="273" xMax="258" yMax="353">
      <contour>
        <pt x="129" y="281" on="1"/>
        <pt x="248" y="350" on="1"/>
        <pt x="252" y="353" on="0"/>
        <pt x="256" y="353" on="1"/>
        <pt x="258" y="353" on="0"/>
        <pt x="258" y="349" on="1"/>
        <pt x="258" y="335" on="0"/>
        <pt x="248" y="331" on="1"/>
        <pt x="231" y="324" on="0"/>
        <pt x="168" y="294" on="0"/>
        <pt x="123" y="273" on="0"/>
        <pt x="121" y="273" on="1"/>
        <pt x="118" y="273" on="0"/>
        <pt x="118" y="275" on="0"/>
      </contour>
    </TTGlyph>
    <TTGlyph name="acutecomb" xMin="111" yMin="274" xMax="251" yMax="354">
      <component glyphName="acute" x="-7" y="1" flags="0x1004"/>
    </TTGlyph>
    <TTGlyph name="adieresis" xMin="31" yMin="-6" xMax="396" yMax="336">
      <component glyphName="uni0308" x="58" y="0" flags="0x1004"/>
      <component glyphName="a" x="0" y="0" flags="0x1204"/>
    </TTGlyph>
    <TTGlyph name="ae" xMin="31" yMin="-4" xMax="459" yMax="233">
      <contour>
        <pt x="266" y="187" on="1"/>
        <pt x="317" y="233" on="0"/>
        <pt x="349" y="233" on="1"/>
        <pt x="375" y="233" on="0"/>
        <pt x="375" y="213" on="1"/>
        <pt x="375" y="206" on="0"/>
        <pt x="364" y="190" on="0"/>
        <pt x="335" y="167" on="0"/>
        <pt x="308" y="148" on="0"/>
        <pt x="250" y="109" on="0"/>
        <pt x="230" y="95" on="1"/>
        <pt x="221" y="70" on="0"/>
        <pt x="221" y="50" on="1"/>
        <pt x="221" y="6" on="0"/>
        <pt x="270" y="6" on="1"/>
        <pt x="329" y="6" on="0"/>
        <pt x="404" y="71" on="1"/>
        <pt x="437" y="100" on="0"/>
        <pt x="453" y="124" on="1"/>
        <pt x="455" y="127" on="0"/>
        <pt x="459" y="127" on="0"/>
        <pt x="459" y="125" on="1"/>
        <pt x="459" y="124" on="0"/>
        <pt x="458" y="122" on="1"/>
        <pt x="439" y="96" on="0"/>
        <pt x="406" y="67" on="1"/>
        <pt x="354" y="21" on="0"/>
        <pt x="283" y="-4" on="0"/>
        <pt x="239" y="-4" on="1"/>
        <pt x="222" y="-4" on="0"/>
        <pt x="184" y="17" on="0"/>
        <pt x="184" y="39" on="1"/>
        <pt x="184" y="53" on="0"/>
        <pt x="186" y="62" on="1"/>
        <pt x="115" y="0" on="0"/>
        <pt x="72" y="0" on="1"/>
        <pt x="31" y="0" on="0"/>
        <pt x="31" y="51" on="1"/>
        <pt x="31" y="109" on="0"/>
        <pt x="147" y="231" on="0"/>
        <pt x="206" y="231" on="1"/>
        <pt x="250" y="231" on="0"/>
      </contour>
      <contour>
        <pt x="259" y="180" on="1"/>
        <pt x="242" y="219" on="0"/>
        <pt x="208" y="219" on="1"/>
        <pt x="160" y="219" on="0"/>
        <pt x="69" y="104" on="0"/>
        <pt x="69" y="52" on="1"/>
        <pt x="69" y="17" on="0"/>
        <pt x="97" y="17" on="1"/>
        <pt x="123" y="17" on="0"/>
        <pt x="188" y="71" on="1"/>
        <pt x="208" y="133" on="0"/>
      </contour>
      <contour>
        <pt x="234" y="104" on="1"/>
        <pt x="293" y="147" on="0"/>
        <pt x="343" y="193" on="0"/>
        <pt x="343" y="208" on="1"/>
        <pt x="343" y="219" on="0"/>
        <pt x="332" y="219" on="1"/>
        <pt x="307" y="219" on="0"/>
        <pt x="251" y="149" on="0"/>
      </contour>
    </TTGlyph>
    <TTGlyph name="aeacute" xMin="31" yMin="-4" xMax="459" yMax="354">
      <component glyphName="acutecomb" x="123" y="0" flags="0x1004"/>
      <component glyphName="ae" x="0" y="0" flags="0x1204"/>
    </TTGlyph>
    <TTGlyph name="afii57929" xMin="0" yMin="234" xMax="94" yMax="379">
      <component glyphName="uni0326" x="-10" y="379" flags="0x1004"/>
    </TTGlyph>
    <TTGlyph name="agrave" xMin="31" yMin="-6" xMax="396" yMax="395">
      <component glyphName="gravecomb" x="58" y="0" flags="0x1004"/>
      <component glyphName="a" x="0" y="0" flags="0x1204"/>
    </TTGlyph>
    <TTGlyph name="alpha" xMin="31" yMin="-2" xMax="433" yMax="231">
      <contour>
        <pt x="195" y="60" on="1"/>
        <pt x="131" y="-2" on="0"/>
        <pt x="75" y="-2" on="1"/>
        <pt x="55" y="-2" on="0"/>
        <pt x="31" y="29" on="0"/>
        <pt x="31" y="50" on="1"/>
        <pt x="31" y="103" on="0"/>
        <pt x="156" y="231" on="0"/>
        <pt x="211" y="231" on="1"/>
        <pt x="252" y="231" on="0"/>
        <pt x="252" y="191" on="1"/>
        <pt x="252" y="176" on="0"/>
        <pt x="245" y="149" on="0"/>
        <pt x="232" y="117" on="0"/>
        <pt x="229" y="108" on="1"/>
        <pt x="282" y="164" on="0"/>
        <pt x="317" y="208" on="1"/>
        <pt x="318" y="211" on="0"/>
        <pt x="323" y="211" on="1"/>
        <pt x="324" y="211" on="0"/>
        <pt x="325" y="210" on="1"/>
        <pt x="325" y="208" on="0"/>
        <pt x="324" y="207" on="1"/>
        <pt x="277" y="147" on="0"/>
        <pt x="226" y="92" on="1"/>
        <pt x="224" y="80" on="0"/>
        <pt x="224" y="72" on="1"/>
        <pt x="224" y="51" on="0"/>
        <pt x="245" y="15" on="0"/>
        <pt x="270" y="15" on="1"/>
        <pt x="313" y="15" on="0"/>
        <pt x="378" y="71" on="1"/>
        <pt x="411" y="100" on="0"/>
        <pt x="427" y="124" on="1"/>
        <pt x="429" y="127" on="0"/>
        <pt x="433" y="127" on="0"/>
        <pt x="433" y="125" on="1"/>
        <pt x="433" y="124" on="0"/>
        <pt x="432" y="122" on="1"/>
        <pt x="383" y="57" on="0"/>
        <pt x="316" y="18" on="1"/>
        <pt x="281" y="-2" on="0"/>
        <pt x="247" y="-2" on="1"/>
        <pt x="223" y="-2" on="0"/>
        <pt x="197" y="33" on="0"/>
      </contour>
      <contour>
        <pt x="195" y="73" on="1"/>
        <pt x="196" y="96" on="0"/>
        <pt x="223" y="174" on="0"/>
        <pt x="223" y="195" on="1"/>
        <pt x="223" y="222" on="0"/>
        <pt x="200" y="222" on="1"/>
        <pt x="163" y="222" on="0"/>
        <pt x="69" y="103" on="0"/>
        <pt x="69" y="54" on="1"/>
        <pt x="69" y="17" on="0"/>
        <pt x="101" y="17" on="1"/>
        <pt x="136" y="17" on="0"/>
      </contour>
    </TTGlyph>
    <TTGlyph name="alphatonos" xMin="31" yMin="-2" xMax="433" yMax="385">
      <component glyphName="tonos" x="56" y="0" flags="0x1004"/>
      <component glyphName="alpha" x="0" y="0" flags="0x1204"/>
    </TTGlyph>
    <TTGlyph name="amacron" xMin="31" yMin="-6" xMax="396" yMax="315">
      <component glyphName="uni0304" x="58" y="0" flags="0x1004"/>
      <component glyphName="a" x="0" y="0" flags="0x1204"/>
    </TTGlyph>
    <TTGlyph name="ampersand" xMin="76" yMin="-15" xMax="558" yMax="442">
      <contour>
        <pt x="251" y="283" on="1"/>
        <pt x="274" y="253" on="0"/>
        <pt x="294" y="253" on="1"/>
        <pt x="308" y="253" on="0"/>
        <pt x="308" y="266" on="1"/>
        <pt x="308" y="283" on="0"/>
      </contour>
      <contour>
        <pt x="333" y="273" on="1"/>
        <pt x="333" y="260" on="0"/>
        <pt x="306" y="243" on="0"/>
        <pt x="287" y="243" on="1"/>
        <pt x="270" y="243" on="0"/>
        <pt x="237" y="265" on="0"/>
        <pt x="229" y="281" on="1"/>
        <pt x="169" y="271" on="0"/>
        <pt x="112" y="187" on="0"/>
        <pt x="112" y="140" on="1"/>
        <pt x="112" y="82" on="0"/>
        <pt x="199" y="7" on="0"/>
        <pt x="255" y="7" on="1"/>
        <pt x="316" y="7" on="0"/>
        <pt x="392" y="88" on="0"/>
        <pt x="401" y="143" on="1"/>
        <pt x="391" y="149" on="0"/>
        <pt x="351" y="179" on="0"/>
        <pt x="325" y="192" on="0"/>
        <pt x="311" y="192" on="1"/>
        <pt x="301" y="192" on="0"/>
        <pt x="287" y="176" on="0"/>
        <pt x="287" y="154" on="0"/>
        <pt x="310" y="134" on="0"/>
        <pt x="310" y="133" on="1"/>
        <pt x="310" y="130" on="0"/>
        <pt x="296" y="130" on="1"/>
        <pt x="292" y="130" on="1"/>
        <pt x="259" y="130" on="0"/>
        <pt x="259" y="161" on="1"/>
        <pt x="259" y="176" on="0"/>
        <pt x="294" y="197" on="0"/>
        <pt x="317" y="197" on="1"/>
        <pt x="358" y="197" on="0"/>
        <pt x="490" y="118" on="0"/>
        <pt x="517" y="118" on="1"/>
        <pt x="531" y="118" on="0"/>
        <pt x="545" y="132" on="1"/>
        <pt x="548" y="135" on="0"/>
        <pt x="553" y="141" on="0"/>
        <pt x="554" y="143" on="1"/>
        <pt x="556" y="145" on="1"/>
        <pt x="558" y="145" on="0"/>
        <pt x="558" y="143" on="1"/>
        <pt x="558" y="140" on="0"/>
        <pt x="548" y="130" on="1"/>
        <pt x="525" y="104" on="0"/>
        <pt x="507" y="104" on="1"/>
        <pt x="473" y="104" on="0"/>
        <pt x="428" y="128" on="1"/>
        <pt x="412" y="81" on="0"/>
        <pt x="292" y="-15" on="0"/>
        <pt x="221" y="-15" on="1"/>
        <pt x="164" y="-15" on="0"/>
        <pt x="76" y="60" on="0"/>
        <pt x="76" y="120" on="1"/>
        <pt x="76" y="182" on="0"/>
        <pt x="163" y="273" on="0"/>
        <pt x="224" y="293" on="1"/>
        <pt x="220" y="304" on="0"/>
        <pt x="220" y="322" on="1"/>
        <pt x="220" y="376" on="0"/>
        <pt x="302" y="442" on="0"/>
        <pt x="346" y="442" on="1"/>
        <pt x="378" y="442" on="0"/>
        <pt x="433" y="415" on="0"/>
        <pt x="433" y="395" on="1"/>
        <pt x="423" y="377" on="1"/>
        <pt x="414" y="361" on="0"/>
        <pt x="413" y="361" on="1"/>
        <pt x="411" y="361" on="0"/>
        <pt x="411" y="363" on="1"/>
        <pt x="411" y="387" on="0"/>
        <pt x="357" y="422" on="0"/>
        <pt x="330" y="422" on="1"/>
        <pt x="286" y="422" on="0"/>
        <pt x="233" y="372" on="0"/>
        <pt x="233" y="333" on="1"/>
        <pt x="233" y="316" on="0"/>
        <pt x="241" y="298" on="1"/>
        <pt x="269" y="303" on="0"/>
        <pt x="288" y="303" on="1"/>
        <pt x="305" y="303" on="0"/>
        <pt x="333" y="288" on="0"/>
      </contour>
    </TTGlyph>
    <TTGlyph name="anoteleia" xMin="145" yMin="161" xMax="191" yMax="214">
      <component glyphName="periodcentered" x="0" y="0" flags="0x1004"/>
    </TTGlyph>
    <TTGlyph name="aogonek" xMin="31" yMin="-113" xMax="396" yMax="231">
      <component glyphName="uni0328" x="134" y="0" flags="0x1004"/>
      <component glyphName="a" x="0" y="0" flags="0x1204"/>
    </TTGlyph>
    <TTGlyph name="aring" xMin="31" yMin="-6" xMax="396" yMax="365">
      <component glyphName="uni030A" x="58" y="0" flags="0x1004"/>
      <component glyphName="a" x="0" y="0" flags="0x1204"/>
    </TTGlyph>
    <TTGlyph name="aringacute" xMin="31" yMin="-6" xMax="396" yMax="454">
      <component glyphName="acutecomb" x="136" y="100" flags="0x1004"/>
      <component glyphName="aring" x="0" y="0" flags="0x1204"/>
    </TTGlyph>
    <TTGlyph name="asciicircum" xMin="109" yMin="272" xMax="336" yMax="444">
      <contour>
        <pt x="218" y="428" on="1"/>
        <pt x="221" y="433" on="0"/>
        <pt x="242" y="444" on="0"/>
        <pt x="244" y="444" on="1"/>
        <pt x="245" y="444" on="0"/>
        <pt x="247" y="438" on="1"/>
        <pt x="265" y="396" on="0"/>
        <pt x="310" y="322" on="0"/>
        <pt x="336" y="289" on="0"/>
        <pt x="336" y="288" on="1"/>
        <pt x="336" y="284" on="0"/>
        <pt x="313" y="272" on="0"/>
        <pt x="308" y="272" on="1"/>
        <pt x="257" y="343" on="0"/>
        <pt x="225" y="414" on="1"/>
        <pt x="175" y="351" on="0"/>
        <pt x="136" y="290" on="1"/>
        <pt x="135" y="287" on="0"/>
        <pt x="113" y="275" on="0"/>
        <pt x="110" y="275" on="1"/>
        <pt x="109" y="275" on="0"/>
        <pt x="109" y="276" on="1"/>
        <pt x="110" y="277" on="1"/>
        <pt x="135" y="302" on="0"/>
      </contour>
    </TTGlyph>
    <TTGlyph name="asciitilde" xMin="78" yMin="130" xMax="338" yMax="211">
      <contour>
        <pt x="103" y="150" on="1"/>
        <pt x="89" y="143" on="1"/>
        <pt x="87" y="142" on="0"/>
        <pt x="80" y="136" on="0"/>
        <pt x="78" y="136" on="0"/>
        <pt x="78" y="137" on="1"/>
        <pt x="78" y="140" on="0"/>
        <pt x="87" y="152" on="1"/>
        <pt x="103" y="175" on="0"/>
        <pt x="151" y="211" on="0"/>
        <pt x="172" y="211" on="1"/>
        <pt x="195" y="211" on="0"/>
        <pt x="254" y="144" on="0"/>
        <pt x="276" y="144" on="1"/>
        <pt x="292" y="144" on="0"/>
        <pt x="312" y="177" on="0"/>
        <pt x="312" y="196" on="1"/>
        <pt x="312" y="200" on="0"/>
        <pt x="330" y="210" on="0"/>
        <pt x="336" y="210" on="1"/>
        <pt x="338" y="210" on="0"/>
        <pt x="338" y="207" on="1"/>
        <pt x="336" y="179" on="0"/>
        <pt x="283" y="130" on="0"/>
        <pt x="251" y="130" on="1"/>
        <pt x="228" y="130" on="0"/>
        <pt x="172" y="195" on="0"/>
        <pt x="150" y="195" on="1"/>
        <pt x="124" y="195" on="0"/>
      </contour>
    </TTGlyph>
    <TTGlyph name="asterisk" xMin="108" yMin="223" xMax="345" yMax="438">
      <contour>
        <pt x="159" y="293" on="1"/>
        <pt x="160" y="323" on="1"/>
        <pt x="142" y="324" on="0"/>
        <pt x="137" y="324" on="1"/>
        <pt x="133" y="324" on="0"/>
        <pt x="133" y="321" on="1"/>
        <pt x="133" y="312" on="0"/>
      </contour>
      <contour>
        <pt x="218" y="322" on="1"/>
        <pt x="165" y="323" on="1"/>
        <pt x="165" y="290" on="1"/>
        <pt x="168" y="287" on="0"/>
        <pt x="175" y="282" on="0"/>
        <pt x="184" y="277" on="0"/>
        <pt x="186" y="275" on="1"/>
        <pt x="204" y="299" on="0"/>
      </contour>
      <contour>
        <pt x="225" y="312" on="1"/>
        <pt x="210" y="288" on="0"/>
        <pt x="199" y="266" on="1"/>
        <pt x="243" y="235" on="0"/>
        <pt x="259" y="235" on="1"/>
        <pt x="262" y="235" on="0"/>
        <pt x="262" y="239" on="1"/>
        <pt x="262" y="247" on="0"/>
        <pt x="250" y="271" on="0"/>
        <pt x="229" y="305" on="0"/>
      </contour>
      <contour>
        <pt x="213" y="340" on="1"/>
        <pt x="176" y="402" on="0"/>
        <pt x="170" y="402" on="0"/>
        <pt x="167" y="343" on="1"/>
      </contour>
      <contour>
        <pt x="236" y="353" on="1"/>
        <pt x="247" y="371" on="0"/>
        <pt x="269" y="416" on="0"/>
        <pt x="280" y="433" on="0"/>
        <pt x="284" y="433" on="1"/>
        <pt x="287" y="433" on="0"/>
        <pt x="295" y="418" on="0"/>
        <pt x="295" y="414" on="1"/>
        <pt x="295" y="412" on="0"/>
        <pt x="294" y="411" on="1"/>
        <pt x="277" y="388" on="0"/>
        <pt x="246" y="340" on="1"/>
        <pt x="339" y="340" on="1"/>
        <pt x="345" y="340" on="0"/>
        <pt x="345" y="332" on="0"/>
        <pt x="335" y="321" on="0"/>
        <pt x="331" y="321" on="1"/>
        <pt x="329" y="321" on="0"/>
        <pt x="315" y="322" on="0"/>
        <pt x="311" y="322" on="1"/>
        <pt x="252" y="322" on="1"/>
        <pt x="286" y="264" on="0"/>
        <pt x="299" y="245" on="1"/>
        <pt x="300" y="243" on="0"/>
        <pt x="300" y="241" on="1"/>
        <pt x="300" y="236" on="0"/>
        <pt x="290" y="227" on="0"/>
        <pt x="285" y="225" on="1"/>
        <pt x="280" y="223" on="1"/>
        <pt x="258" y="223" on="0"/>
        <pt x="196" y="260" on="1"/>
        <pt x="194" y="256" on="0"/>
        <pt x="185" y="239" on="0"/>
        <pt x="179" y="228" on="0"/>
        <pt x="176" y="228" on="1"/>
        <pt x="157" y="228" on="0"/>
        <pt x="157" y="264" on="1"/>
        <pt x="157" y="266" on="0"/>
        <pt x="158" y="282" on="0"/>
        <pt x="158" y="285" on="1"/>
        <pt x="108" y="318" on="0"/>
        <pt x="108" y="330" on="1"/>
        <pt x="108" y="336" on="0"/>
        <pt x="123" y="347" on="0"/>
        <pt x="135" y="347" on="1"/>
        <pt x="140" y="347" on="0"/>
        <pt x="158" y="344" on="0"/>
        <pt x="161" y="344" on="1"/>
        <pt x="161" y="352" on="0"/>
        <pt x="162" y="376" on="0"/>
        <pt x="163" y="391" on="0"/>
        <pt x="165" y="411" on="0"/>
        <pt x="168" y="422" on="0"/>
        <pt x="172" y="433" on="0"/>
        <pt x="179" y="438" on="0"/>
        <pt x="184" y="438" on="1"/>
        <pt x="188" y="438" on="0"/>
        <pt x="198" y="424" on="0"/>
        <pt x="224" y="373" on="0"/>
      </contour>
      <contour>
        <pt x="182" y="270" on="1"/>
        <pt x="180" y="272" on="0"/>
        <pt x="167" y="280" on="0"/>
        <pt x="165" y="281" on="1"/>
        <pt x="165" y="257" on="0"/>
        <pt x="169" y="257" on="1"/>
        <pt x="174" y="257" on="0"/>
      </contour>
    </TTGlyph>
    <TTGlyph name="at" xMin="74" yMin="-15" xMax="511" yMax="397">
      <contour>
        <pt x="300" y="144" on="1"/>
        <pt x="317" y="202" on="0"/>
        <pt x="363" y="255" on="1"/>
        <pt x="355" y="279" on="0"/>
        <pt x="328" y="279" on="1"/>
        <pt x="292" y="279" on="0"/>
        <pt x="222" y="189" on="0"/>
        <pt x="222" y="150" on="1"/>
        <pt x="222" y="119" on="0"/>
        <pt x="243" y="119" on="1"/>
        <pt x="261" y="119" on="0"/>
      </contour>
      <contour>
        <pt x="356" y="115" on="1"/>
        <pt x="411" y="115" on="0"/>
        <pt x="478" y="220" on="0"/>
        <pt x="478" y="265" on="1"/>
        <pt x="478" y="316" on="0"/>
        <pt x="397" y="377" on="0"/>
        <pt x="347" y="377" on="1"/>
        <pt x="236" y="377" on="0"/>
        <pt x="107" y="231" on="0"/>
        <pt x="107" y="136" on="1"/>
        <pt x="107" y="79" on="0"/>
        <pt x="182" y="5" on="0"/>
        <pt x="232" y="5" on="1"/>
        <pt x="356" y="5" on="0"/>
        <pt x="426" y="70" on="1"/>
        <pt x="442" y="84" on="0"/>
        <pt x="454" y="84" on="1"/>
        <pt x="456" y="84" on="0"/>
        <pt x="456" y="83" on="1"/>
        <pt x="452" y="79" on="0"/>
        <pt x="439" y="66" on="0"/>
        <pt x="393" y="32" on="0"/>
        <pt x="341" y="6" on="0"/>
        <pt x="258" y="-15" on="0"/>
        <pt x="215" y="-15" on="1"/>
        <pt x="157" y="-15" on="0"/>
        <pt x="74" y="64" on="0"/>
        <pt x="74" y="118" on="1"/>
        <pt x="74" y="198" on="0"/>
        <pt x="167" y="329" on="0"/>
        <pt x="304" y="397" on="0"/>
        <pt x="376" y="397" on="1"/>
        <pt x="427" y="397" on="0"/>
        <pt x="511" y="335" on="0"/>
        <pt x="511" y="283" on="1"/>
        <pt x="511" y="215" on="0"/>
        <pt x="400" y="95" on="0"/>
        <pt x="332" y="95" on="1"/>
        <pt x="316" y="95" on="0"/>
        <pt x="296" y="112" on="0"/>
        <pt x="296" y="125" on="1"/>
        <pt x="296" y="126" on="0"/>
        <pt x="297" y="131" on="0"/>
        <pt x="297" y="132" on="1"/>
        <pt x="256" y="104" on="0"/>
        <pt x="225" y="104" on="1"/>
        <pt x="208" y="104" on="0"/>
        <pt x="185" y="128" on="0"/>
        <pt x="185" y="146" on="1"/>
        <pt x="185" y="195" on="0"/>
        <pt x="275" y="283" on="0"/>
        <pt x="322" y="283" on="1"/>
        <pt x="363" y="283" on="0"/>
        <pt x="371" y="262" on="1"/>
        <pt x="378" y="269" on="0"/>
        <pt x="387" y="272" on="1"/>
        <pt x="397" y="277" on="0"/>
        <pt x="407" y="277" on="1"/>
        <pt x="410" y="277" on="0"/>
        <pt x="410" y="274" on="1"/>
        <pt x="410" y="273" on="0"/>
        <pt x="403" y="266" on="1"/>
        <pt x="380" y="243" on="0"/>
        <pt x="359" y="208" on="1"/>
        <pt x="333" y="164" on="0"/>
        <pt x="333" y="135" on="1"/>
        <pt x="333" y="127" on="0"/>
        <pt x="346" y="115" on="0"/>
      </contour>
    </TTGlyph>
    <TTGlyph name="atilde" xMin="31" yMin="-6" xMax="396" yMax="338">
      <component glyphName="tildecomb" x="58" y="0" flags="0x1004"/>
      <component glyphName="a" x="0" y="0" flags="0x1204"/>
    </TTGlyph>
    <TTGlyph name="b" xMin="60" yMin="-10" xMax="508" yMax="714">
      <contour>
        <pt x="141" y="175" on="1"/>
        <pt x="105" y="115" on="0"/>
        <pt x="105" y="72" on="1"/>
        <pt x="105" y="47" on="0"/>
        <pt x="138" y="10" on="0"/>
        <pt x="160" y="10" on="1"/>
        <pt x="206" y="10" on="0"/>
        <pt x="305" y="126" on="0"/>
        <pt x="305" y="186" on="1"/>
        <pt x="305" y="209" on="0"/>
        <pt x="276" y="229" on="0"/>
        <pt x="260" y="229" on="1"/>
        <pt x="216" y="229" on="0"/>
      </contour>
      <contour>
        <pt x="63" y="202" on="1"/>
        <pt x="153" y="268" on="0"/>
        <pt x="171" y="282" on="1"/>
        <pt x="258" y="447" on="1"/>
        <pt x="264" y="458" on="0"/>
        <pt x="298" y="523" on="0"/>
        <pt x="314" y="551" on="0"/>
        <pt x="347" y="605" on="0"/>
        <pt x="372" y="636" on="0"/>
        <pt x="409" y="674" on="0"/>
        <pt x="429" y="688" on="1"/>
        <pt x="464" y="714" on="0"/>
        <pt x="491" y="714" on="1"/>
        <pt x="508" y="714" on="0"/>
        <pt x="508" y="692" on="1"/>
        <pt x="508" y="652" on="0"/>
        <pt x="470" y="565" on="0"/>
        <pt x="418" y="493" on="0"/>
        <pt x="329" y="405" on="0"/>
        <pt x="264" y="349" on="0"/>
        <pt x="213" y="308" on="1"/>
        <pt x="149" y="190" on="1"/>
        <pt x="234" y="249" on="0"/>
        <pt x="292" y="249" on="1"/>
        <pt x="312" y="249" on="0"/>
        <pt x="339" y="224" on="0"/>
        <pt x="339" y="204" on="1"/>
        <pt x="339" y="140" on="0"/>
        <pt x="198" y="-10" on="0"/>
        <pt x="136" y="-10" on="1"/>
        <pt x="106" y="-10" on="0"/>
        <pt x="68" y="28" on="0"/>
        <pt x="68" y="62" on="1"/>
        <pt x="68" y="92" on="0"/>
        <pt x="100" y="160" on="0"/>
        <pt x="164" y="269" on="1"/>
        <pt x="67" y="199" on="1"/>
        <pt x="62" y="196" on="1"/>
        <pt x="60" y="196" on="0"/>
        <pt x="60" y="200" on="0"/>
      </contour>
      <contour>
        <pt x="221" y="324" on="1"/>
        <pt x="333" y="417" on="0"/>
        <pt x="468" y="585" on="0"/>
        <pt x="468" y="670" on="1"/>
        <pt x="468" y="690" on="0"/>
        <pt x="455" y="690" on="1"/>
        <pt x="432" y="690" on="0"/>
        <pt x="343" y="561" on="0"/>
        <pt x="294" y="466" on="1"/>
      </contour>
    </TTGlyph>
    <TTGlyph name="backslash" xMin="24" yMin="-69" xMax="236" yMax="542">
      <contour>
        <pt x="24" y="532" on="1"/>
        <pt x="24" y="534" on="0"/>
        <pt x="37" y="542" on="0"/>
        <pt x="41" y="542" on="1"/>
        <pt x="42" y="542" on="1"/>
        <pt x="236" y="-58" on="1"/>
        <pt x="236" y="-60" on="0"/>
        <pt x="222" y="-69" on="0"/>
        <pt x="220" y="-69" on="1"/>
        <pt x="219" y="-68" on="1"/>
      </contour>
    </TTGlyph>
    <TTGlyph name="bar" xMin="162" yMin="-52" xMax="181" yMax="492">
      <contour>
        <pt x="162" y="-50" on="1"/>
        <pt x="162" y="481" on="1"/>
        <pt x="162" y="483" on="0"/>
        <pt x="172" y="487" on="1"/>
        <pt x="175" y="488" on="0"/>
        <pt x="178" y="491" on="0"/>
        <pt x="179" y="492" on="0"/>
        <pt x="181" y="492" on="0"/>
        <pt x="181" y="490" on="1"/>
        <pt x="181" y="-41" on="1"/>
        <pt x="181" y="-42" on="0"/>
        <pt x="170" y="-47" on="1"/>
        <pt x="166" y="-49" on="0"/>
        <pt x="164" y="-51" on="1"/>
        <pt x="164" y="-52" on="0"/>
        <pt x="162" y="-52" on="0"/>
      </contour>
    </TTGlyph>
</ttFont>
